<?xml version='1.0' encoding='utf-8'?>
<mlt LC_NUMERIC="C" producer="main_bin" version="6.23.0" root="/home/chiller/Videos/fancut_ASLR_on_the_line">
 <profile frame_rate_num="25" sample_aspect_num="1" display_aspect_den="9" colorspace="709" progressive="1" description="HD 1080p 25 fps" display_aspect_num="16" frame_rate_den="1" width="1920" height="1080" sample_aspect_den="1"/>
 <producer id="producer1" in="00:00:00.000" out="00:44:13.560">
  <property name="length">66340</property>
  <property name="eof">pause</property>
  <property name="resource">mov/34c3-9135-eng-deu-ASLR_on_the_line_hd.mp4</property>
  <property name="audio_index">2</property>
  <property name="video_index">0</property>
  <property name="mute_on_pause">0</property>
  <property name="mlt_service">avformat-novalidate</property>
  <property name="meta.media.nb_streams">4</property>
  <property name="meta.media.0.stream.type">video</property>
  <property name="meta.media.0.stream.frame_rate">25</property>
  <property name="meta.media.0.stream.sample_aspect_ratio">0</property>
  <property name="meta.media.0.codec.width">1920</property>
  <property name="meta.media.0.codec.height">1080</property>
  <property name="meta.media.0.codec.rotate">0</property>
  <property name="meta.media.0.codec.frame_rate">25</property>
  <property name="meta.media.0.codec.pix_fmt">yuv420p</property>
  <property name="meta.media.0.codec.sample_aspect_ratio">1</property>
  <property name="meta.media.0.codec.colorspace">709</property>
  <property name="meta.media.0.codec.name">h264</property>
  <property name="meta.media.0.codec.long_name">H.264 / AVC / MPEG-4 AVC / MPEG-4 part 10</property>
  <property name="meta.media.0.codec.bit_rate">333349</property>
  <property name="meta.attr.0.stream.handler_name.markup">VideoHandler</property>
  <property name="meta.media.1.stream.type">video</property>
  <property name="meta.media.1.stream.frame_rate">25</property>
  <property name="meta.media.1.stream.sample_aspect_ratio">0</property>
  <property name="meta.media.1.codec.width">1920</property>
  <property name="meta.media.1.codec.height">1080</property>
  <property name="meta.media.1.codec.rotate">0</property>
  <property name="meta.media.1.codec.frame_rate">25</property>
  <property name="meta.media.1.codec.pix_fmt">yuv420p</property>
  <property name="meta.media.1.codec.sample_aspect_ratio">1</property>
  <property name="meta.media.1.codec.colorspace">709</property>
  <property name="meta.media.1.codec.name">h264</property>
  <property name="meta.media.1.codec.long_name">H.264 / AVC / MPEG-4 AVC / MPEG-4 part 10</property>
  <property name="meta.media.1.codec.bit_rate">102162</property>
  <property name="meta.attr.1.stream.handler_name.markup">VideoHandler</property>
  <property name="meta.media.2.stream.type">audio</property>
  <property name="meta.media.2.codec.sample_fmt">fltp</property>
  <property name="meta.media.2.codec.sample_rate">48000</property>
  <property name="meta.media.2.codec.channels">2</property>
  <property name="meta.media.2.codec.name">aac</property>
  <property name="meta.media.2.codec.long_name">AAC (Advanced Audio Coding)</property>
  <property name="meta.media.2.codec.bit_rate">127998</property>
  <property name="meta.attr.2.stream.language.markup">eng</property>
  <property name="meta.attr.2.stream.handler_name.markup">SoundHandler</property>
  <property name="meta.media.3.stream.type">audio</property>
  <property name="meta.media.3.codec.sample_fmt">fltp</property>
  <property name="meta.media.3.codec.sample_rate">48000</property>
  <property name="meta.media.3.codec.channels">2</property>
  <property name="meta.media.3.codec.name">aac</property>
  <property name="meta.media.3.codec.long_name">AAC (Advanced Audio Coding)</property>
  <property name="meta.media.3.codec.bit_rate">127998</property>
  <property name="meta.attr.3.stream.language.markup">deu</property>
  <property name="meta.attr.3.stream.handler_name.markup">SoundHandler</property>
  <property name="meta.attr.major_brand.markup">isom</property>
  <property name="meta.attr.minor_version.markup">512</property>
  <property name="meta.attr.compatible_brands.markup">isomiso2avc1mp41</property>
  <property name="meta.attr.title.markup">ASLR on the line</property>
  <property name="meta.attr.artist.markup">brainsmoke</property>
  <property name="meta.attr.album.markup">34th Chaos Communication Congress</property>
  <property name="meta.attr.encoder.markup">Lavf56.40.101</property>
  <property name="meta.attr.genre.markup">lecture</property>
  <property name="meta.attr.copyright.markup">Licensed to the public under https://creativecommons.org/licenses/by/4.0/</property>
  <property name="meta.attr.description.markup">Address Space Layout Randomization (ASLR) is fundamentally broken on modern hardware due to a side-channel attack on the Memory management unit, allowing memory addresses to be leaked from JavaScript.  This talk will show how.</property>
  <property name="seekable">1</property>
  <property name="meta.media.sample_aspect_num">1</property>
  <property name="meta.media.sample_aspect_den">1</property>
  <property name="aspect_ratio">1</property>
  <property name="kdenlive:clipname"/>
  <property name="meta.media.frame_rate_num">25</property>
  <property name="meta.media.frame_rate_den">1</property>
  <property name="meta.media.colorspace">709</property>
  <property name="meta.media.color_trc">2</property>
  <property name="meta.media.width">1920</property>
  <property name="meta.media.height">1080</property>
  <property name="meta.media.color_range">mpeg</property>
  <property name="meta.media.top_field_first">0</property>
  <property name="meta.media.progressive">1</property>
  <property name="global_feed">1</property>
  <property name="kdenlive:folderid">-1</property>
  <property name="kdenlive:id">2</property>
  <property name="kdenlive:active_streams">2;3</property>
  <property name="kdenlive:file_size">233485279</property>
  <property name="kdenlive:file_hash">40fa9e0453e0ee38fcc4028947ab14b4</property>
 </producer>
 <producer id="producer0" in="00:00:00.000" out="00:00:04.960">
  <property name="length">00:00:05.000</property>
  <property name="eof">pause</property>
  <property name="resource">img/rainboiw_dragon.png</property>
  <property name="ttl">25</property>
  <property name="aspect_ratio">1</property>
  <property name="progressive">1</property>
  <property name="seekable">1</property>
  <property name="meta.media.width">600</property>
  <property name="meta.media.height">600</property>
  <property name="mlt_service">qimage</property>
  <property name="kdenlive:clipname"/>
  <property name="kdenlive:duration">00:00:05.000</property>
  <property name="kdenlive:folderid">-1</property>
  <property name="kdenlive:id">3</property>
  <property name="kdenlive:file_size">59872</property>
  <property name="kdenlive:file_hash">c4155faf98d90fdf6129669f33ee42f8</property>
 </producer>
 <producer id="producer2" in="00:00:00.000" out="00:00:04.960">
  <property name="length">125</property>
  <property name="eof">pause</property>
  <property name="resource"/>
  <property name="progressive">1</property>
  <property name="aspect_ratio">1</property>
  <property name="seekable">1</property>
  <property name="mlt_service">kdenlivetitle</property>
  <property name="kdenlive:duration">125</property>
  <property name="kdenlive:clipname">fancut by Ch...</property>
  <property name="xmldata">&lt;kdenlivetitle duration="125" LC_NUMERIC="C" width="1920" height="1080" out="124">
 &lt;item type="QGraphicsTextItem" z-index="0">
  &lt;position x="1308" y="776">
   &lt;transform>1,0,0,0,1,0,0,0,1&lt;/transform>
  &lt;/position>
  &lt;content line-spacing="0" shadow="0;#64000000;3;3;3" font-underline="0" box-height="130" font="Cantarell Extra Bold" letter-spacing="0" font-pixel-size="54" font-italic="0" alignment="2" font-weight="50" box-width="362.234" font-color="255,255,255,255">fancut by
ChillerDragon&lt;/content>
 &lt;/item>
 &lt;startviewport rect="0,0,1920,1080"/>
 &lt;endviewport rect="0,0,1920,1080"/>
 &lt;background color="0,0,0,0"/>
&lt;/kdenlivetitle>
</property>
  <property name="kdenlive:folderid">-1</property>
  <property name="kdenlive:id">4</property>
  <property name="kdenlive:file_hash">7a03b0a9ee8babc9db0bcd50b45cc712</property>
  <property name="force_reload">0</property>
  <property name="meta.media.width">1920</property>
  <property name="meta.media.height">1080</property>
 </producer>
 <playlist id="main_bin">
  <property name="kdenlive:docproperties.activeTrack">4</property>
  <property name="kdenlive:docproperties.audioChannels">2</property>
  <property name="kdenlive:docproperties.audioTarget">-1</property>
  <property name="kdenlive:docproperties.disablepreview">0</property>
  <property name="kdenlive:docproperties.documentid">1600699933774</property>
  <property name="kdenlive:docproperties.enableTimelineZone">0</property>
  <property name="kdenlive:docproperties.enableexternalproxy">0</property>
  <property name="kdenlive:docproperties.enableproxy">0</property>
  <property name="kdenlive:docproperties.externalproxyparams"/>
  <property name="kdenlive:docproperties.generateimageproxy">0</property>
  <property name="kdenlive:docproperties.generateproxy">0</property>
  <property name="kdenlive:docproperties.groups">[
    {
        "children": [
            {
                "data": "1:9411",
                "leaf": "clip",
                "type": "Leaf"
            },
            {
                "data": "2:9411",
                "leaf": "clip",
                "type": "Leaf"
            }
        ],
        "type": "AVSplit"
    },
    {
        "children": [
            {
                "data": "2:22248",
                "leaf": "clip",
                "type": "Leaf"
            },
            {
                "data": "1:22248",
                "leaf": "clip",
                "type": "Leaf"
            }
        ],
        "type": "AVSplit"
    },
    {
        "children": [
            {
                "data": "1:21884",
                "leaf": "clip",
                "type": "Leaf"
            },
            {
                "data": "2:21884",
                "leaf": "clip",
                "type": "Leaf"
            }
        ],
        "type": "AVSplit"
    },
    {
        "children": [
            {
                "data": "2:11803",
                "leaf": "clip",
                "type": "Leaf"
            },
            {
                "data": "1:11803",
                "leaf": "clip",
                "type": "Leaf"
            }
        ],
        "type": "AVSplit"
    },
    {
        "children": [
            {
                "data": "2:37036",
                "leaf": "clip",
                "type": "Leaf"
            },
            {
                "data": "1:37036",
                "leaf": "clip",
                "type": "Leaf"
            }
        ],
        "type": "AVSplit"
    },
    {
        "children": [
            {
                "data": "2:15935",
                "leaf": "clip",
                "type": "Leaf"
            },
            {
                "data": "1:15935",
                "leaf": "clip",
                "type": "Leaf"
            }
        ],
        "type": "AVSplit"
    },
    {
        "children": [
            {
                "data": "1:22666",
                "leaf": "clip",
                "type": "Leaf"
            },
            {
                "data": "2:22666",
                "leaf": "clip",
                "type": "Leaf"
            }
        ],
        "type": "AVSplit"
    },
    {
        "children": [
            {
                "data": "1:6135",
                "leaf": "clip",
                "type": "Leaf"
            },
            {
                "data": "2:6135",
                "leaf": "clip",
                "type": "Leaf"
            }
        ],
        "type": "AVSplit"
    },
    {
        "children": [
            {
                "data": "2:9989",
                "leaf": "clip",
                "type": "Leaf"
            },
            {
                "data": "1:9989",
                "leaf": "clip",
                "type": "Leaf"
            }
        ],
        "type": "AVSplit"
    },
    {
        "children": [
            {
                "data": "2:4560",
                "leaf": "clip",
                "type": "Leaf"
            },
            {
                "data": "1:4560",
                "leaf": "clip",
                "type": "Leaf"
            }
        ],
        "type": "AVSplit"
    },
    {
        "children": [
            {
                "data": "1:29331",
                "leaf": "clip",
                "type": "Leaf"
            },
            {
                "data": "2:29331",
                "leaf": "clip",
                "type": "Leaf"
            }
        ],
        "type": "AVSplit"
    },
    {
        "children": [
            {
                "data": "2:9879",
                "leaf": "clip",
                "type": "Leaf"
            },
            {
                "data": "1:9879",
                "leaf": "clip",
                "type": "Leaf"
            }
        ],
        "type": "AVSplit"
    },
    {
        "children": [
            {
                "data": "2:37006",
                "leaf": "clip",
                "type": "Leaf"
            },
            {
                "data": "1:37006",
                "leaf": "clip",
                "type": "Leaf"
            }
        ],
        "type": "AVSplit"
    },
    {
        "children": [
            {
                "data": "1:11400",
                "leaf": "clip",
                "type": "Leaf"
            },
            {
                "data": "2:11400",
                "leaf": "clip",
                "type": "Leaf"
            }
        ],
        "type": "AVSplit"
    },
    {
        "children": [
            {
                "data": "2:29290",
                "leaf": "clip",
                "type": "Leaf"
            },
            {
                "data": "1:29290",
                "leaf": "clip",
                "type": "Leaf"
            }
        ],
        "type": "AVSplit"
    },
    {
        "children": [
            {
                "data": "1:11059",
                "leaf": "clip",
                "type": "Leaf"
            },
            {
                "data": "2:11059",
                "leaf": "clip",
                "type": "Leaf"
            }
        ],
        "type": "AVSplit"
    },
    {
        "children": [
            {
                "data": "2:36993",
                "leaf": "clip",
                "type": "Leaf"
            },
            {
                "data": "1:36993",
                "leaf": "clip",
                "type": "Leaf"
            }
        ],
        "type": "AVSplit"
    },
    {
        "children": [
            {
                "data": "2:22655",
                "leaf": "clip",
                "type": "Leaf"
            },
            {
                "data": "1:22655",
                "leaf": "clip",
                "type": "Leaf"
            }
        ],
        "type": "AVSplit"
    },
    {
        "children": [
            {
                "data": "1:9714",
                "leaf": "clip",
                "type": "Leaf"
            },
            {
                "data": "2:9714",
                "leaf": "clip",
                "type": "Leaf"
            }
        ],
        "type": "AVSplit"
    },
    {
        "children": [
            {
                "data": "1:2396",
                "leaf": "clip",
                "type": "Leaf"
            },
            {
                "data": "2:2396",
                "leaf": "clip",
                "type": "Leaf"
            }
        ],
        "type": "AVSplit"
    },
    {
        "children": [
            {
                "data": "1:1945",
                "leaf": "clip",
                "type": "Leaf"
            },
            {
                "data": "2:1945",
                "leaf": "clip",
                "type": "Leaf"
            }
        ],
        "type": "AVSplit"
    },
    {
        "children": [
            {
                "data": "2:3831",
                "leaf": "clip",
                "type": "Leaf"
            },
            {
                "data": "1:3831",
                "leaf": "clip",
                "type": "Leaf"
            }
        ],
        "type": "AVSplit"
    },
    {
        "children": [
            {
                "data": "2:12189",
                "leaf": "clip",
                "type": "Leaf"
            },
            {
                "data": "1:12189",
                "leaf": "clip",
                "type": "Leaf"
            }
        ],
        "type": "AVSplit"
    },
    {
        "children": [
            {
                "data": "2:36881",
                "leaf": "clip",
                "type": "Leaf"
            },
            {
                "data": "1:36881",
                "leaf": "clip",
                "type": "Leaf"
            }
        ],
        "type": "AVSplit"
    },
    {
        "children": [
            {
                "data": "1:948",
                "leaf": "clip",
                "type": "Leaf"
            },
            {
                "data": "2:948",
                "leaf": "clip",
                "type": "Leaf"
            }
        ],
        "type": "AVSplit"
    },
    {
        "children": [
            {
                "data": "1:7010",
                "leaf": "clip",
                "type": "Leaf"
            },
            {
                "data": "2:7010",
                "leaf": "clip",
                "type": "Leaf"
            }
        ],
        "type": "AVSplit"
    },
    {
        "children": [
            {
                "data": "1:29231",
                "leaf": "clip",
                "type": "Leaf"
            },
            {
                "data": "2:29231",
                "leaf": "clip",
                "type": "Leaf"
            }
        ],
        "type": "AVSplit"
    },
    {
        "children": [
            {
                "data": "2:2371",
                "leaf": "clip",
                "type": "Leaf"
            },
            {
                "data": "1:2371",
                "leaf": "clip",
                "type": "Leaf"
            }
        ],
        "type": "AVSplit"
    },
    {
        "children": [
            {
                "data": "2:6373",
                "leaf": "clip",
                "type": "Leaf"
            },
            {
                "data": "1:6373",
                "leaf": "clip",
                "type": "Leaf"
            }
        ],
        "type": "AVSplit"
    },
    {
        "children": [
            {
                "data": "2:1913",
                "leaf": "clip",
                "type": "Leaf"
            },
            {
                "data": "1:1913",
                "leaf": "clip",
                "type": "Leaf"
            }
        ],
        "type": "AVSplit"
    },
    {
        "children": [
            {
                "data": "1:5902",
                "leaf": "clip",
                "type": "Leaf"
            },
            {
                "data": "2:5902",
                "leaf": "clip",
                "type": "Leaf"
            }
        ],
        "type": "AVSplit"
    },
    {
        "children": [
            {
                "data": "2:36618",
                "leaf": "clip",
                "type": "Leaf"
            },
            {
                "data": "1:36618",
                "leaf": "clip",
                "type": "Leaf"
            }
        ],
        "type": "AVSplit"
    },
    {
        "children": [
            {
                "data": "1:10155",
                "leaf": "clip",
                "type": "Leaf"
            },
            {
                "data": "2:10155",
                "leaf": "clip",
                "type": "Leaf"
            }
        ],
        "type": "AVSplit"
    },
    {
        "children": [
            {
                "data": "2:6275",
                "leaf": "clip",
                "type": "Leaf"
            },
            {
                "data": "1:6275",
                "leaf": "clip",
                "type": "Leaf"
            }
        ],
        "type": "AVSplit"
    },
    {
        "children": [
            {
                "data": "1:29280",
                "leaf": "clip",
                "type": "Leaf"
            },
            {
                "data": "2:29280",
                "leaf": "clip",
                "type": "Leaf"
            }
        ],
        "type": "AVSplit"
    },
    {
        "children": [
            {
                "data": "1:10231",
                "leaf": "clip",
                "type": "Leaf"
            },
            {
                "data": "2:10231",
                "leaf": "clip",
                "type": "Leaf"
            }
        ],
        "type": "AVSplit"
    },
    {
        "children": [
            {
                "data": "2:6335",
                "leaf": "clip",
                "type": "Leaf"
            },
            {
                "data": "1:6335",
                "leaf": "clip",
                "type": "Leaf"
            }
        ],
        "type": "AVSplit"
    },
    {
        "children": [
            {
                "data": "1:13885",
                "leaf": "clip",
                "type": "Leaf"
            },
            {
                "data": "2:13885",
                "leaf": "clip",
                "type": "Leaf"
            }
        ],
        "type": "AVSplit"
    },
    {
        "children": [
            {
                "data": "2:3541",
                "leaf": "clip",
                "type": "Leaf"
            },
            {
                "data": "1:3541",
                "leaf": "clip",
                "type": "Leaf"
            }
        ],
        "type": "AVSplit"
    },
    {
        "children": [
            {
                "data": "2:22681",
                "leaf": "clip",
                "type": "Leaf"
            },
            {
                "data": "1:22681",
                "leaf": "clip",
                "type": "Leaf"
            }
        ],
        "type": "AVSplit"
    },
    {
        "children": [
            {
                "data": "2:5657",
                "leaf": "clip",
                "type": "Leaf"
            },
            {
                "data": "1:5657",
                "leaf": "clip",
                "type": "Leaf"
            }
        ],
        "type": "AVSplit"
    },
    {
        "children": [
            {
                "data": "2:29194",
                "leaf": "clip",
                "type": "Leaf"
            },
            {
                "data": "1:29194",
                "leaf": "clip",
                "type": "Leaf"
            }
        ],
        "type": "AVSplit"
    },
    {
        "children": [
            {
                "data": "2:10398",
                "leaf": "clip",
                "type": "Leaf"
            },
            {
                "data": "1:10398",
                "leaf": "clip",
                "type": "Leaf"
            }
        ],
        "type": "AVSplit"
    },
    {
        "children": [
            {
                "data": "1:22490",
                "leaf": "clip",
                "type": "Leaf"
            },
            {
                "data": "2:22490",
                "leaf": "clip",
                "type": "Leaf"
            }
        ],
        "type": "AVSplit"
    },
    {
        "children": [
            {
                "data": "1:14245",
                "leaf": "clip",
                "type": "Leaf"
            },
            {
                "data": "2:14245",
                "leaf": "clip",
                "type": "Leaf"
            }
        ],
        "type": "AVSplit"
    },
    {
        "children": [
            {
                "data": "1:36594",
                "leaf": "clip",
                "type": "Leaf"
            },
            {
                "data": "2:36594",
                "leaf": "clip",
                "type": "Leaf"
            }
        ],
        "type": "AVSplit"
    },
    {
        "children": [
            {
                "data": "2:12552",
                "leaf": "clip",
                "type": "Leaf"
            },
            {
                "data": "1:12552",
                "leaf": "clip",
                "type": "Leaf"
            }
        ],
        "type": "AVSplit"
    },
    {
        "children": [
            {
                "data": "1:10435",
                "leaf": "clip",
                "type": "Leaf"
            },
            {
                "data": "2:10435",
                "leaf": "clip",
                "type": "Leaf"
            }
        ],
        "type": "AVSplit"
    },
    {
        "children": [
            {
                "data": "2:2270",
                "leaf": "clip",
                "type": "Leaf"
            },
            {
                "data": "1:2270",
                "leaf": "clip",
                "type": "Leaf"
            }
        ],
        "type": "AVSplit"
    },
    {
        "children": [
            {
                "data": "1:36542",
                "leaf": "clip",
                "type": "Leaf"
            },
            {
                "data": "2:36542",
                "leaf": "clip",
                "type": "Leaf"
            }
        ],
        "type": "AVSplit"
    },
    {
        "children": [
            {
                "data": "2:22875",
                "leaf": "clip",
                "type": "Leaf"
            },
            {
                "data": "1:22875",
                "leaf": "clip",
                "type": "Leaf"
            }
        ],
        "type": "AVSplit"
    },
    {
        "children": [
            {
                "data": "2:7195",
                "leaf": "clip",
                "type": "Leaf"
            },
            {
                "data": "1:7195",
                "leaf": "clip",
                "type": "Leaf"
            }
        ],
        "type": "AVSplit"
    },
    {
        "children": [
            {
                "data": "1:14415",
                "leaf": "clip",
                "type": "Leaf"
            },
            {
                "data": "2:14415",
                "leaf": "clip",
                "type": "Leaf"
            }
        ],
        "type": "AVSplit"
    },
    {
        "children": [
            {
                "data": "2:11008",
                "leaf": "clip",
                "type": "Leaf"
            },
            {
                "data": "1:11008",
                "leaf": "clip",
                "type": "Leaf"
            }
        ],
        "type": "AVSplit"
    },
    {
        "children": [
            {
                "data": "2:10471",
                "leaf": "clip",
                "type": "Leaf"
            },
            {
                "data": "1:10471",
                "leaf": "clip",
                "type": "Leaf"
            }
        ],
        "type": "AVSplit"
    },
    {
        "children": [
            {
                "data": "2:2618",
                "leaf": "clip",
                "type": "Leaf"
            },
            {
                "data": "1:2618",
                "leaf": "clip",
                "type": "Leaf"
            }
        ],
        "type": "AVSplit"
    },
    {
        "children": [
            {
                "data": "2:14434",
                "leaf": "clip",
                "type": "Leaf"
            },
            {
                "data": "1:14434",
                "leaf": "clip",
                "type": "Leaf"
            }
        ],
        "type": "AVSplit"
    },
    {
        "children": [
            {
                "data": "1:22421",
                "leaf": "clip",
                "type": "Leaf"
            },
            {
                "data": "2:22421",
                "leaf": "clip",
                "type": "Leaf"
            }
        ],
        "type": "AVSplit"
    },
    {
        "children": [
            {
                "data": "1:10555",
                "leaf": "clip",
                "type": "Leaf"
            },
            {
                "data": "2:10555",
                "leaf": "clip",
                "type": "Leaf"
            }
        ],
        "type": "AVSplit"
    },
    {
        "children": [
            {
                "data": "2:36504",
                "leaf": "clip",
                "type": "Leaf"
            },
            {
                "data": "1:36504",
                "leaf": "clip",
                "type": "Leaf"
            }
        ],
        "type": "AVSplit"
    },
    {
        "children": [
            {
                "data": "2:2680",
                "leaf": "clip",
                "type": "Leaf"
            },
            {
                "data": "1:2680",
                "leaf": "clip",
                "type": "Leaf"
            }
        ],
        "type": "AVSplit"
    },
    {
        "children": [
            {
                "data": "2:14585",
                "leaf": "clip",
                "type": "Leaf"
            },
            {
                "data": "1:14585",
                "leaf": "clip",
                "type": "Leaf"
            }
        ],
        "type": "AVSplit"
    },
    {
        "children": [
            {
                "data": "2:2927",
                "leaf": "clip",
                "type": "Leaf"
            },
            {
                "data": "1:2927",
                "leaf": "clip",
                "type": "Leaf"
            }
        ],
        "type": "AVSplit"
    },
    {
        "children": [
            {
                "data": "1:29154",
                "leaf": "clip",
                "type": "Leaf"
            },
            {
                "data": "2:29154",
                "leaf": "clip",
                "type": "Leaf"
            }
        ],
        "type": "AVSplit"
    },
    {
        "children": [
            {
                "data": "1:10567",
                "leaf": "clip",
                "type": "Leaf"
            },
            {
                "data": "2:10567",
                "leaf": "clip",
                "type": "Leaf"
            }
        ],
        "type": "AVSplit"
    },
    {
        "children": [
            {
                "data": "2:15856",
                "leaf": "clip",
                "type": "Leaf"
            },
            {
                "data": "1:15856",
                "leaf": "clip",
                "type": "Leaf"
            }
        ],
        "type": "AVSplit"
    },
    {
        "children": [
            {
                "data": "2:14609",
                "leaf": "clip",
                "type": "Leaf"
            },
            {
                "data": "1:14609",
                "leaf": "clip",
                "type": "Leaf"
            }
        ],
        "type": "AVSplit"
    },
    {
        "children": [
            {
                "data": "2:4645",
                "leaf": "clip",
                "type": "Leaf"
            },
            {
                "data": "1:4645",
                "leaf": "clip",
                "type": "Leaf"
            }
        ],
        "type": "AVSplit"
    },
    {
        "children": [
            {
                "data": "2:23257",
                "leaf": "clip",
                "type": "Leaf"
            },
            {
                "data": "1:23257",
                "leaf": "clip",
                "type": "Leaf"
            }
        ],
        "type": "AVSplit"
    },
    {
        "children": [
            {
                "data": "1:21364",
                "leaf": "clip",
                "type": "Leaf"
            },
            {
                "data": "2:21364",
                "leaf": "clip",
                "type": "Leaf"
            }
        ],
        "type": "AVSplit"
    },
    {
        "children": [
            {
                "data": "2:29129",
                "leaf": "clip",
                "type": "Leaf"
            },
            {
                "data": "1:29129",
                "leaf": "clip",
                "type": "Leaf"
            }
        ],
        "type": "AVSplit"
    },
    {
        "children": [
            {
                "data": "2:12990",
                "leaf": "clip",
                "type": "Leaf"
            },
            {
                "data": "1:12990",
                "leaf": "clip",
                "type": "Leaf"
            }
        ],
        "type": "AVSplit"
    },
    {
        "children": [
            {
                "data": "2:16753",
                "leaf": "clip",
                "type": "Leaf"
            },
            {
                "data": "1:16753",
                "leaf": "clip",
                "type": "Leaf"
            }
        ],
        "type": "AVSplit"
    },
    {
        "children": [
            {
                "data": "2:5701",
                "leaf": "clip",
                "type": "Leaf"
            },
            {
                "data": "1:5701",
                "leaf": "clip",
                "type": "Leaf"
            }
        ],
        "type": "AVSplit"
    },
    {
        "children": [
            {
                "data": "2:36391",
                "leaf": "clip",
                "type": "Leaf"
            },
            {
                "data": "1:36391",
                "leaf": "clip",
                "type": "Leaf"
            }
        ],
        "type": "AVSplit"
    },
    {
        "children": [
            {
                "data": "2:2899",
                "leaf": "clip",
                "type": "Leaf"
            },
            {
                "data": "1:2899",
                "leaf": "clip",
                "type": "Leaf"
            }
        ],
        "type": "AVSplit"
    },
    {
        "children": [
            {
                "data": "2:13004",
                "leaf": "clip",
                "type": "Leaf"
            },
            {
                "data": "1:13004",
                "leaf": "clip",
                "type": "Leaf"
            }
        ],
        "type": "AVSplit"
    },
    {
        "children": [
            {
                "data": "2:2941",
                "leaf": "clip",
                "type": "Leaf"
            },
            {
                "data": "1:2941",
                "leaf": "clip",
                "type": "Leaf"
            }
        ],
        "type": "AVSplit"
    },
    {
        "children": [
            {
                "data": "1:986",
                "leaf": "clip",
                "type": "Leaf"
            },
            {
                "data": "2:986",
                "leaf": "clip",
                "type": "Leaf"
            }
        ],
        "type": "AVSplit"
    },
    {
        "children": [
            {
                "data": "2:2955",
                "leaf": "clip",
                "type": "Leaf"
            },
            {
                "data": "1:2955",
                "leaf": "clip",
                "type": "Leaf"
            }
        ],
        "type": "AVSplit"
    },
    {
        "children": [
            {
                "data": "2:13018",
                "leaf": "clip",
                "type": "Leaf"
            },
            {
                "data": "1:13018",
                "leaf": "clip",
                "type": "Leaf"
            }
        ],
        "type": "AVSplit"
    },
    {
        "children": [
            {
                "data": "1:29080",
                "leaf": "clip",
                "type": "Leaf"
            },
            {
                "data": "2:29080",
                "leaf": "clip",
                "type": "Leaf"
            }
        ],
        "type": "AVSplit"
    },
    {
        "children": [
            {
                "data": "2:36268",
                "leaf": "clip",
                "type": "Leaf"
            },
            {
                "data": "1:36268",
                "leaf": "clip",
                "type": "Leaf"
            }
        ],
        "type": "AVSplit"
    },
    {
        "children": [
            {
                "data": "1:3054",
                "leaf": "clip",
                "type": "Leaf"
            },
            {
                "data": "2:3054",
                "leaf": "clip",
                "type": "Leaf"
            }
        ],
        "type": "AVSplit"
    },
    {
        "children": [
            {
                "data": "1:2502",
                "leaf": "clip",
                "type": "Leaf"
            },
            {
                "data": "2:2502",
                "leaf": "clip",
                "type": "Leaf"
            }
        ],
        "type": "AVSplit"
    },
    {
        "children": [
            {
                "data": "2:21309",
                "leaf": "clip",
                "type": "Leaf"
            },
            {
                "data": "1:21309",
                "leaf": "clip",
                "type": "Leaf"
            }
        ],
        "type": "AVSplit"
    },
    {
        "children": [
            {
                "data": "1:29065",
                "leaf": "clip",
                "type": "Leaf"
            },
            {
                "data": "2:29065",
                "leaf": "clip",
                "type": "Leaf"
            }
        ],
        "type": "AVSplit"
    },
    {
        "children": [
            {
                "data": "2:23317",
                "leaf": "clip",
                "type": "Leaf"
            },
            {
                "data": "1:23317",
                "leaf": "clip",
                "type": "Leaf"
            }
        ],
        "type": "AVSplit"
    },
    {
        "children": [
            {
                "data": "2:3513",
                "leaf": "clip",
                "type": "Leaf"
            },
            {
                "data": "1:3513",
                "leaf": "clip",
                "type": "Leaf"
            }
        ],
        "type": "AVSplit"
    },
    {
        "children": [
            {
                "data": "1:13073",
                "leaf": "clip",
                "type": "Leaf"
            },
            {
                "data": "2:13073",
                "leaf": "clip",
                "type": "Leaf"
            }
        ],
        "type": "AVSplit"
    },
    {
        "children": [
            {
                "data": "2:36187",
                "leaf": "clip",
                "type": "Leaf"
            },
            {
                "data": "1:36187",
                "leaf": "clip",
                "type": "Leaf"
            }
        ],
        "type": "AVSplit"
    },
    {
        "children": [
            {
                "data": "2:2996",
                "leaf": "clip",
                "type": "Leaf"
            },
            {
                "data": "1:2996",
                "leaf": "clip",
                "type": "Leaf"
            }
        ],
        "type": "AVSplit"
    },
    {
        "children": [
            {
                "data": "1:1690",
                "leaf": "clip",
                "type": "Leaf"
            },
            {
                "data": "2:1690",
                "leaf": "clip",
                "type": "Leaf"
            }
        ],
        "type": "AVSplit"
    },
    {
        "children": [
            {
                "data": "1:1144",
                "leaf": "clip",
                "type": "Leaf"
            },
            {
                "data": "2:1144",
                "leaf": "clip",
                "type": "Leaf"
            }
        ],
        "type": "AVSplit"
    },
    {
        "children": [
            {
                "data": "1:13103",
                "leaf": "clip",
                "type": "Leaf"
            },
            {
                "data": "2:13103",
                "leaf": "clip",
                "type": "Leaf"
            }
        ],
        "type": "AVSplit"
    },
    {
        "children": [
            {
                "data": "1:12330",
                "leaf": "clip",
                "type": "Leaf"
            },
            {
                "data": "2:12330",
                "leaf": "clip",
                "type": "Leaf"
            }
        ],
        "type": "AVSplit"
    },
    {
        "children": [
            {
                "data": "1:981",
                "leaf": "clip",
                "type": "Leaf"
            },
            {
                "data": "2:981",
                "leaf": "clip",
                "type": "Leaf"
            }
        ],
        "type": "AVSplit"
    },
    {
        "children": [
            {
                "data": "2:36143",
                "leaf": "clip",
                "type": "Leaf"
            },
            {
                "data": "1:36143",
                "leaf": "clip",
                "type": "Leaf"
            }
        ],
        "type": "AVSplit"
    },
    {
        "children": [
            {
                "data": "1:21273",
                "leaf": "clip",
                "type": "Leaf"
            },
            {
                "data": "2:21273",
                "leaf": "clip",
                "type": "Leaf"
            }
        ],
        "type": "AVSplit"
    },
    {
        "children": [
            {
                "data": "2:13162",
                "leaf": "clip",
                "type": "Leaf"
            },
            {
                "data": "1:13162",
                "leaf": "clip",
                "type": "Leaf"
            }
        ],
        "type": "AVSplit"
    },
    {
        "children": [
            {
                "data": "2:2295",
                "leaf": "clip",
                "type": "Leaf"
            },
            {
                "data": "1:2295",
                "leaf": "clip",
                "type": "Leaf"
            }
        ],
        "type": "AVSplit"
    },
    {
        "children": [
            {
                "data": "1:29010",
                "leaf": "clip",
                "type": "Leaf"
            },
            {
                "data": "2:29010",
                "leaf": "clip",
                "type": "Leaf"
            }
        ],
        "type": "AVSplit"
    },
    {
        "children": [
            {
                "data": "2:36099",
                "leaf": "clip",
                "type": "Leaf"
            },
            {
                "data": "1:36099",
                "leaf": "clip",
                "type": "Leaf"
            }
        ],
        "type": "AVSplit"
    },
    {
        "children": [
            {
                "data": "1:1533",
                "leaf": "clip",
                "type": "Leaf"
            },
            {
                "data": "2:1533",
                "leaf": "clip",
                "type": "Leaf"
            }
        ],
        "type": "AVSplit"
    },
    {
        "children": [
            {
                "data": "1:21567",
                "leaf": "clip",
                "type": "Leaf"
            },
            {
                "data": "2:21567",
                "leaf": "clip",
                "type": "Leaf"
            }
        ],
        "type": "AVSplit"
    },
    {
        "children": [
            {
                "data": "2:23381",
                "leaf": "clip",
                "type": "Leaf"
            },
            {
                "data": "1:23381",
                "leaf": "clip",
                "type": "Leaf"
            }
        ],
        "type": "AVSplit"
    },
    {
        "children": [
            {
                "data": "2:28991",
                "leaf": "clip",
                "type": "Leaf"
            },
            {
                "data": "1:28991",
                "leaf": "clip",
                "type": "Leaf"
            }
        ],
        "type": "AVSplit"
    },
    {
        "children": [
            {
                "data": "2:5249",
                "leaf": "clip",
                "type": "Leaf"
            },
            {
                "data": "1:5249",
                "leaf": "clip",
                "type": "Leaf"
            }
        ],
        "type": "AVSplit"
    },
    {
        "children": [
            {
                "data": "1:13132",
                "leaf": "clip",
                "type": "Leaf"
            },
            {
                "data": "2:13132",
                "leaf": "clip",
                "type": "Leaf"
            }
        ],
        "type": "AVSplit"
    },
    {
        "children": [
            {
                "data": "1:9367",
                "leaf": "clip",
                "type": "Leaf"
            },
            {
                "data": "2:9367",
                "leaf": "clip",
                "type": "Leaf"
            }
        ],
        "type": "AVSplit"
    },
    {
        "children": [
            {
                "data": "2:13190",
                "leaf": "clip",
                "type": "Leaf"
            },
            {
                "data": "1:13190",
                "leaf": "clip",
                "type": "Leaf"
            }
        ],
        "type": "AVSplit"
    },
    {
        "children": [
            {
                "data": "1:2591",
                "leaf": "clip",
                "type": "Leaf"
            },
            {
                "data": "2:2591",
                "leaf": "clip",
                "type": "Leaf"
            }
        ],
        "type": "AVSplit"
    },
    {
        "children": [
            {
                "data": "1:13230",
                "leaf": "clip",
                "type": "Leaf"
            },
            {
                "data": "2:13230",
                "leaf": "clip",
                "type": "Leaf"
            }
        ],
        "type": "AVSplit"
    },
    {
        "children": [
            {
                "data": "2:28726",
                "leaf": "clip",
                "type": "Leaf"
            },
            {
                "data": "1:28726",
                "leaf": "clip",
                "type": "Leaf"
            }
        ],
        "type": "AVSplit"
    },
    {
        "children": [
            {
                "data": "1:35952",
                "leaf": "clip",
                "type": "Leaf"
            },
            {
                "data": "2:35952",
                "leaf": "clip",
                "type": "Leaf"
            }
        ],
        "type": "AVSplit"
    },
    {
        "children": [
            {
                "data": "2:6615",
                "leaf": "clip",
                "type": "Leaf"
            },
            {
                "data": "1:6615",
                "leaf": "clip",
                "type": "Leaf"
            }
        ],
        "type": "AVSplit"
    },
    {
        "children": [
            {
                "data": "1:13300",
                "leaf": "clip",
                "type": "Leaf"
            },
            {
                "data": "2:13300",
                "leaf": "clip",
                "type": "Leaf"
            }
        ],
        "type": "AVSplit"
    },
    {
        "children": [
            {
                "data": "2:10626",
                "leaf": "clip",
                "type": "Leaf"
            },
            {
                "data": "1:10626",
                "leaf": "clip",
                "type": "Leaf"
            }
        ],
        "type": "AVSplit"
    },
    {
        "children": [
            {
                "data": "2:13553",
                "leaf": "clip",
                "type": "Leaf"
            },
            {
                "data": "1:13553",
                "leaf": "clip",
                "type": "Leaf"
            }
        ],
        "type": "AVSplit"
    },
    {
        "children": [
            {
                "data": "2:14843",
                "leaf": "clip",
                "type": "Leaf"
            },
            {
                "data": "1:14843",
                "leaf": "clip",
                "type": "Leaf"
            }
        ],
        "type": "AVSplit"
    },
    {
        "children": [
            {
                "data": "2:13615",
                "leaf": "clip",
                "type": "Leaf"
            },
            {
                "data": "1:13615",
                "leaf": "clip",
                "type": "Leaf"
            }
        ],
        "type": "AVSplit"
    },
    {
        "children": [
            {
                "data": "1:35579",
                "leaf": "clip",
                "type": "Leaf"
            },
            {
                "data": "2:35579",
                "leaf": "clip",
                "type": "Leaf"
            }
        ],
        "type": "AVSplit"
    },
    {
        "children": [
            {
                "data": "2:3790",
                "leaf": "clip",
                "type": "Leaf"
            },
            {
                "data": "1:3790",
                "leaf": "clip",
                "type": "Leaf"
            }
        ],
        "type": "AVSplit"
    },
    {
        "children": [
            {
                "data": "2:13633",
                "leaf": "clip",
                "type": "Leaf"
            },
            {
                "data": "1:13633",
                "leaf": "clip",
                "type": "Leaf"
            }
        ],
        "type": "AVSplit"
    },
    {
        "children": [
            {
                "data": "2:21146",
                "leaf": "clip",
                "type": "Leaf"
            },
            {
                "data": "1:21146",
                "leaf": "clip",
                "type": "Leaf"
            }
        ],
        "type": "AVSplit"
    },
    {
        "children": [
            {
                "data": "1:13648",
                "leaf": "clip",
                "type": "Leaf"
            },
            {
                "data": "2:13648",
                "leaf": "clip",
                "type": "Leaf"
            }
        ],
        "type": "AVSplit"
    },
    {
        "children": [
            {
                "data": "1:6958",
                "leaf": "clip",
                "type": "Leaf"
            },
            {
                "data": "2:6958",
                "leaf": "clip",
                "type": "Leaf"
            }
        ],
        "type": "AVSplit"
    },
    {
        "children": [
            {
                "data": "2:13764",
                "leaf": "clip",
                "type": "Leaf"
            },
            {
                "data": "1:13764",
                "leaf": "clip",
                "type": "Leaf"
            }
        ],
        "type": "AVSplit"
    },
    {
        "children": [
            {
                "data": "1:28710",
                "leaf": "clip",
                "type": "Leaf"
            },
            {
                "data": "2:28710",
                "leaf": "clip",
                "type": "Leaf"
            }
        ],
        "type": "AVSplit"
    },
    {
        "children": [
            {
                "data": "1:10760",
                "leaf": "clip",
                "type": "Leaf"
            },
            {
                "data": "2:10760",
                "leaf": "clip",
                "type": "Leaf"
            }
        ],
        "type": "AVSplit"
    },
    {
        "children": [
            {
                "data": "1:23403",
                "leaf": "clip",
                "type": "Leaf"
            },
            {
                "data": "2:23403",
                "leaf": "clip",
                "type": "Leaf"
            }
        ],
        "type": "AVSplit"
    },
    {
        "children": [
            {
                "data": "2:5785",
                "leaf": "clip",
                "type": "Leaf"
            },
            {
                "data": "1:5785",
                "leaf": "clip",
                "type": "Leaf"
            }
        ],
        "type": "AVSplit"
    },
    {
        "children": [
            {
                "data": "1:35521",
                "leaf": "clip",
                "type": "Leaf"
            },
            {
                "data": "2:35521",
                "leaf": "clip",
                "type": "Leaf"
            }
        ],
        "type": "AVSplit"
    },
    {
        "children": [
            {
                "data": "2:13746",
                "leaf": "clip",
                "type": "Leaf"
            },
            {
                "data": "1:13746",
                "leaf": "clip",
                "type": "Leaf"
            }
        ],
        "type": "AVSplit"
    },
    {
        "children": [
            {
                "data": "2:3348",
                "leaf": "clip",
                "type": "Leaf"
            },
            {
                "data": "1:3348",
                "leaf": "clip",
                "type": "Leaf"
            }
        ],
        "type": "AVSplit"
    },
    {
        "children": [
            {
                "data": "1:13858",
                "leaf": "clip",
                "type": "Leaf"
            },
            {
                "data": "2:13858",
                "leaf": "clip",
                "type": "Leaf"
            }
        ],
        "type": "AVSplit"
    },
    {
        "children": [
            {
                "data": "2:28648",
                "leaf": "clip",
                "type": "Leaf"
            },
            {
                "data": "1:28648",
                "leaf": "clip",
                "type": "Leaf"
            }
        ],
        "type": "AVSplit"
    },
    {
        "children": [
            {
                "data": "2:35474",
                "leaf": "clip",
                "type": "Leaf"
            },
            {
                "data": "1:35474",
                "leaf": "clip",
                "type": "Leaf"
            }
        ],
        "type": "AVSplit"
    },
    {
        "children": [
            {
                "data": "1:4088",
                "leaf": "clip",
                "type": "Leaf"
            },
            {
                "data": "2:4088",
                "leaf": "clip",
                "type": "Leaf"
            }
        ],
        "type": "AVSplit"
    },
    {
        "children": [
            {
                "data": "2:13778",
                "leaf": "clip",
                "type": "Leaf"
            },
            {
                "data": "1:13778",
                "leaf": "clip",
                "type": "Leaf"
            }
        ],
        "type": "AVSplit"
    },
    {
        "children": [
            {
                "data": "1:3679",
                "leaf": "clip",
                "type": "Leaf"
            },
            {
                "data": "2:3679",
                "leaf": "clip",
                "type": "Leaf"
            }
        ],
        "type": "AVSplit"
    },
    {
        "children": [
            {
                "data": "2:13868",
                "leaf": "clip",
                "type": "Leaf"
            },
            {
                "data": "1:13868",
                "leaf": "clip",
                "type": "Leaf"
            }
        ],
        "type": "AVSplit"
    },
    {
        "children": [
            {
                "data": "1:7784",
                "leaf": "clip",
                "type": "Leaf"
            },
            {
                "data": "2:7784",
                "leaf": "clip",
                "type": "Leaf"
            }
        ],
        "type": "AVSplit"
    },
    {
        "children": [
            {
                "data": "1:14189",
                "leaf": "clip",
                "type": "Leaf"
            },
            {
                "data": "2:14189",
                "leaf": "clip",
                "type": "Leaf"
            }
        ],
        "type": "AVSplit"
    },
    {
        "children": [
            {
                "data": "1:21166",
                "leaf": "clip",
                "type": "Leaf"
            },
            {
                "data": "2:21166",
                "leaf": "clip",
                "type": "Leaf"
            }
        ],
        "type": "AVSplit"
    },
    {
        "children": [
            {
                "data": "1:16272",
                "leaf": "clip",
                "type": "Leaf"
            },
            {
                "data": "2:16272",
                "leaf": "clip",
                "type": "Leaf"
            }
        ],
        "type": "AVSplit"
    },
    {
        "children": [
            {
                "data": "2:4524",
                "leaf": "clip",
                "type": "Leaf"
            },
            {
                "data": "1:4524",
                "leaf": "clip",
                "type": "Leaf"
            }
        ],
        "type": "AVSplit"
    },
    {
        "children": [
            {
                "data": "1:28446",
                "leaf": "clip",
                "type": "Leaf"
            },
            {
                "data": "2:28446",
                "leaf": "clip",
                "type": "Leaf"
            }
        ],
        "type": "AVSplit"
    },
    {
        "children": [
            {
                "data": "1:16322",
                "leaf": "clip",
                "type": "Leaf"
            },
            {
                "data": "2:16322",
                "leaf": "clip",
                "type": "Leaf"
            }
        ],
        "type": "AVSplit"
    },
    {
        "children": [
            {
                "data": "2:4859",
                "leaf": "clip",
                "type": "Leaf"
            },
            {
                "data": "1:4859",
                "leaf": "clip",
                "type": "Leaf"
            }
        ],
        "type": "AVSplit"
    },
    {
        "children": [
            {
                "data": "1:16497",
                "leaf": "clip",
                "type": "Leaf"
            },
            {
                "data": "2:16497",
                "leaf": "clip",
                "type": "Leaf"
            }
        ],
        "type": "AVSplit"
    },
    {
        "children": [
            {
                "data": "1:28402",
                "leaf": "clip",
                "type": "Leaf"
            },
            {
                "data": "2:28402",
                "leaf": "clip",
                "type": "Leaf"
            }
        ],
        "type": "AVSplit"
    },
    {
        "children": [
            {
                "data": "1:927",
                "leaf": "clip",
                "type": "Leaf"
            },
            {
                "data": "2:927",
                "leaf": "clip",
                "type": "Leaf"
            }
        ],
        "type": "AVSplit"
    },
    {
        "children": [
            {
                "data": "1:16526",
                "leaf": "clip",
                "type": "Leaf"
            },
            {
                "data": "2:16526",
                "leaf": "clip",
                "type": "Leaf"
            }
        ],
        "type": "AVSplit"
    },
    {
        "children": [
            {
                "data": "2:14670",
                "leaf": "clip",
                "type": "Leaf"
            },
            {
                "data": "1:14670",
                "leaf": "clip",
                "type": "Leaf"
            }
        ],
        "type": "AVSplit"
    },
    {
        "children": [
            {
                "data": "2:23585",
                "leaf": "clip",
                "type": "Leaf"
            },
            {
                "data": "1:23585",
                "leaf": "clip",
                "type": "Leaf"
            }
        ],
        "type": "AVSplit"
    },
    {
        "children": [
            {
                "data": "1:5041",
                "leaf": "clip",
                "type": "Leaf"
            },
            {
                "data": "2:5041",
                "leaf": "clip",
                "type": "Leaf"
            }
        ],
        "type": "AVSplit"
    },
    {
        "children": [
            {
                "data": "1:16653",
                "leaf": "clip",
                "type": "Leaf"
            },
            {
                "data": "2:16653",
                "leaf": "clip",
                "type": "Leaf"
            }
        ],
        "type": "AVSplit"
    },
    {
        "children": [
            {
                "data": "2:20920",
                "leaf": "clip",
                "type": "Leaf"
            },
            {
                "data": "1:20920",
                "leaf": "clip",
                "type": "Leaf"
            }
        ],
        "type": "AVSplit"
    },
    {
        "children": [
            {
                "data": "2:16715",
                "leaf": "clip",
                "type": "Leaf"
            },
            {
                "data": "1:16715",
                "leaf": "clip",
                "type": "Leaf"
            }
        ],
        "type": "AVSplit"
    },
    {
        "children": [
            {
                "data": "2:17848",
                "leaf": "clip",
                "type": "Leaf"
            },
            {
                "data": "1:17848",
                "leaf": "clip",
                "type": "Leaf"
            }
        ],
        "type": "AVSplit"
    },
    {
        "children": [
            {
                "data": "2:28364",
                "leaf": "clip",
                "type": "Leaf"
            },
            {
                "data": "1:28364",
                "leaf": "clip",
                "type": "Leaf"
            }
        ],
        "type": "AVSplit"
    },
    {
        "children": [
            {
                "data": "2:16769",
                "leaf": "clip",
                "type": "Leaf"
            },
            {
                "data": "1:16769",
                "leaf": "clip",
                "type": "Leaf"
            }
        ],
        "type": "AVSplit"
    },
    {
        "children": [
            {
                "data": "2:8545",
                "leaf": "clip",
                "type": "Leaf"
            },
            {
                "data": "1:8545",
                "leaf": "clip",
                "type": "Leaf"
            }
        ],
        "type": "AVSplit"
    },
    {
        "children": [
            {
                "data": "1:23779",
                "leaf": "clip",
                "type": "Leaf"
            },
            {
                "data": "2:23779",
                "leaf": "clip",
                "type": "Leaf"
            }
        ],
        "type": "AVSplit"
    },
    {
        "children": [
            {
                "data": "1:3495",
                "leaf": "clip",
                "type": "Leaf"
            },
            {
                "data": "2:3495",
                "leaf": "clip",
                "type": "Leaf"
            }
        ],
        "type": "AVSplit"
    },
    {
        "children": [
            {
                "data": "1:27977",
                "leaf": "clip",
                "type": "Leaf"
            },
            {
                "data": "2:27977",
                "leaf": "clip",
                "type": "Leaf"
            }
        ],
        "type": "AVSplit"
    },
    {
        "children": [
            {
                "data": "1:12745",
                "leaf": "clip",
                "type": "Leaf"
            },
            {
                "data": "2:12745",
                "leaf": "clip",
                "type": "Leaf"
            }
        ],
        "type": "AVSplit"
    },
    {
        "children": [
            {
                "data": "1:20241",
                "leaf": "clip",
                "type": "Leaf"
            },
            {
                "data": "2:20241",
                "leaf": "clip",
                "type": "Leaf"
            }
        ],
        "type": "AVSplit"
    },
    {
        "children": [
            {
                "data": "1:44732",
                "leaf": "clip",
                "type": "Leaf"
            },
            {
                "data": "2:44732",
                "leaf": "clip",
                "type": "Leaf"
            }
        ],
        "type": "AVSplit"
    },
    {
        "children": [
            {
                "data": "2:19663",
                "leaf": "clip",
                "type": "Leaf"
            },
            {
                "data": "1:19663",
                "leaf": "clip",
                "type": "Leaf"
            }
        ],
        "type": "AVSplit"
    },
    {
        "children": [
            {
                "data": "2:1330",
                "leaf": "clip",
                "type": "Leaf"
            },
            {
                "data": "1:1330",
                "leaf": "clip",
                "type": "Leaf"
            }
        ],
        "type": "AVSplit"
    },
    {
        "children": [
            {
                "data": "2:34572",
                "leaf": "clip",
                "type": "Leaf"
            },
            {
                "data": "1:34572",
                "leaf": "clip",
                "type": "Leaf"
            }
        ],
        "type": "AVSplit"
    },
    {
        "children": [
            {
                "data": "2:7514",
                "leaf": "clip",
                "type": "Leaf"
            },
            {
                "data": "1:7514",
                "leaf": "clip",
                "type": "Leaf"
            }
        ],
        "type": "AVSplit"
    },
    {
        "children": [
            {
                "data": "1:17440",
                "leaf": "clip",
                "type": "Leaf"
            },
            {
                "data": "2:17440",
                "leaf": "clip",
                "type": "Leaf"
            }
        ],
        "type": "AVSplit"
    },
    {
        "children": [
            {
                "data": "2:27868",
                "leaf": "clip",
                "type": "Leaf"
            },
            {
                "data": "1:27868",
                "leaf": "clip",
                "type": "Leaf"
            }
        ],
        "type": "AVSplit"
    },
    {
        "children": [
            {
                "data": "2:17729",
                "leaf": "clip",
                "type": "Leaf"
            },
            {
                "data": "1:17729",
                "leaf": "clip",
                "type": "Leaf"
            }
        ],
        "type": "AVSplit"
    },
    {
        "children": [
            {
                "data": "2:34547",
                "leaf": "clip",
                "type": "Leaf"
            },
            {
                "data": "1:34547",
                "leaf": "clip",
                "type": "Leaf"
            }
        ],
        "type": "AVSplit"
    },
    {
        "children": [
            {
                "data": "1:5385",
                "leaf": "clip",
                "type": "Leaf"
            },
            {
                "data": "2:5385",
                "leaf": "clip",
                "type": "Leaf"
            }
        ],
        "type": "AVSplit"
    },
    {
        "children": [
            {
                "data": "2:20228",
                "leaf": "clip",
                "type": "Leaf"
            },
            {
                "data": "1:20228",
                "leaf": "clip",
                "type": "Leaf"
            }
        ],
        "type": "AVSplit"
    },
    {
        "children": [
            {
                "data": "1:6682",
                "leaf": "clip",
                "type": "Leaf"
            },
            {
                "data": "2:6682",
                "leaf": "clip",
                "type": "Leaf"
            }
        ],
        "type": "AVSplit"
    },
    {
        "children": [
            {
                "data": "1:20171",
                "leaf": "clip",
                "type": "Leaf"
            },
            {
                "data": "2:20171",
                "leaf": "clip",
                "type": "Leaf"
            }
        ],
        "type": "AVSplit"
    },
    {
        "children": [
            {
                "data": "2:44702",
                "leaf": "clip",
                "type": "Leaf"
            },
            {
                "data": "1:44702",
                "leaf": "clip",
                "type": "Leaf"
            }
        ],
        "type": "AVSplit"
    },
    {
        "children": [
            {
                "data": "1:2553",
                "leaf": "clip",
                "type": "Leaf"
            },
            {
                "data": "2:2553",
                "leaf": "clip",
                "type": "Leaf"
            }
        ],
        "type": "AVSplit"
    },
    {
        "children": [
            {
                "data": "2:27902",
                "leaf": "clip",
                "type": "Leaf"
            },
            {
                "data": "1:27902",
                "leaf": "clip",
                "type": "Leaf"
            }
        ],
        "type": "AVSplit"
    },
    {
        "children": [
            {
                "data": "1:20139",
                "leaf": "clip",
                "type": "Leaf"
            },
            {
                "data": "2:20139",
                "leaf": "clip",
                "type": "Leaf"
            }
        ],
        "type": "AVSplit"
    },
    {
        "children": [
            {
                "data": "2:34537",
                "leaf": "clip",
                "type": "Leaf"
            },
            {
                "data": "1:34537",
                "leaf": "clip",
                "type": "Leaf"
            }
        ],
        "type": "AVSplit"
    },
    {
        "children": [
            {
                "data": "2:23925",
                "leaf": "clip",
                "type": "Leaf"
            },
            {
                "data": "1:23925",
                "leaf": "clip",
                "type": "Leaf"
            }
        ],
        "type": "AVSplit"
    },
    {
        "children": [
            {
                "data": "2:6910",
                "leaf": "clip",
                "type": "Leaf"
            },
            {
                "data": "1:6910",
                "leaf": "clip",
                "type": "Leaf"
            }
        ],
        "type": "AVSplit"
    },
    {
        "children": [
            {
                "data": "1:27813",
                "leaf": "clip",
                "type": "Leaf"
            },
            {
                "data": "2:27813",
                "leaf": "clip",
                "type": "Leaf"
            }
        ],
        "type": "AVSplit"
    },
    {
        "children": [
            {
                "data": "1:4633",
                "leaf": "clip",
                "type": "Leaf"
            },
            {
                "data": "2:4633",
                "leaf": "clip",
                "type": "Leaf"
            }
        ],
        "type": "AVSplit"
    },
    {
        "children": [
            {
                "data": "2:22023",
                "leaf": "clip",
                "type": "Leaf"
            },
            {
                "data": "1:22023",
                "leaf": "clip",
                "type": "Leaf"
            }
        ],
        "type": "AVSplit"
    },
    {
        "children": [
            {
                "data": "2:44696",
                "leaf": "clip",
                "type": "Leaf"
            },
            {
                "data": "1:44696",
                "leaf": "clip",
                "type": "Leaf"
            }
        ],
        "type": "AVSplit"
    },
    {
        "children": [
            {
                "data": "2:10926",
                "leaf": "clip",
                "type": "Leaf"
            },
            {
                "data": "1:10926",
                "leaf": "clip",
                "type": "Leaf"
            }
        ],
        "type": "AVSplit"
    },
    {
        "children": [
            {
                "data": "2:20859",
                "leaf": "clip",
                "type": "Leaf"
            },
            {
                "data": "1:20859",
                "leaf": "clip",
                "type": "Leaf"
            }
        ],
        "type": "AVSplit"
    },
    {
        "children": [
            {
                "data": "2:9238",
                "leaf": "clip",
                "type": "Leaf"
            },
            {
                "data": "1:9238",
                "leaf": "clip",
                "type": "Leaf"
            }
        ],
        "type": "AVSplit"
    },
    {
        "children": [
            {
                "data": "2:19841",
                "leaf": "clip",
                "type": "Leaf"
            },
            {
                "data": "1:19841",
                "leaf": "clip",
                "type": "Leaf"
            }
        ],
        "type": "AVSplit"
    },
    {
        "children": [
            {
                "data": "2:15881",
                "leaf": "clip",
                "type": "Leaf"
            },
            {
                "data": "1:15881",
                "leaf": "clip",
                "type": "Leaf"
            }
        ],
        "type": "AVSplit"
    },
    {
        "children": [
            {
                "data": "1:19934",
                "leaf": "clip",
                "type": "Leaf"
            },
            {
                "data": "2:19934",
                "leaf": "clip",
                "type": "Leaf"
            }
        ],
        "type": "AVSplit"
    },
    {
        "children": [
            {
                "data": "2:44606",
                "leaf": "clip",
                "type": "Leaf"
            },
            {
                "data": "1:44606",
                "leaf": "clip",
                "type": "Leaf"
            }
        ],
        "type": "AVSplit"
    },
    {
        "children": [
            {
                "data": "1:12726",
                "leaf": "clip",
                "type": "Leaf"
            },
            {
                "data": "2:12726",
                "leaf": "clip",
                "type": "Leaf"
            }
        ],
        "type": "AVSplit"
    },
    {
        "children": [
            {
                "data": "2:18253",
                "leaf": "clip",
                "type": "Leaf"
            },
            {
                "data": "1:18253",
                "leaf": "clip",
                "type": "Leaf"
            }
        ],
        "type": "AVSplit"
    },
    {
        "children": [
            {
                "data": "1:34563",
                "leaf": "clip",
                "type": "Leaf"
            },
            {
                "data": "2:34563",
                "leaf": "clip",
                "type": "Leaf"
            }
        ],
        "type": "AVSplit"
    },
    {
        "children": [
            {
                "data": "1:12259",
                "leaf": "clip",
                "type": "Leaf"
            },
            {
                "data": "2:12259",
                "leaf": "clip",
                "type": "Leaf"
            }
        ],
        "type": "AVSplit"
    },
    {
        "children": [
            {
                "data": "1:19721",
                "leaf": "clip",
                "type": "Leaf"
            },
            {
                "data": "2:19721",
                "leaf": "clip",
                "type": "Leaf"
            }
        ],
        "type": "AVSplit"
    },
    {
        "children": [
            {
                "data": "2:18478",
                "leaf": "clip",
                "type": "Leaf"
            },
            {
                "data": "1:18478",
                "leaf": "clip",
                "type": "Leaf"
            }
        ],
        "type": "AVSplit"
    },
    {
        "children": [
            {
                "data": "1:44330",
                "leaf": "clip",
                "type": "Leaf"
            },
            {
                "data": "2:44330",
                "leaf": "clip",
                "type": "Leaf"
            }
        ],
        "type": "AVSplit"
    },
    {
        "children": [
            {
                "data": "2:2823",
                "leaf": "clip",
                "type": "Leaf"
            },
            {
                "data": "1:2823",
                "leaf": "clip",
                "type": "Leaf"
            }
        ],
        "type": "AVSplit"
    },
    {
        "children": [
            {
                "data": "2:18152",
                "leaf": "clip",
                "type": "Leaf"
            },
            {
                "data": "1:18152",
                "leaf": "clip",
                "type": "Leaf"
            }
        ],
        "type": "AVSplit"
    },
    {
        "children": [
            {
                "data": "2:8272",
                "leaf": "clip",
                "type": "Leaf"
            },
            {
                "data": "1:8272",
                "leaf": "clip",
                "type": "Leaf"
            }
        ],
        "type": "AVSplit"
    },
    {
        "children": [
            {
                "data": "1:44209",
                "leaf": "clip",
                "type": "Leaf"
            },
            {
                "data": "2:44209",
                "leaf": "clip",
                "type": "Leaf"
            }
        ],
        "type": "AVSplit"
    },
    {
        "children": [
            {
                "data": "2:20500",
                "leaf": "clip",
                "type": "Leaf"
            },
            {
                "data": "1:20500",
                "leaf": "clip",
                "type": "Leaf"
            }
        ],
        "type": "AVSplit"
    },
    {
        "children": [
            {
                "data": "2:27609",
                "leaf": "clip",
                "type": "Leaf"
            },
            {
                "data": "1:27609",
                "leaf": "clip",
                "type": "Leaf"
            }
        ],
        "type": "AVSplit"
    },
    {
        "children": [
            {
                "data": "2:16787",
                "leaf": "clip",
                "type": "Leaf"
            },
            {
                "data": "1:16787",
                "leaf": "clip",
                "type": "Leaf"
            }
        ],
        "type": "AVSplit"
    },
    {
        "children": [
            {
                "data": "2:34496",
                "leaf": "clip",
                "type": "Leaf"
            },
            {
                "data": "1:34496",
                "leaf": "clip",
                "type": "Leaf"
            }
        ],
        "type": "AVSplit"
    },
    {
        "children": [
            {
                "data": "2:11329",
                "leaf": "clip",
                "type": "Leaf"
            },
            {
                "data": "1:11329",
                "leaf": "clip",
                "type": "Leaf"
            }
        ],
        "type": "AVSplit"
    },
    {
        "children": [
            {
                "data": "1:21606",
                "leaf": "clip",
                "type": "Leaf"
            },
            {
                "data": "2:21606",
                "leaf": "clip",
                "type": "Leaf"
            }
        ],
        "type": "AVSplit"
    },
    {
        "children": [
            {
                "data": "2:9464",
                "leaf": "clip",
                "type": "Leaf"
            },
            {
                "data": "1:9464",
                "leaf": "clip",
                "type": "Leaf"
            }
        ],
        "type": "AVSplit"
    },
    {
        "children": [
            {
                "data": "2:34448",
                "leaf": "clip",
                "type": "Leaf"
            },
            {
                "data": "1:34448",
                "leaf": "clip",
                "type": "Leaf"
            }
        ],
        "type": "AVSplit"
    },
    {
        "children": [
            {
                "data": "2:4251",
                "leaf": "clip",
                "type": "Leaf"
            },
            {
                "data": "1:4251",
                "leaf": "clip",
                "type": "Leaf"
            }
        ],
        "type": "AVSplit"
    },
    {
        "children": [
            {
                "data": "1:1399",
                "leaf": "clip",
                "type": "Leaf"
            },
            {
                "data": "2:1399",
                "leaf": "clip",
                "type": "Leaf"
            }
        ],
        "type": "AVSplit"
    },
    {
        "children": [
            {
                "data": "2:27590",
                "leaf": "clip",
                "type": "Leaf"
            },
            {
                "data": "1:27590",
                "leaf": "clip",
                "type": "Leaf"
            }
        ],
        "type": "AVSplit"
    },
    {
        "children": [
            {
                "data": "2:7026",
                "leaf": "clip",
                "type": "Leaf"
            },
            {
                "data": "1:7026",
                "leaf": "clip",
                "type": "Leaf"
            }
        ],
        "type": "AVSplit"
    },
    {
        "children": [
            {
                "data": "2:15599",
                "leaf": "clip",
                "type": "Leaf"
            },
            {
                "data": "1:15599",
                "leaf": "clip",
                "type": "Leaf"
            }
        ],
        "type": "AVSplit"
    },
    {
        "children": [
            {
                "data": "2:44115",
                "leaf": "clip",
                "type": "Leaf"
            },
            {
                "data": "1:44115",
                "leaf": "clip",
                "type": "Leaf"
            }
        ],
        "type": "AVSplit"
    },
    {
        "children": [
            {
                "data": "2:10899",
                "leaf": "clip",
                "type": "Leaf"
            },
            {
                "data": "1:10899",
                "leaf": "clip",
                "type": "Leaf"
            }
        ],
        "type": "AVSplit"
    },
    {
        "children": [
            {
                "data": "2:18599",
                "leaf": "clip",
                "type": "Leaf"
            },
            {
                "data": "1:18599",
                "leaf": "clip",
                "type": "Leaf"
            }
        ],
        "type": "AVSplit"
    },
    {
        "children": [
            {
                "data": "2:27635",
                "leaf": "clip",
                "type": "Leaf"
            },
            {
                "data": "1:27635",
                "leaf": "clip",
                "type": "Leaf"
            }
        ],
        "type": "AVSplit"
    },
    {
        "children": [
            {
                "data": "1:12298",
                "leaf": "clip",
                "type": "Leaf"
            },
            {
                "data": "2:12298",
                "leaf": "clip",
                "type": "Leaf"
            }
        ],
        "type": "AVSplit"
    },
    {
        "children": [
            {
                "data": "2:18757",
                "leaf": "clip",
                "type": "Leaf"
            },
            {
                "data": "1:18757",
                "leaf": "clip",
                "type": "Leaf"
            }
        ],
        "type": "AVSplit"
    },
    {
        "children": [
            {
                "data": "1:34517",
                "leaf": "clip",
                "type": "Leaf"
            },
            {
                "data": "2:34517",
                "leaf": "clip",
                "type": "Leaf"
            }
        ],
        "type": "AVSplit"
    },
    {
        "children": [
            {
                "data": "1:1617",
                "leaf": "clip",
                "type": "Leaf"
            },
            {
                "data": "2:1617",
                "leaf": "clip",
                "type": "Leaf"
            }
        ],
        "type": "AVSplit"
    },
    {
        "children": [
            {
                "data": "2:16177",
                "leaf": "clip",
                "type": "Leaf"
            },
            {
                "data": "1:16177",
                "leaf": "clip",
                "type": "Leaf"
            }
        ],
        "type": "AVSplit"
    },
    {
        "children": [
            {
                "data": "1:5091",
                "leaf": "clip",
                "type": "Leaf"
            },
            {
                "data": "2:5091",
                "leaf": "clip",
                "type": "Leaf"
            }
        ],
        "type": "AVSplit"
    },
    {
        "children": [
            {
                "data": "2:19577",
                "leaf": "clip",
                "type": "Leaf"
            },
            {
                "data": "1:19577",
                "leaf": "clip",
                "type": "Leaf"
            }
        ],
        "type": "AVSplit"
    },
    {
        "children": [
            {
                "data": "2:27724",
                "leaf": "clip",
                "type": "Leaf"
            },
            {
                "data": "1:27724",
                "leaf": "clip",
                "type": "Leaf"
            }
        ],
        "type": "AVSplit"
    },
    {
        "children": [
            {
                "data": "1:5435",
                "leaf": "clip",
                "type": "Leaf"
            },
            {
                "data": "2:5435",
                "leaf": "clip",
                "type": "Leaf"
            }
        ],
        "type": "AVSplit"
    },
    {
        "children": [
            {
                "data": "2:44447",
                "leaf": "clip",
                "type": "Leaf"
            },
            {
                "data": "1:44447",
                "leaf": "clip",
                "type": "Leaf"
            }
        ],
        "type": "AVSplit"
    },
    {
        "children": [
            {
                "data": "1:12594",
                "leaf": "clip",
                "type": "Leaf"
            },
            {
                "data": "2:12594",
                "leaf": "clip",
                "type": "Leaf"
            }
        ],
        "type": "AVSplit"
    },
    {
        "children": [
            {
                "data": "2:17810",
                "leaf": "clip",
                "type": "Leaf"
            },
            {
                "data": "1:17810",
                "leaf": "clip",
                "type": "Leaf"
            }
        ],
        "type": "AVSplit"
    },
    {
        "children": [
            {
                "data": "2:17093",
                "leaf": "clip",
                "type": "Leaf"
            },
            {
                "data": "1:17093",
                "leaf": "clip",
                "type": "Leaf"
            }
        ],
        "type": "AVSplit"
    },
    {
        "children": [
            {
                "data": "1:1853",
                "leaf": "clip",
                "type": "Leaf"
            },
            {
                "data": "2:1853",
                "leaf": "clip",
                "type": "Leaf"
            }
        ],
        "type": "AVSplit"
    },
    {
        "children": [
            {
                "data": "2:35255",
                "leaf": "clip",
                "type": "Leaf"
            },
            {
                "data": "1:35255",
                "leaf": "clip",
                "type": "Leaf"
            }
        ],
        "type": "AVSplit"
    },
    {
        "children": [
            {
                "data": "2:17490",
                "leaf": "clip",
                "type": "Leaf"
            },
            {
                "data": "1:17490",
                "leaf": "clip",
                "type": "Leaf"
            }
        ],
        "type": "AVSplit"
    },
    {
        "children": [
            {
                "data": "2:27755",
                "leaf": "clip",
                "type": "Leaf"
            },
            {
                "data": "1:27755",
                "leaf": "clip",
                "type": "Leaf"
            }
        ],
        "type": "AVSplit"
    },
    {
        "children": [
            {
                "data": "1:19701",
                "leaf": "clip",
                "type": "Leaf"
            },
            {
                "data": "2:19701",
                "leaf": "clip",
                "type": "Leaf"
            }
        ],
        "type": "AVSplit"
    },
    {
        "children": [
            {
                "data": "2:7168",
                "leaf": "clip",
                "type": "Leaf"
            },
            {
                "data": "1:7168",
                "leaf": "clip",
                "type": "Leaf"
            }
        ],
        "type": "AVSplit"
    },
    {
        "children": [
            {
                "data": "2:10707",
                "leaf": "clip",
                "type": "Leaf"
            },
            {
                "data": "1:10707",
                "leaf": "clip",
                "type": "Leaf"
            }
        ],
        "type": "AVSplit"
    },
    {
        "children": [
            {
                "data": "2:18304",
                "leaf": "clip",
                "type": "Leaf"
            },
            {
                "data": "1:18304",
                "leaf": "clip",
                "type": "Leaf"
            }
        ],
        "type": "AVSplit"
    },
    {
        "children": [
            {
                "data": "2:44779",
                "leaf": "clip",
                "type": "Leaf"
            },
            {
                "data": "1:44779",
                "leaf": "clip",
                "type": "Leaf"
            }
        ],
        "type": "AVSplit"
    },
    {
        "children": [
            {
                "data": "2:5132",
                "leaf": "clip",
                "type": "Leaf"
            },
            {
                "data": "1:5132",
                "leaf": "clip",
                "type": "Leaf"
            }
        ],
        "type": "AVSplit"
    },
    {
        "children": [
            {
                "data": "1:34587",
                "leaf": "clip",
                "type": "Leaf"
            },
            {
                "data": "2:34587",
                "leaf": "clip",
                "type": "Leaf"
            }
        ],
        "type": "AVSplit"
    },
    {
        "children": [
            {
                "data": "1:20087",
                "leaf": "clip",
                "type": "Leaf"
            },
            {
                "data": "2:20087",
                "leaf": "clip",
                "type": "Leaf"
            }
        ],
        "type": "AVSplit"
    },
    {
        "children": [
            {
                "data": "1:17120",
                "leaf": "clip",
                "type": "Leaf"
            },
            {
                "data": "2:17120",
                "leaf": "clip",
                "type": "Leaf"
            }
        ],
        "type": "AVSplit"
    },
    {
        "children": [
            {
                "data": "2:44871",
                "leaf": "clip",
                "type": "Leaf"
            },
            {
                "data": "1:44871",
                "leaf": "clip",
                "type": "Leaf"
            }
        ],
        "type": "AVSplit"
    },
    {
        "children": [
            {
                "data": "2:18313",
                "leaf": "clip",
                "type": "Leaf"
            },
            {
                "data": "1:18313",
                "leaf": "clip",
                "type": "Leaf"
            }
        ],
        "type": "AVSplit"
    },
    {
        "children": [
            {
                "data": "2:18108",
                "leaf": "clip",
                "type": "Leaf"
            },
            {
                "data": "1:18108",
                "leaf": "clip",
                "type": "Leaf"
            }
        ],
        "type": "AVSplit"
    },
    {
        "children": [
            {
                "data": "2:28006",
                "leaf": "clip",
                "type": "Leaf"
            },
            {
                "data": "1:28006",
                "leaf": "clip",
                "type": "Leaf"
            }
        ],
        "type": "AVSplit"
    },
    {
        "children": [
            {
                "data": "1:20110",
                "leaf": "clip",
                "type": "Leaf"
            },
            {
                "data": "2:20110",
                "leaf": "clip",
                "type": "Leaf"
            }
        ],
        "type": "AVSplit"
    },
    {
        "children": [
            {
                "data": "1:10882",
                "leaf": "clip",
                "type": "Leaf"
            },
            {
                "data": "2:10882",
                "leaf": "clip",
                "type": "Leaf"
            }
        ],
        "type": "AVSplit"
    },
    {
        "children": [
            {
                "data": "1:23801",
                "leaf": "clip",
                "type": "Leaf"
            },
            {
                "data": "2:23801",
                "leaf": "clip",
                "type": "Leaf"
            }
        ],
        "type": "AVSplit"
    },
    {
        "children": [
            {
                "data": "2:28042",
                "leaf": "clip",
                "type": "Leaf"
            },
            {
                "data": "1:28042",
                "leaf": "clip",
                "type": "Leaf"
            }
        ],
        "type": "AVSplit"
    },
    {
        "children": [
            {
                "data": "1:8171",
                "leaf": "clip",
                "type": "Leaf"
            },
            {
                "data": "2:8171",
                "leaf": "clip",
                "type": "Leaf"
            }
        ],
        "type": "AVSplit"
    },
    {
        "children": [
            {
                "data": "2:18435",
                "leaf": "clip",
                "type": "Leaf"
            },
            {
                "data": "1:18435",
                "leaf": "clip",
                "type": "Leaf"
            }
        ],
        "type": "AVSplit"
    },
    {
        "children": [
            {
                "data": "2:34633",
                "leaf": "clip",
                "type": "Leaf"
            },
            {
                "data": "1:34633",
                "leaf": "clip",
                "type": "Leaf"
            }
        ],
        "type": "AVSplit"
    },
    {
        "children": [
            {
                "data": "1:887",
                "leaf": "clip",
                "type": "Leaf"
            },
            {
                "data": "2:887",
                "leaf": "clip",
                "type": "Leaf"
            }
        ],
        "type": "AVSplit"
    },
    {
        "children": [
            {
                "data": "1:3166",
                "leaf": "clip",
                "type": "Leaf"
            },
            {
                "data": "2:3166",
                "leaf": "clip",
                "type": "Leaf"
            }
        ],
        "type": "AVSplit"
    },
    {
        "children": [
            {
                "data": "1:44939",
                "leaf": "clip",
                "type": "Leaf"
            },
            {
                "data": "2:44939",
                "leaf": "clip",
                "type": "Leaf"
            }
        ],
        "type": "AVSplit"
    },
    {
        "children": [
            {
                "data": "2:18266",
                "leaf": "clip",
                "type": "Leaf"
            },
            {
                "data": "1:18266",
                "leaf": "clip",
                "type": "Leaf"
            }
        ],
        "type": "AVSplit"
    },
    {
        "children": [
            {
                "data": "1:34651",
                "leaf": "clip",
                "type": "Leaf"
            },
            {
                "data": "2:34651",
                "leaf": "clip",
                "type": "Leaf"
            }
        ],
        "type": "AVSplit"
    },
    {
        "children": [
            {
                "data": "2:9139",
                "leaf": "clip",
                "type": "Leaf"
            },
            {
                "data": "1:9139",
                "leaf": "clip",
                "type": "Leaf"
            }
        ],
        "type": "AVSplit"
    },
    {
        "children": [
            {
                "data": "1:12213",
                "leaf": "clip",
                "type": "Leaf"
            },
            {
                "data": "2:12213",
                "leaf": "clip",
                "type": "Leaf"
            }
        ],
        "type": "AVSplit"
    },
    {
        "children": [
            {
                "data": "2:1176",
                "leaf": "clip",
                "type": "Leaf"
            },
            {
                "data": "1:1176",
                "leaf": "clip",
                "type": "Leaf"
            }
        ],
        "type": "AVSplit"
    },
    {
        "children": [
            {
                "data": "1:38361",
                "leaf": "clip",
                "type": "Leaf"
            },
            {
                "data": "2:38361",
                "leaf": "clip",
                "type": "Leaf"
            }
        ],
        "type": "AVSplit"
    },
    {
        "children": [
            {
                "data": "1:12898",
                "leaf": "clip",
                "type": "Leaf"
            },
            {
                "data": "2:12898",
                "leaf": "clip",
                "type": "Leaf"
            }
        ],
        "type": "AVSplit"
    },
    {
        "children": [
            {
                "data": "2:43939",
                "leaf": "clip",
                "type": "Leaf"
            },
            {
                "data": "1:43939",
                "leaf": "clip",
                "type": "Leaf"
            }
        ],
        "type": "AVSplit"
    },
    {
        "children": [
            {
                "data": "2:6573",
                "leaf": "clip",
                "type": "Leaf"
            },
            {
                "data": "1:6573",
                "leaf": "clip",
                "type": "Leaf"
            }
        ],
        "type": "AVSplit"
    },
    {
        "children": [
            {
                "data": "2:24059",
                "leaf": "clip",
                "type": "Leaf"
            },
            {
                "data": "1:24059",
                "leaf": "clip",
                "type": "Leaf"
            }
        ],
        "type": "AVSplit"
    },
    {
        "children": [
            {
                "data": "1:39006",
                "leaf": "clip",
                "type": "Leaf"
            },
            {
                "data": "2:39006",
                "leaf": "clip",
                "type": "Leaf"
            }
        ],
        "type": "AVSplit"
    },
    {
        "children": [
            {
                "data": "2:9226",
                "leaf": "clip",
                "type": "Leaf"
            },
            {
                "data": "1:9226",
                "leaf": "clip",
                "type": "Leaf"
            }
        ],
        "type": "AVSplit"
    },
    {
        "children": [
            {
                "data": "1:21917",
                "leaf": "clip",
                "type": "Leaf"
            },
            {
                "data": "2:21917",
                "leaf": "clip",
                "type": "Leaf"
            }
        ],
        "type": "AVSplit"
    },
    {
        "children": [
            {
                "data": "1:5594",
                "leaf": "clip",
                "type": "Leaf"
            },
            {
                "data": "2:5594",
                "leaf": "clip",
                "type": "Leaf"
            }
        ],
        "type": "AVSplit"
    },
    {
        "children": [
            {
                "data": "2:8387",
                "leaf": "clip",
                "type": "Leaf"
            },
            {
                "data": "1:8387",
                "leaf": "clip",
                "type": "Leaf"
            }
        ],
        "type": "AVSplit"
    },
    {
        "children": [
            {
                "data": "1:9194",
                "leaf": "clip",
                "type": "Leaf"
            },
            {
                "data": "2:9194",
                "leaf": "clip",
                "type": "Leaf"
            }
        ],
        "type": "AVSplit"
    },
    {
        "children": [
            {
                "data": "1:24711",
                "leaf": "clip",
                "type": "Leaf"
            },
            {
                "data": "2:24711",
                "leaf": "clip",
                "type": "Leaf"
            }
        ],
        "type": "AVSplit"
    },
    {
        "children": [
            {
                "data": "2:6695",
                "leaf": "clip",
                "type": "Leaf"
            },
            {
                "data": "1:6695",
                "leaf": "clip",
                "type": "Leaf"
            }
        ],
        "type": "AVSplit"
    },
    {
        "children": [
            {
                "data": "1:21684",
                "leaf": "clip",
                "type": "Leaf"
            },
            {
                "data": "2:21684",
                "leaf": "clip",
                "type": "Leaf"
            }
        ],
        "type": "AVSplit"
    },
    {
        "children": [
            {
                "data": "2:19219",
                "leaf": "clip",
                "type": "Leaf"
            },
            {
                "data": "1:19219",
                "leaf": "clip",
                "type": "Leaf"
            }
        ],
        "type": "AVSplit"
    },
    {
        "children": [
            {
                "data": "1:16209",
                "leaf": "clip",
                "type": "Leaf"
            },
            {
                "data": "2:16209",
                "leaf": "clip",
                "type": "Leaf"
            }
        ],
        "type": "AVSplit"
    },
    {
        "children": [
            {
                "data": "1:39684",
                "leaf": "clip",
                "type": "Leaf"
            },
            {
                "data": "2:39684",
                "leaf": "clip",
                "type": "Leaf"
            }
        ],
        "type": "AVSplit"
    },
    {
        "children": [
            {
                "data": "2:24644",
                "leaf": "clip",
                "type": "Leaf"
            },
            {
                "data": "1:24644",
                "leaf": "clip",
                "type": "Leaf"
            }
        ],
        "type": "AVSplit"
    },
    {
        "children": [
            {
                "data": "2:17124",
                "leaf": "clip",
                "type": "Leaf"
            },
            {
                "data": "1:17124",
                "leaf": "clip",
                "type": "Leaf"
            }
        ],
        "type": "AVSplit"
    },
    {
        "children": [
            {
                "data": "2:7109",
                "leaf": "clip",
                "type": "Leaf"
            },
            {
                "data": "1:7109",
                "leaf": "clip",
                "type": "Leaf"
            }
        ],
        "type": "AVSplit"
    },
    {
        "children": [
            {
                "data": "2:18694",
                "leaf": "clip",
                "type": "Leaf"
            },
            {
                "data": "1:18694",
                "leaf": "clip",
                "type": "Leaf"
            }
        ],
        "type": "AVSplit"
    },
    {
        "children": [
            {
                "data": "2:8850",
                "leaf": "clip",
                "type": "Leaf"
            },
            {
                "data": "1:8850",
                "leaf": "clip",
                "type": "Leaf"
            }
        ],
        "type": "AVSplit"
    },
    {
        "children": [
            {
                "data": "1:11105",
                "leaf": "clip",
                "type": "Leaf"
            },
            {
                "data": "2:11105",
                "leaf": "clip",
                "type": "Leaf"
            }
        ],
        "type": "AVSplit"
    },
    {
        "children": [
            {
                "data": "2:8648",
                "leaf": "clip",
                "type": "Leaf"
            },
            {
                "data": "1:8648",
                "leaf": "clip",
                "type": "Leaf"
            }
        ],
        "type": "AVSplit"
    },
    {
        "children": [
            {
                "data": "2:5930",
                "leaf": "clip",
                "type": "Leaf"
            },
            {
                "data": "1:5930",
                "leaf": "clip",
                "type": "Leaf"
            }
        ],
        "type": "AVSplit"
    },
    {
        "children": [
            {
                "data": "2:15967",
                "leaf": "clip",
                "type": "Leaf"
            },
            {
                "data": "1:15967",
                "leaf": "clip",
                "type": "Leaf"
            }
        ],
        "type": "AVSplit"
    },
    {
        "children": [
            {
                "data": "2:39750",
                "leaf": "clip",
                "type": "Leaf"
            },
            {
                "data": "1:39750",
                "leaf": "clip",
                "type": "Leaf"
            }
        ],
        "type": "AVSplit"
    },
    {
        "children": [
            {
                "data": "2:19651",
                "leaf": "clip",
                "type": "Leaf"
            },
            {
                "data": "1:19651",
                "leaf": "clip",
                "type": "Leaf"
            }
        ],
        "type": "AVSplit"
    },
    {
        "children": [
            {
                "data": "2:19794",
                "leaf": "clip",
                "type": "Leaf"
            },
            {
                "data": "1:19794",
                "leaf": "clip",
                "type": "Leaf"
            }
        ],
        "type": "AVSplit"
    },
    {
        "children": [
            {
                "data": "1:7663",
                "leaf": "clip",
                "type": "Leaf"
            },
            {
                "data": "2:7663",
                "leaf": "clip",
                "type": "Leaf"
            }
        ],
        "type": "AVSplit"
    },
    {
        "children": [
            {
                "data": "2:22038",
                "leaf": "clip",
                "type": "Leaf"
            },
            {
                "data": "1:22038",
                "leaf": "clip",
                "type": "Leaf"
            }
        ],
        "type": "AVSplit"
    },
    {
        "children": [
            {
                "data": "1:24892",
                "leaf": "clip",
                "type": "Leaf"
            },
            {
                "data": "2:24892",
                "leaf": "clip",
                "type": "Leaf"
            }
        ],
        "type": "AVSplit"
    },
    {
        "children": [
            {
                "data": "1:2186",
                "leaf": "clip",
                "type": "Leaf"
            },
            {
                "data": "2:2186",
                "leaf": "clip",
                "type": "Leaf"
            }
        ],
        "type": "AVSplit"
    },
    {
        "children": [
            {
                "data": "2:24506",
                "leaf": "clip",
                "type": "Leaf"
            },
            {
                "data": "1:24506",
                "leaf": "clip",
                "type": "Leaf"
            }
        ],
        "type": "AVSplit"
    },
    {
        "children": [
            {
                "data": "1:21833",
                "leaf": "clip",
                "type": "Leaf"
            },
            {
                "data": "2:21833",
                "leaf": "clip",
                "type": "Leaf"
            }
        ],
        "type": "AVSplit"
    },
    {
        "children": [
            {
                "data": "2:20562",
                "leaf": "clip",
                "type": "Leaf"
            },
            {
                "data": "1:20562",
                "leaf": "clip",
                "type": "Leaf"
            }
        ],
        "type": "AVSplit"
    },
    {
        "children": [
            {
                "data": "1:20189",
                "leaf": "clip",
                "type": "Leaf"
            },
            {
                "data": "2:20189",
                "leaf": "clip",
                "type": "Leaf"
            }
        ],
        "type": "AVSplit"
    },
    {
        "children": [
            {
                "data": "1:7694",
                "leaf": "clip",
                "type": "Leaf"
            },
            {
                "data": "2:7694",
                "leaf": "clip",
                "type": "Leaf"
            }
        ],
        "type": "AVSplit"
    },
    {
        "children": [
            {
                "data": "1:40313",
                "leaf": "clip",
                "type": "Leaf"
            },
            {
                "data": "2:40313",
                "leaf": "clip",
                "type": "Leaf"
            }
        ],
        "type": "AVSplit"
    },
    {
        "children": [
            {
                "data": "1:3532",
                "leaf": "clip",
                "type": "Leaf"
            },
            {
                "data": "2:3532",
                "leaf": "clip",
                "type": "Leaf"
            }
        ],
        "type": "AVSplit"
    },
    {
        "children": [
            {
                "data": "2:12238",
                "leaf": "clip",
                "type": "Leaf"
            },
            {
                "data": "1:12238",
                "leaf": "clip",
                "type": "Leaf"
            }
        ],
        "type": "AVSplit"
    },
    {
        "children": [
            {
                "data": "1:29859",
                "leaf": "clip",
                "type": "Leaf"
            },
            {
                "data": "2:29859",
                "leaf": "clip",
                "type": "Leaf"
            }
        ],
        "type": "AVSplit"
    },
    {
        "children": [
            {
                "data": "1:18032",
                "leaf": "clip",
                "type": "Leaf"
            },
            {
                "data": "2:18032",
                "leaf": "clip",
                "type": "Leaf"
            }
        ],
        "type": "AVSplit"
    },
    {
        "children": [
            {
                "data": "2:6802",
                "leaf": "clip",
                "type": "Leaf"
            },
            {
                "data": "1:6802",
                "leaf": "clip",
                "type": "Leaf"
            }
        ],
        "type": "AVSplit"
    },
    {
        "children": [
            {
                "data": "1:28114",
                "leaf": "clip",
                "type": "Leaf"
            },
            {
                "data": "2:28114",
                "leaf": "clip",
                "type": "Leaf"
            }
        ],
        "type": "AVSplit"
    },
    {
        "children": [
            {
                "data": "2:3021",
                "leaf": "clip",
                "type": "Leaf"
            },
            {
                "data": "1:3021",
                "leaf": "clip",
                "type": "Leaf"
            }
        ],
        "type": "AVSplit"
    },
    {
        "children": [
            {
                "data": "1:21862",
                "leaf": "clip",
                "type": "Leaf"
            },
            {
                "data": "2:21862",
                "leaf": "clip",
                "type": "Leaf"
            }
        ],
        "type": "AVSplit"
    },
    {
        "children": [
            {
                "data": "1:40357",
                "leaf": "clip",
                "type": "Leaf"
            },
            {
                "data": "2:40357",
                "leaf": "clip",
                "type": "Leaf"
            }
        ],
        "type": "AVSplit"
    },
    {
        "children": [
            {
                "data": "2:9207",
                "leaf": "clip",
                "type": "Leaf"
            },
            {
                "data": "1:9207",
                "leaf": "clip",
                "type": "Leaf"
            }
        ],
        "type": "AVSplit"
    },
    {
        "children": [
            {
                "data": "2:28261",
                "leaf": "clip",
                "type": "Leaf"
            },
            {
                "data": "1:28261",
                "leaf": "clip",
                "type": "Leaf"
            }
        ],
        "type": "AVSplit"
    },
    {
        "children": [
            {
                "data": "1:19591",
                "leaf": "clip",
                "type": "Leaf"
            },
            {
                "data": "2:19591",
                "leaf": "clip",
                "type": "Leaf"
            }
        ],
        "type": "AVSplit"
    },
    {
        "children": [
            {
                "data": "2:20525",
                "leaf": "clip",
                "type": "Leaf"
            },
            {
                "data": "1:20525",
                "leaf": "clip",
                "type": "Leaf"
            }
        ],
        "type": "AVSplit"
    },
    {
        "children": [
            {
                "data": "1:8713",
                "leaf": "clip",
                "type": "Leaf"
            },
            {
                "data": "2:8713",
                "leaf": "clip",
                "type": "Leaf"
            }
        ],
        "type": "AVSplit"
    },
    {
        "children": [
            {
                "data": "1:2233",
                "leaf": "clip",
                "type": "Leaf"
            },
            {
                "data": "2:2233",
                "leaf": "clip",
                "type": "Leaf"
            }
        ],
        "type": "AVSplit"
    },
    {
        "children": [
            {
                "data": "1:23596",
                "leaf": "clip",
                "type": "Leaf"
            },
            {
                "data": "2:23596",
                "leaf": "clip",
                "type": "Leaf"
            }
        ],
        "type": "AVSplit"
    },
    {
        "children": [
            {
                "data": "2:30663",
                "leaf": "clip",
                "type": "Leaf"
            },
            {
                "data": "1:30663",
                "leaf": "clip",
                "type": "Leaf"
            }
        ],
        "type": "AVSplit"
    },
    {
        "children": [
            {
                "data": "2:2135",
                "leaf": "clip",
                "type": "Leaf"
            },
            {
                "data": "1:2135",
                "leaf": "clip",
                "type": "Leaf"
            }
        ],
        "type": "AVSplit"
    },
    {
        "children": [
            {
                "data": "1:7221",
                "leaf": "clip",
                "type": "Leaf"
            },
            {
                "data": "2:7221",
                "leaf": "clip",
                "type": "Leaf"
            }
        ],
        "type": "AVSplit"
    },
    {
        "children": [
            {
                "data": "1:24443",
                "leaf": "clip",
                "type": "Leaf"
            },
            {
                "data": "2:24443",
                "leaf": "clip",
                "type": "Leaf"
            }
        ],
        "type": "AVSplit"
    },
    {
        "children": [
            {
                "data": "1:18941",
                "leaf": "clip",
                "type": "Leaf"
            },
            {
                "data": "2:18941",
                "leaf": "clip",
                "type": "Leaf"
            }
        ],
        "type": "AVSplit"
    },
    {
        "children": [
            {
                "data": "2:14645",
                "leaf": "clip",
                "type": "Leaf"
            },
            {
                "data": "1:14645",
                "leaf": "clip",
                "type": "Leaf"
            }
        ],
        "type": "AVSplit"
    },
    {
        "children": [
            {
                "data": "1:34152",
                "leaf": "clip",
                "type": "Leaf"
            },
            {
                "data": "2:34152",
                "leaf": "clip",
                "type": "Leaf"
            }
        ],
        "type": "AVSplit"
    },
    {
        "children": [
            {
                "data": "2:4467",
                "leaf": "clip",
                "type": "Leaf"
            },
            {
                "data": "1:4467",
                "leaf": "clip",
                "type": "Leaf"
            }
        ],
        "type": "AVSplit"
    },
    {
        "children": [
            {
                "data": "2:26304",
                "leaf": "clip",
                "type": "Leaf"
            },
            {
                "data": "1:26304",
                "leaf": "clip",
                "type": "Leaf"
            }
        ],
        "type": "AVSplit"
    },
    {
        "children": [
            {
                "data": "1:41366",
                "leaf": "clip",
                "type": "Leaf"
            },
            {
                "data": "2:41366",
                "leaf": "clip",
                "type": "Leaf"
            }
        ],
        "type": "AVSplit"
    },
    {
        "children": [
            {
                "data": "1:42868",
                "leaf": "clip",
                "type": "Leaf"
            },
            {
                "data": "2:42868",
                "leaf": "clip",
                "type": "Leaf"
            }
        ],
        "type": "AVSplit"
    },
    {
        "children": [
            {
                "data": "1:33057",
                "leaf": "clip",
                "type": "Leaf"
            },
            {
                "data": "2:33057",
                "leaf": "clip",
                "type": "Leaf"
            }
        ],
        "type": "AVSplit"
    },
    {
        "children": [
            {
                "data": "1:41595",
                "leaf": "clip",
                "type": "Leaf"
            },
            {
                "data": "2:41595",
                "leaf": "clip",
                "type": "Leaf"
            }
        ],
        "type": "AVSplit"
    },
    {
        "children": [
            {
                "data": "1:34388",
                "leaf": "clip",
                "type": "Leaf"
            },
            {
                "data": "2:34388",
                "leaf": "clip",
                "type": "Leaf"
            }
        ],
        "type": "AVSplit"
    },
    {
        "children": [
            {
                "data": "2:1814",
                "leaf": "clip",
                "type": "Leaf"
            },
            {
                "data": "1:1814",
                "leaf": "clip",
                "type": "Leaf"
            }
        ],
        "type": "AVSplit"
    },
    {
        "children": [
            {
                "data": "2:27565",
                "leaf": "clip",
                "type": "Leaf"
            },
            {
                "data": "1:27565",
                "leaf": "clip",
                "type": "Leaf"
            }
        ],
        "type": "AVSplit"
    },
    {
        "children": [
            {
                "data": "1:1964",
                "leaf": "clip",
                "type": "Leaf"
            },
            {
                "data": "2:1964",
                "leaf": "clip",
                "type": "Leaf"
            }
        ],
        "type": "AVSplit"
    },
    {
        "children": [
            {
                "data": "1:33062",
                "leaf": "clip",
                "type": "Leaf"
            },
            {
                "data": "2:33062",
                "leaf": "clip",
                "type": "Leaf"
            }
        ],
        "type": "AVSplit"
    },
    {
        "children": [
            {
                "data": "2:34417",
                "leaf": "clip",
                "type": "Leaf"
            },
            {
                "data": "1:34417",
                "leaf": "clip",
                "type": "Leaf"
            }
        ],
        "type": "AVSplit"
    },
    {
        "children": [
            {
                "data": "2:23225",
                "leaf": "clip",
                "type": "Leaf"
            },
            {
                "data": "1:23225",
                "leaf": "clip",
                "type": "Leaf"
            }
        ],
        "type": "AVSplit"
    },
    {
        "children": [
            {
                "data": "1:40367",
                "leaf": "clip",
                "type": "Leaf"
            },
            {
                "data": "2:40367",
                "leaf": "clip",
                "type": "Leaf"
            }
        ],
        "type": "AVSplit"
    },
    {
        "children": [
            {
                "data": "1:45353",
                "leaf": "clip",
                "type": "Leaf"
            },
            {
                "data": "2:45353",
                "leaf": "clip",
                "type": "Leaf"
            }
        ],
        "type": "AVSplit"
    },
    {
        "children": [
            {
                "data": "2:25425",
                "leaf": "clip",
                "type": "Leaf"
            },
            {
                "data": "1:25425",
                "leaf": "clip",
                "type": "Leaf"
            }
        ],
        "type": "AVSplit"
    },
    {
        "children": [
            {
                "data": "1:42272",
                "leaf": "clip",
                "type": "Leaf"
            },
            {
                "data": "2:42272",
                "leaf": "clip",
                "type": "Leaf"
            }
        ],
        "type": "AVSplit"
    },
    {
        "children": [
            {
                "data": "2:34258",
                "leaf": "clip",
                "type": "Leaf"
            },
            {
                "data": "1:34258",
                "leaf": "clip",
                "type": "Leaf"
            }
        ],
        "type": "AVSplit"
    },
    {
        "children": [
            {
                "data": "1:41565",
                "leaf": "clip",
                "type": "Leaf"
            },
            {
                "data": "2:41565",
                "leaf": "clip",
                "type": "Leaf"
            }
        ],
        "type": "AVSplit"
    },
    {
        "children": [
            {
                "data": "2:44028",
                "leaf": "clip",
                "type": "Leaf"
            },
            {
                "data": "1:44028",
                "leaf": "clip",
                "type": "Leaf"
            }
        ],
        "type": "AVSplit"
    },
    {
        "children": [
            {
                "data": "2:24851",
                "leaf": "clip",
                "type": "Leaf"
            },
            {
                "data": "1:24851",
                "leaf": "clip",
                "type": "Leaf"
            }
        ],
        "type": "AVSplit"
    },
    {
        "children": [
            {
                "data": "1:34244",
                "leaf": "clip",
                "type": "Leaf"
            },
            {
                "data": "2:34244",
                "leaf": "clip",
                "type": "Leaf"
            }
        ],
        "type": "AVSplit"
    },
    {
        "children": [
            {
                "data": "1:42505",
                "leaf": "clip",
                "type": "Leaf"
            },
            {
                "data": "2:42505",
                "leaf": "clip",
                "type": "Leaf"
            }
        ],
        "type": "AVSplit"
    },
    {
        "children": [
            {
                "data": "2:9822",
                "leaf": "clip",
                "type": "Leaf"
            },
            {
                "data": "1:9822",
                "leaf": "clip",
                "type": "Leaf"
            }
        ],
        "type": "AVSplit"
    },
    {
        "children": [
            {
                "data": "1:29905",
                "leaf": "clip",
                "type": "Leaf"
            },
            {
                "data": "2:29905",
                "leaf": "clip",
                "type": "Leaf"
            }
        ],
        "type": "AVSplit"
    },
    {
        "children": [
            {
                "data": "1:9180",
                "leaf": "clip",
                "type": "Leaf"
            },
            {
                "data": "2:9180",
                "leaf": "clip",
                "type": "Leaf"
            }
        ],
        "type": "AVSplit"
    },
    {
        "children": [
            {
                "data": "2:25812",
                "leaf": "clip",
                "type": "Leaf"
            },
            {
                "data": "1:25812",
                "leaf": "clip",
                "type": "Leaf"
            }
        ],
        "type": "AVSplit"
    },
    {
        "children": [
            {
                "data": "1:32597",
                "leaf": "clip",
                "type": "Leaf"
            },
            {
                "data": "2:32597",
                "leaf": "clip",
                "type": "Leaf"
            }
        ],
        "type": "AVSplit"
    },
    {
        "children": [
            {
                "data": "2:40436",
                "leaf": "clip",
                "type": "Leaf"
            },
            {
                "data": "1:40436",
                "leaf": "clip",
                "type": "Leaf"
            }
        ],
        "type": "AVSplit"
    },
    {
        "children": [
            {
                "data": "2:30745",
                "leaf": "clip",
                "type": "Leaf"
            },
            {
                "data": "1:30745",
                "leaf": "clip",
                "type": "Leaf"
            }
        ],
        "type": "AVSplit"
    },
    {
        "children": [
            {
                "data": "1:21657",
                "leaf": "clip",
                "type": "Leaf"
            },
            {
                "data": "2:21657",
                "leaf": "clip",
                "type": "Leaf"
            }
        ],
        "type": "AVSplit"
    },
    {
        "children": [
            {
                "data": "1:27550",
                "leaf": "clip",
                "type": "Leaf"
            },
            {
                "data": "2:27550",
                "leaf": "clip",
                "type": "Leaf"
            }
        ],
        "type": "AVSplit"
    },
    {
        "children": [
            {
                "data": "2:6509",
                "leaf": "clip",
                "type": "Leaf"
            },
            {
                "data": "1:6509",
                "leaf": "clip",
                "type": "Leaf"
            }
        ],
        "type": "AVSplit"
    },
    {
        "children": [
            {
                "data": "1:29841",
                "leaf": "clip",
                "type": "Leaf"
            },
            {
                "data": "2:29841",
                "leaf": "clip",
                "type": "Leaf"
            }
        ],
        "type": "AVSplit"
    },
    {
        "children": [
            {
                "data": "2:3480",
                "leaf": "clip",
                "type": "Leaf"
            },
            {
                "data": "1:3480",
                "leaf": "clip",
                "type": "Leaf"
            }
        ],
        "type": "AVSplit"
    },
    {
        "children": [
            {
                "data": "1:43396",
                "leaf": "clip",
                "type": "Leaf"
            },
            {
                "data": "2:43396",
                "leaf": "clip",
                "type": "Leaf"
            }
        ],
        "type": "AVSplit"
    },
    {
        "children": [
            {
                "data": "2:32520",
                "leaf": "clip",
                "type": "Leaf"
            },
            {
                "data": "1:32520",
                "leaf": "clip",
                "type": "Leaf"
            }
        ],
        "type": "AVSplit"
    },
    {
        "children": [
            {
                "data": "2:7385",
                "leaf": "clip",
                "type": "Leaf"
            },
            {
                "data": "1:7385",
                "leaf": "clip",
                "type": "Leaf"
            }
        ],
        "type": "AVSplit"
    },
    {
        "children": [
            {
                "data": "2:12410",
                "leaf": "clip",
                "type": "Leaf"
            },
            {
                "data": "1:12410",
                "leaf": "clip",
                "type": "Leaf"
            }
        ],
        "type": "AVSplit"
    },
    {
        "children": [
            {
                "data": "2:26502",
                "leaf": "clip",
                "type": "Leaf"
            },
            {
                "data": "1:26502",
                "leaf": "clip",
                "type": "Leaf"
            }
        ],
        "type": "AVSplit"
    },
    {
        "children": [
            {
                "data": "1:24862",
                "leaf": "clip",
                "type": "Leaf"
            },
            {
                "data": "2:24862",
                "leaf": "clip",
                "type": "Leaf"
            }
        ],
        "type": "AVSplit"
    },
    {
        "children": [
            {
                "data": "2:32042",
                "leaf": "clip",
                "type": "Leaf"
            },
            {
                "data": "1:32042",
                "leaf": "clip",
                "type": "Leaf"
            }
        ],
        "type": "AVSplit"
    },
    {
        "children": [
            {
                "data": "1:42893",
                "leaf": "clip",
                "type": "Leaf"
            },
            {
                "data": "2:42893",
                "leaf": "clip",
                "type": "Leaf"
            }
        ],
        "type": "AVSplit"
    },
    {
        "children": [
            {
                "data": "2:30534",
                "leaf": "clip",
                "type": "Leaf"
            },
            {
                "data": "1:30534",
                "leaf": "clip",
                "type": "Leaf"
            }
        ],
        "type": "AVSplit"
    },
    {
        "children": [
            {
                "data": "1:21999",
                "leaf": "clip",
                "type": "Leaf"
            },
            {
                "data": "2:21999",
                "leaf": "clip",
                "type": "Leaf"
            }
        ],
        "type": "AVSplit"
    },
    {
        "children": [
            {
                "data": "1:10748",
                "leaf": "clip",
                "type": "Leaf"
            },
            {
                "data": "2:10748",
                "leaf": "clip",
                "type": "Leaf"
            }
        ],
        "type": "AVSplit"
    },
    {
        "children": [
            {
                "data": "2:32074",
                "leaf": "clip",
                "type": "Leaf"
            },
            {
                "data": "1:32074",
                "leaf": "clip",
                "type": "Leaf"
            }
        ],
        "type": "AVSplit"
    },
    {
        "children": [
            {
                "data": "2:25545",
                "leaf": "clip",
                "type": "Leaf"
            },
            {
                "data": "1:25545",
                "leaf": "clip",
                "type": "Leaf"
            }
        ],
        "type": "AVSplit"
    },
    {
        "children": [
            {
                "data": "1:41210",
                "leaf": "clip",
                "type": "Leaf"
            },
            {
                "data": "2:41210",
                "leaf": "clip",
                "type": "Leaf"
            }
        ],
        "type": "AVSplit"
    },
    {
        "children": [
            {
                "data": "2:32632",
                "leaf": "clip",
                "type": "Leaf"
            },
            {
                "data": "1:32632",
                "leaf": "clip",
                "type": "Leaf"
            }
        ],
        "type": "AVSplit"
    },
    {
        "children": [
            {
                "data": "1:26186",
                "leaf": "clip",
                "type": "Leaf"
            },
            {
                "data": "2:26186",
                "leaf": "clip",
                "type": "Leaf"
            }
        ],
        "type": "AVSplit"
    },
    {
        "children": [
            {
                "data": "2:27015",
                "leaf": "clip",
                "type": "Leaf"
            },
            {
                "data": "1:27015",
                "leaf": "clip",
                "type": "Leaf"
            }
        ],
        "type": "AVSplit"
    },
    {
        "children": [
            {
                "data": "2:6897",
                "leaf": "clip",
                "type": "Leaf"
            },
            {
                "data": "1:6897",
                "leaf": "clip",
                "type": "Leaf"
            }
        ],
        "type": "AVSplit"
    },
    {
        "children": [
            {
                "data": "2:40410",
                "leaf": "clip",
                "type": "Leaf"
            },
            {
                "data": "1:40410",
                "leaf": "clip",
                "type": "Leaf"
            }
        ],
        "type": "AVSplit"
    },
    {
        "children": [
            {
                "data": "1:6977",
                "leaf": "clip",
                "type": "Leaf"
            },
            {
                "data": "2:6977",
                "leaf": "clip",
                "type": "Leaf"
            }
        ],
        "type": "AVSplit"
    },
    {
        "children": [
            {
                "data": "1:20424",
                "leaf": "clip",
                "type": "Leaf"
            },
            {
                "data": "2:20424",
                "leaf": "clip",
                "type": "Leaf"
            }
        ],
        "type": "AVSplit"
    },
    {
        "children": [
            {
                "data": "1:32936",
                "leaf": "clip",
                "type": "Leaf"
            },
            {
                "data": "2:32936",
                "leaf": "clip",
                "type": "Leaf"
            }
        ],
        "type": "AVSplit"
    },
    {
        "children": [
            {
                "data": "2:32561",
                "leaf": "clip",
                "type": "Leaf"
            },
            {
                "data": "1:32561",
                "leaf": "clip",
                "type": "Leaf"
            }
        ],
        "type": "AVSplit"
    },
    {
        "children": [
            {
                "data": "1:43289",
                "leaf": "clip",
                "type": "Leaf"
            },
            {
                "data": "2:43289",
                "leaf": "clip",
                "type": "Leaf"
            }
        ],
        "type": "AVSplit"
    },
    {
        "children": [
            {
                "data": "2:34337",
                "leaf": "clip",
                "type": "Leaf"
            },
            {
                "data": "1:34337",
                "leaf": "clip",
                "type": "Leaf"
            }
        ],
        "type": "AVSplit"
    },
    {
        "children": [
            {
                "data": "1:29761",
                "leaf": "clip",
                "type": "Leaf"
            },
            {
                "data": "2:29761",
                "leaf": "clip",
                "type": "Leaf"
            }
        ],
        "type": "AVSplit"
    },
    {
        "children": [
            {
                "data": "2:22162",
                "leaf": "clip",
                "type": "Leaf"
            },
            {
                "data": "1:22162",
                "leaf": "clip",
                "type": "Leaf"
            }
        ],
        "type": "AVSplit"
    },
    {
        "children": [
            {
                "data": "1:27074",
                "leaf": "clip",
                "type": "Leaf"
            },
            {
                "data": "2:27074",
                "leaf": "clip",
                "type": "Leaf"
            }
        ],
        "type": "AVSplit"
    },
    {
        "children": [
            {
                "data": "1:22511",
                "leaf": "clip",
                "type": "Leaf"
            },
            {
                "data": "2:22511",
                "leaf": "clip",
                "type": "Leaf"
            }
        ],
        "type": "AVSplit"
    },
    {
        "children": [
            {
                "data": "1:34051",
                "leaf": "clip",
                "type": "Leaf"
            },
            {
                "data": "2:34051",
                "leaf": "clip",
                "type": "Leaf"
            }
        ],
        "type": "AVSplit"
    },
    {
        "children": [
            {
                "data": "2:32717",
                "leaf": "clip",
                "type": "Leaf"
            },
            {
                "data": "1:32717",
                "leaf": "clip",
                "type": "Leaf"
            }
        ],
        "type": "AVSplit"
    },
    {
        "children": [
            {
                "data": "2:25876",
                "leaf": "clip",
                "type": "Leaf"
            },
            {
                "data": "1:25876",
                "leaf": "clip",
                "type": "Leaf"
            }
        ],
        "type": "AVSplit"
    },
    {
        "children": [
            {
                "data": "1:32492",
                "leaf": "clip",
                "type": "Leaf"
            },
            {
                "data": "2:32492",
                "leaf": "clip",
                "type": "Leaf"
            }
        ],
        "type": "AVSplit"
    },
    {
        "children": [
            {
                "data": "2:25665",
                "leaf": "clip",
                "type": "Leaf"
            },
            {
                "data": "1:25665",
                "leaf": "clip",
                "type": "Leaf"
            }
        ],
        "type": "AVSplit"
    },
    {
        "children": [
            {
                "data": "2:33019",
                "leaf": "clip",
                "type": "Leaf"
            },
            {
                "data": "1:33019",
                "leaf": "clip",
                "type": "Leaf"
            }
        ],
        "type": "AVSplit"
    },
    {
        "children": [
            {
                "data": "1:42368",
                "leaf": "clip",
                "type": "Leaf"
            },
            {
                "data": "2:42368",
                "leaf": "clip",
                "type": "Leaf"
            }
        ],
        "type": "AVSplit"
    },
    {
        "children": [
            {
                "data": "2:5275",
                "leaf": "clip",
                "type": "Leaf"
            },
            {
                "data": "1:5275",
                "leaf": "clip",
                "type": "Leaf"
            }
        ],
        "type": "AVSplit"
    },
    {
        "children": [
            {
                "data": "2:20290",
                "leaf": "clip",
                "type": "Leaf"
            },
            {
                "data": "1:20290",
                "leaf": "clip",
                "type": "Leaf"
            }
        ],
        "type": "AVSplit"
    },
    {
        "children": [
            {
                "data": "2:26667",
                "leaf": "clip",
                "type": "Leaf"
            },
            {
                "data": "1:26667",
                "leaf": "clip",
                "type": "Leaf"
            }
        ],
        "type": "AVSplit"
    },
    {
        "children": [
            {
                "data": "2:42319",
                "leaf": "clip",
                "type": "Leaf"
            },
            {
                "data": "1:42319",
                "leaf": "clip",
                "type": "Leaf"
            }
        ],
        "type": "AVSplit"
    },
    {
        "children": [
            {
                "data": "2:32953",
                "leaf": "clip",
                "type": "Leaf"
            },
            {
                "data": "1:32953",
                "leaf": "clip",
                "type": "Leaf"
            }
        ],
        "type": "AVSplit"
    },
    {
        "children": [
            {
                "data": "2:2319",
                "leaf": "clip",
                "type": "Leaf"
            },
            {
                "data": "1:2319",
                "leaf": "clip",
                "type": "Leaf"
            }
        ],
        "type": "AVSplit"
    },
    {
        "children": [
            {
                "data": "2:26133",
                "leaf": "clip",
                "type": "Leaf"
            },
            {
                "data": "1:26133",
                "leaf": "clip",
                "type": "Leaf"
            }
        ],
        "type": "AVSplit"
    },
    {
        "children": [
            {
                "data": "1:43313",
                "leaf": "clip",
                "type": "Leaf"
            },
            {
                "data": "2:43313",
                "leaf": "clip",
                "type": "Leaf"
            }
        ],
        "type": "AVSplit"
    },
    {
        "children": [
            {
                "data": "1:34299",
                "leaf": "clip",
                "type": "Leaf"
            },
            {
                "data": "2:34299",
                "leaf": "clip",
                "type": "Leaf"
            }
        ],
        "type": "AVSplit"
    },
    {
        "children": [
            {
                "data": "2:38032",
                "leaf": "clip",
                "type": "Leaf"
            },
            {
                "data": "1:38032",
                "leaf": "clip",
                "type": "Leaf"
            }
        ],
        "type": "AVSplit"
    },
    {
        "children": [
            {
                "data": "1:8522",
                "leaf": "clip",
                "type": "Leaf"
            },
            {
                "data": "2:8522",
                "leaf": "clip",
                "type": "Leaf"
            }
        ],
        "type": "AVSplit"
    },
    {
        "children": [
            {
                "data": "2:31811",
                "leaf": "clip",
                "type": "Leaf"
            },
            {
                "data": "1:31811",
                "leaf": "clip",
                "type": "Leaf"
            }
        ],
        "type": "AVSplit"
    },
    {
        "children": [
            {
                "data": "1:30768",
                "leaf": "clip",
                "type": "Leaf"
            },
            {
                "data": "2:30768",
                "leaf": "clip",
                "type": "Leaf"
            }
        ],
        "type": "AVSplit"
    },
    {
        "children": [
            {
                "data": "2:27263",
                "leaf": "clip",
                "type": "Leaf"
            },
            {
                "data": "1:27263",
                "leaf": "clip",
                "type": "Leaf"
            }
        ],
        "type": "AVSplit"
    },
    {
        "children": [
            {
                "data": "2:1696",
                "leaf": "clip",
                "type": "Leaf"
            },
            {
                "data": "1:1696",
                "leaf": "clip",
                "type": "Leaf"
            }
        ],
        "type": "AVSplit"
    },
    {
        "children": [
            {
                "data": "2:27206",
                "leaf": "clip",
                "type": "Leaf"
            },
            {
                "data": "1:27206",
                "leaf": "clip",
                "type": "Leaf"
            }
        ],
        "type": "AVSplit"
    },
    {
        "children": [
            {
                "data": "1:22890",
                "leaf": "clip",
                "type": "Leaf"
            },
            {
                "data": "2:22890",
                "leaf": "clip",
                "type": "Leaf"
            }
        ],
        "type": "AVSplit"
    },
    {
        "children": [
            {
                "data": "2:27170",
                "leaf": "clip",
                "type": "Leaf"
            },
            {
                "data": "1:27170",
                "leaf": "clip",
                "type": "Leaf"
            }
        ],
        "type": "AVSplit"
    },
    {
        "children": [
            {
                "data": "2:10129",
                "leaf": "clip",
                "type": "Leaf"
            },
            {
                "data": "1:10129",
                "leaf": "clip",
                "type": "Leaf"
            }
        ],
        "type": "AVSplit"
    },
    {
        "children": [
            {
                "data": "2:27030",
                "leaf": "clip",
                "type": "Leaf"
            },
            {
                "data": "1:27030",
                "leaf": "clip",
                "type": "Leaf"
            }
        ],
        "type": "AVSplit"
    },
    {
        "children": [
            {
                "data": "1:30731",
                "leaf": "clip",
                "type": "Leaf"
            },
            {
                "data": "2:30731",
                "leaf": "clip",
                "type": "Leaf"
            }
        ],
        "type": "AVSplit"
    },
    {
        "children": [
            {
                "data": "1:8222",
                "leaf": "clip",
                "type": "Leaf"
            },
            {
                "data": "2:8222",
                "leaf": "clip",
                "type": "Leaf"
            }
        ],
        "type": "AVSplit"
    },
    {
        "children": [
            {
                "data": "2:26371",
                "leaf": "clip",
                "type": "Leaf"
            },
            {
                "data": "1:26371",
                "leaf": "clip",
                "type": "Leaf"
            }
        ],
        "type": "AVSplit"
    },
    {
        "children": [
            {
                "data": "1:44011",
                "leaf": "clip",
                "type": "Leaf"
            },
            {
                "data": "2:44011",
                "leaf": "clip",
                "type": "Leaf"
            }
        ],
        "type": "AVSplit"
    },
    {
        "children": [
            {
                "data": "2:7720",
                "leaf": "clip",
                "type": "Leaf"
            },
            {
                "data": "1:7720",
                "leaf": "clip",
                "type": "Leaf"
            }
        ],
        "type": "AVSplit"
    },
    {
        "children": [
            {
                "data": "2:2851",
                "leaf": "clip",
                "type": "Leaf"
            },
            {
                "data": "1:2851",
                "leaf": "clip",
                "type": "Leaf"
            }
        ],
        "type": "AVSplit"
    },
    {
        "children": [
            {
                "data": "1:29800",
                "leaf": "clip",
                "type": "Leaf"
            },
            {
                "data": "2:29800",
                "leaf": "clip",
                "type": "Leaf"
            }
        ],
        "type": "AVSplit"
    },
    {
        "children": [
            {
                "data": "1:1296",
                "leaf": "clip",
                "type": "Leaf"
            },
            {
                "data": "2:1296",
                "leaf": "clip",
                "type": "Leaf"
            }
        ],
        "type": "AVSplit"
    },
    {
        "children": [
            {
                "data": "2:37989",
                "leaf": "clip",
                "type": "Leaf"
            },
            {
                "data": "1:37989",
                "leaf": "clip",
                "type": "Leaf"
            }
        ],
        "type": "AVSplit"
    },
    {
        "children": [
            {
                "data": "2:26071",
                "leaf": "clip",
                "type": "Leaf"
            },
            {
                "data": "1:26071",
                "leaf": "clip",
                "type": "Leaf"
            }
        ],
        "type": "AVSplit"
    },
    {
        "children": [
            {
                "data": "2:32893",
                "leaf": "clip",
                "type": "Leaf"
            },
            {
                "data": "1:32893",
                "leaf": "clip",
                "type": "Leaf"
            }
        ],
        "type": "AVSplit"
    },
    {
        "children": [
            {
                "data": "2:26331",
                "leaf": "clip",
                "type": "Leaf"
            },
            {
                "data": "1:26331",
                "leaf": "clip",
                "type": "Leaf"
            }
        ],
        "type": "AVSplit"
    },
    {
        "children": [
            {
                "data": "1:26875",
                "leaf": "clip",
                "type": "Leaf"
            },
            {
                "data": "2:26875",
                "leaf": "clip",
                "type": "Leaf"
            }
        ],
        "type": "AVSplit"
    },
    {
        "children": [
            {
                "data": "2:25835",
                "leaf": "clip",
                "type": "Leaf"
            },
            {
                "data": "1:25835",
                "leaf": "clip",
                "type": "Leaf"
            }
        ],
        "type": "AVSplit"
    },
    {
        "children": [
            {
                "data": "2:41510",
                "leaf": "clip",
                "type": "Leaf"
            },
            {
                "data": "1:41510",
                "leaf": "clip",
                "type": "Leaf"
            }
        ],
        "type": "AVSplit"
    },
    {
        "children": [
            {
                "data": "1:12102",
                "leaf": "clip",
                "type": "Leaf"
            },
            {
                "data": "2:12102",
                "leaf": "clip",
                "type": "Leaf"
            }
        ],
        "type": "AVSplit"
    },
    {
        "children": [
            {
                "data": "2:21411",
                "leaf": "clip",
                "type": "Leaf"
            },
            {
                "data": "1:21411",
                "leaf": "clip",
                "type": "Leaf"
            }
        ],
        "type": "AVSplit"
    },
    {
        "children": [
            {
                "data": "2:23243",
                "leaf": "clip",
                "type": "Leaf"
            },
            {
                "data": "1:23243",
                "leaf": "clip",
                "type": "Leaf"
            }
        ],
        "type": "AVSplit"
    },
    {
        "children": [
            {
                "data": "1:20265",
                "leaf": "clip",
                "type": "Leaf"
            },
            {
                "data": "2:20265",
                "leaf": "clip",
                "type": "Leaf"
            }
        ],
        "type": "AVSplit"
    },
    {
        "children": [
            {
                "data": "1:28056",
                "leaf": "clip",
                "type": "Leaf"
            },
            {
                "data": "2:28056",
                "leaf": "clip",
                "type": "Leaf"
            }
        ],
        "type": "AVSplit"
    },
    {
        "children": [
            {
                "data": "1:38308",
                "leaf": "clip",
                "type": "Leaf"
            },
            {
                "data": "2:38308",
                "leaf": "clip",
                "type": "Leaf"
            }
        ],
        "type": "AVSplit"
    },
    {
        "children": [
            {
                "data": "2:15813",
                "leaf": "clip",
                "type": "Leaf"
            },
            {
                "data": "1:15813",
                "leaf": "clip",
                "type": "Leaf"
            }
        ],
        "type": "AVSplit"
    },
    {
        "children": [
            {
                "data": "2:12070",
                "leaf": "clip",
                "type": "Leaf"
            },
            {
                "data": "1:12070",
                "leaf": "clip",
                "type": "Leaf"
            }
        ],
        "type": "AVSplit"
    },
    {
        "children": [
            {
                "data": "1:29829",
                "leaf": "clip",
                "type": "Leaf"
            },
            {
                "data": "2:29829",
                "leaf": "clip",
                "type": "Leaf"
            }
        ],
        "type": "AVSplit"
    },
    {
        "children": [
            {
                "data": "2:4548",
                "leaf": "clip",
                "type": "Leaf"
            },
            {
                "data": "1:4548",
                "leaf": "clip",
                "type": "Leaf"
            }
        ],
        "type": "AVSplit"
    },
    {
        "children": [
            {
                "data": "2:24101",
                "leaf": "clip",
                "type": "Leaf"
            },
            {
                "data": "1:24101",
                "leaf": "clip",
                "type": "Leaf"
            }
        ],
        "type": "AVSplit"
    },
    {
        "children": [
            {
                "data": "1:38058",
                "leaf": "clip",
                "type": "Leaf"
            },
            {
                "data": "2:38058",
                "leaf": "clip",
                "type": "Leaf"
            }
        ],
        "type": "AVSplit"
    },
    {
        "children": [
            {
                "data": "2:12020",
                "leaf": "clip",
                "type": "Leaf"
            },
            {
                "data": "1:12020",
                "leaf": "clip",
                "type": "Leaf"
            }
        ],
        "type": "AVSplit"
    },
    {
        "children": [
            {
                "data": "2:21562",
                "leaf": "clip",
                "type": "Leaf"
            },
            {
                "data": "1:21562",
                "leaf": "clip",
                "type": "Leaf"
            }
        ],
        "type": "AVSplit"
    },
    {
        "children": [
            {
                "data": "2:10071",
                "leaf": "clip",
                "type": "Leaf"
            },
            {
                "data": "1:10071",
                "leaf": "clip",
                "type": "Leaf"
            }
        ],
        "type": "AVSplit"
    },
    {
        "children": [
            {
                "data": "1:15647",
                "leaf": "clip",
                "type": "Leaf"
            },
            {
                "data": "2:15647",
                "leaf": "clip",
                "type": "Leaf"
            }
        ],
        "type": "AVSplit"
    },
    {
        "children": [
            {
                "data": "1:11910",
                "leaf": "clip",
                "type": "Leaf"
            },
            {
                "data": "2:11910",
                "leaf": "clip",
                "type": "Leaf"
            }
        ],
        "type": "AVSplit"
    },
    {
        "children": [
            {
                "data": "1:10037",
                "leaf": "clip",
                "type": "Leaf"
            },
            {
                "data": "2:10037",
                "leaf": "clip",
                "type": "Leaf"
            }
        ],
        "type": "AVSplit"
    },
    {
        "children": [
            {
                "data": "2:11204",
                "leaf": "clip",
                "type": "Leaf"
            },
            {
                "data": "1:11204",
                "leaf": "clip",
                "type": "Leaf"
            }
        ],
        "type": "AVSplit"
    },
    {
        "children": [
            {
                "data": "2:29537",
                "leaf": "clip",
                "type": "Leaf"
            },
            {
                "data": "1:29537",
                "leaf": "clip",
                "type": "Leaf"
            }
        ],
        "type": "AVSplit"
    },
    {
        "children": [
            {
                "data": "2:4316",
                "leaf": "clip",
                "type": "Leaf"
            },
            {
                "data": "1:4316",
                "leaf": "clip",
                "type": "Leaf"
            }
        ],
        "type": "AVSplit"
    },
    {
        "children": [
            {
                "data": "1:11886",
                "leaf": "clip",
                "type": "Leaf"
            },
            {
                "data": "2:11886",
                "leaf": "clip",
                "type": "Leaf"
            }
        ],
        "type": "AVSplit"
    },
    {
        "children": [
            {
                "data": "2:11576",
                "leaf": "clip",
                "type": "Leaf"
            },
            {
                "data": "1:11576",
                "leaf": "clip",
                "type": "Leaf"
            }
        ],
        "type": "AVSplit"
    },
    {
        "children": [
            {
                "data": "1:12773",
                "leaf": "clip",
                "type": "Leaf"
            },
            {
                "data": "2:12773",
                "leaf": "clip",
                "type": "Leaf"
            }
        ],
        "type": "AVSplit"
    },
    {
        "children": [
            {
                "data": "2:38043",
                "leaf": "clip",
                "type": "Leaf"
            },
            {
                "data": "1:38043",
                "leaf": "clip",
                "type": "Leaf"
            }
        ],
        "type": "AVSplit"
    },
    {
        "children": [
            {
                "data": "1:9773",
                "leaf": "clip",
                "type": "Leaf"
            },
            {
                "data": "2:9773",
                "leaf": "clip",
                "type": "Leaf"
            }
        ],
        "type": "AVSplit"
    },
    {
        "children": [
            {
                "data": "2:2430",
                "leaf": "clip",
                "type": "Leaf"
            },
            {
                "data": "1:2430",
                "leaf": "clip",
                "type": "Leaf"
            }
        ],
        "type": "AVSplit"
    },
    {
        "children": [
            {
                "data": "1:11541",
                "leaf": "clip",
                "type": "Leaf"
            },
            {
                "data": "2:11541",
                "leaf": "clip",
                "type": "Leaf"
            }
        ],
        "type": "AVSplit"
    },
    {
        "children": [
            {
                "data": "1:29707",
                "leaf": "clip",
                "type": "Leaf"
            },
            {
                "data": "2:29707",
                "leaf": "clip",
                "type": "Leaf"
            }
        ],
        "type": "AVSplit"
    },
    {
        "children": [
            {
                "data": "1:5058",
                "leaf": "clip",
                "type": "Leaf"
            },
            {
                "data": "2:5058",
                "leaf": "clip",
                "type": "Leaf"
            }
        ],
        "type": "AVSplit"
    },
    {
        "children": [
            {
                "data": "1:11509",
                "leaf": "clip",
                "type": "Leaf"
            },
            {
                "data": "2:11509",
                "leaf": "clip",
                "type": "Leaf"
            }
        ],
        "type": "AVSplit"
    },
    {
        "children": [
            {
                "data": "2:1422",
                "leaf": "clip",
                "type": "Leaf"
            },
            {
                "data": "1:1422",
                "leaf": "clip",
                "type": "Leaf"
            }
        ],
        "type": "AVSplit"
    },
    {
        "children": [
            {
                "data": "1:11418",
                "leaf": "clip",
                "type": "Leaf"
            },
            {
                "data": "2:11418",
                "leaf": "clip",
                "type": "Leaf"
            }
        ],
        "type": "AVSplit"
    },
    {
        "children": [
            {
                "data": "1:12416",
                "leaf": "clip",
                "type": "Leaf"
            },
            {
                "data": "2:12416",
                "leaf": "clip",
                "type": "Leaf"
            }
        ],
        "type": "AVSplit"
    },
    {
        "children": [
            {
                "data": "1:23149",
                "leaf": "clip",
                "type": "Leaf"
            },
            {
                "data": "2:23149",
                "leaf": "clip",
                "type": "Leaf"
            }
        ],
        "type": "AVSplit"
    },
    {
        "children": [
            {
                "data": "1:29642",
                "leaf": "clip",
                "type": "Leaf"
            },
            {
                "data": "2:29642",
                "leaf": "clip",
                "type": "Leaf"
            }
        ],
        "type": "AVSplit"
    },
    {
        "children": [
            {
                "data": "1:1087",
                "leaf": "clip",
                "type": "Leaf"
            },
            {
                "data": "2:1087",
                "leaf": "clip",
                "type": "Leaf"
            }
        ],
        "type": "AVSplit"
    },
    {
        "children": [
            {
                "data": "2:2773",
                "leaf": "clip",
                "type": "Leaf"
            },
            {
                "data": "1:2773",
                "leaf": "clip",
                "type": "Leaf"
            }
        ],
        "type": "AVSplit"
    },
    {
        "children": [
            {
                "data": "1:29619",
                "leaf": "clip",
                "type": "Leaf"
            },
            {
                "data": "2:29619",
                "leaf": "clip",
                "type": "Leaf"
            }
        ],
        "type": "AVSplit"
    },
    {
        "children": [
            {
                "data": "1:7279",
                "leaf": "clip",
                "type": "Leaf"
            },
            {
                "data": "2:7279",
                "leaf": "clip",
                "type": "Leaf"
            }
        ],
        "type": "AVSplit"
    },
    {
        "children": [
            {
                "data": "2:1936",
                "leaf": "clip",
                "type": "Leaf"
            },
            {
                "data": "1:1936",
                "leaf": "clip",
                "type": "Leaf"
            }
        ],
        "type": "AVSplit"
    },
    {
        "children": [
            {
                "data": "1:1046",
                "leaf": "clip",
                "type": "Leaf"
            },
            {
                "data": "2:1046",
                "leaf": "clip",
                "type": "Leaf"
            }
        ],
        "type": "AVSplit"
    },
    {
        "children": [
            {
                "data": "2:12461",
                "leaf": "clip",
                "type": "Leaf"
            },
            {
                "data": "1:12461",
                "leaf": "clip",
                "type": "Leaf"
            }
        ],
        "type": "AVSplit"
    },
    {
        "children": [
            {
                "data": "2:1032",
                "leaf": "clip",
                "type": "Leaf"
            },
            {
                "data": "1:1032",
                "leaf": "clip",
                "type": "Leaf"
            }
        ],
        "type": "AVSplit"
    },
    {
        "children": [
            {
                "data": "2:5505",
                "leaf": "clip",
                "type": "Leaf"
            },
            {
                "data": "1:5505",
                "leaf": "clip",
                "type": "Leaf"
            }
        ],
        "type": "AVSplit"
    },
    {
        "children": [
            {
                "data": "1:22281",
                "leaf": "clip",
                "type": "Leaf"
            },
            {
                "data": "2:22281",
                "leaf": "clip",
                "type": "Leaf"
            }
        ],
        "type": "AVSplit"
    },
    {
        "children": [
            {
                "data": "1:10610",
                "leaf": "clip",
                "type": "Leaf"
            },
            {
                "data": "2:10610",
                "leaf": "clip",
                "type": "Leaf"
            }
        ],
        "type": "AVSplit"
    },
    {
        "children": [
            {
                "data": "1:37379",
                "leaf": "clip",
                "type": "Leaf"
            },
            {
                "data": "2:37379",
                "leaf": "clip",
                "type": "Leaf"
            }
        ],
        "type": "AVSplit"
    },
    {
        "children": [
            {
                "data": "1:29528",
                "leaf": "clip",
                "type": "Leaf"
            },
            {
                "data": "2:29528",
                "leaf": "clip",
                "type": "Leaf"
            }
        ],
        "type": "AVSplit"
    },
    {
        "children": [
            {
                "data": "2:2732",
                "leaf": "clip",
                "type": "Leaf"
            },
            {
                "data": "1:2732",
                "leaf": "clip",
                "type": "Leaf"
            }
        ],
        "type": "AVSplit"
    },
    {
        "children": [
            {
                "data": "2:11132",
                "leaf": "clip",
                "type": "Leaf"
            },
            {
                "data": "1:11132",
                "leaf": "clip",
                "type": "Leaf"
            }
        ],
        "type": "AVSplit"
    },
    {
        "children": [
            {
                "data": "2:11834",
                "leaf": "clip",
                "type": "Leaf"
            },
            {
                "data": "1:11834",
                "leaf": "clip",
                "type": "Leaf"
            }
        ],
        "type": "AVSplit"
    },
    {
        "children": [
            {
                "data": "2:3126",
                "leaf": "clip",
                "type": "Leaf"
            },
            {
                "data": "1:3126",
                "leaf": "clip",
                "type": "Leaf"
            }
        ],
        "type": "AVSplit"
    },
    {
        "children": [
            {
                "data": "1:2452",
                "leaf": "clip",
                "type": "Leaf"
            },
            {
                "data": "2:2452",
                "leaf": "clip",
                "type": "Leaf"
            }
        ],
        "type": "AVSplit"
    },
    {
        "children": [
            {
                "data": "1:15777",
                "leaf": "clip",
                "type": "Leaf"
            },
            {
                "data": "2:15777",
                "leaf": "clip",
                "type": "Leaf"
            }
        ],
        "type": "AVSplit"
    },
    {
        "children": [
            {
                "data": "2:28324",
                "leaf": "clip",
                "type": "Leaf"
            },
            {
                "data": "1:28324",
                "leaf": "clip",
                "type": "Leaf"
            }
        ],
        "type": "AVSplit"
    },
    {
        "children": [
            {
                "data": "1:6024",
                "leaf": "clip",
                "type": "Leaf"
            },
            {
                "data": "2:6024",
                "leaf": "clip",
                "type": "Leaf"
            }
        ],
        "type": "AVSplit"
    },
    {
        "children": [
            {
                "data": "1:6762",
                "leaf": "clip",
                "type": "Leaf"
            },
            {
                "data": "2:6762",
                "leaf": "clip",
                "type": "Leaf"
            }
        ],
        "type": "AVSplit"
    },
    {
        "children": [
            {
                "data": "1:28157",
                "leaf": "clip",
                "type": "Leaf"
            },
            {
                "data": "2:28157",
                "leaf": "clip",
                "type": "Leaf"
            }
        ],
        "type": "AVSplit"
    },
    {
        "children": [
            {
                "data": "1:19127",
                "leaf": "clip",
                "type": "Leaf"
            },
            {
                "data": "2:19127",
                "leaf": "clip",
                "type": "Leaf"
            }
        ],
        "type": "AVSplit"
    },
    {
        "children": [
            {
                "data": "2:18122",
                "leaf": "clip",
                "type": "Leaf"
            },
            {
                "data": "1:18122",
                "leaf": "clip",
                "type": "Leaf"
            }
        ],
        "type": "AVSplit"
    },
    {
        "children": [
            {
                "data": "1:1749",
                "leaf": "clip",
                "type": "Leaf"
            },
            {
                "data": "2:1749",
                "leaf": "clip",
                "type": "Leaf"
            }
        ],
        "type": "AVSplit"
    },
    {
        "children": [
            {
                "data": "1:25307",
                "leaf": "clip",
                "type": "Leaf"
            },
            {
                "data": "2:25307",
                "leaf": "clip",
                "type": "Leaf"
            }
        ],
        "type": "AVSplit"
    },
    {
        "children": [
            {
                "data": "1:18956",
                "leaf": "clip",
                "type": "Leaf"
            },
            {
                "data": "2:18956",
                "leaf": "clip",
                "type": "Leaf"
            }
        ],
        "type": "AVSplit"
    },
    {
        "children": [
            {
                "data": "1:7545",
                "leaf": "clip",
                "type": "Leaf"
            },
            {
                "data": "2:7545",
                "leaf": "clip",
                "type": "Leaf"
            }
        ],
        "type": "AVSplit"
    },
    {
        "children": [
            {
                "data": "2:7475",
                "leaf": "clip",
                "type": "Leaf"
            },
            {
                "data": "1:7475",
                "leaf": "clip",
                "type": "Leaf"
            }
        ],
        "type": "AVSplit"
    },
    {
        "children": [
            {
                "data": "2:28209",
                "leaf": "clip",
                "type": "Leaf"
            },
            {
                "data": "1:28209",
                "leaf": "clip",
                "type": "Leaf"
            }
        ],
        "type": "AVSplit"
    },
    {
        "children": [
            {
                "data": "1:5954",
                "leaf": "clip",
                "type": "Leaf"
            },
            {
                "data": "2:5954",
                "leaf": "clip",
                "type": "Leaf"
            }
        ],
        "type": "AVSplit"
    },
    {
        "children": [
            {
                "data": "1:5477",
                "leaf": "clip",
                "type": "Leaf"
            },
            {
                "data": "2:5477",
                "leaf": "clip",
                "type": "Leaf"
            }
        ],
        "type": "AVSplit"
    },
    {
        "children": [
            {
                "data": "2:24410",
                "leaf": "clip",
                "type": "Leaf"
            },
            {
                "data": "1:24410",
                "leaf": "clip",
                "type": "Leaf"
            }
        ],
        "type": "AVSplit"
    },
    {
        "children": [
            {
                "data": "2:2088",
                "leaf": "clip",
                "type": "Leaf"
            },
            {
                "data": "1:2088",
                "leaf": "clip",
                "type": "Leaf"
            }
        ],
        "type": "AVSplit"
    },
    {
        "children": [
            {
                "data": "1:18863",
                "leaf": "clip",
                "type": "Leaf"
            },
            {
                "data": "2:18863",
                "leaf": "clip",
                "type": "Leaf"
            }
        ],
        "type": "AVSplit"
    },
    {
        "children": [
            {
                "data": "2:28176",
                "leaf": "clip",
                "type": "Leaf"
            },
            {
                "data": "1:28176",
                "leaf": "clip",
                "type": "Leaf"
            }
        ],
        "type": "AVSplit"
    },
    {
        "children": [
            {
                "data": "1:8800",
                "leaf": "clip",
                "type": "Leaf"
            },
            {
                "data": "2:8800",
                "leaf": "clip",
                "type": "Leaf"
            }
        ],
        "type": "AVSplit"
    },
    {
        "children": [
            {
                "data": "2:35236",
                "leaf": "clip",
                "type": "Leaf"
            },
            {
                "data": "1:35236",
                "leaf": "clip",
                "type": "Leaf"
            }
        ],
        "type": "AVSplit"
    },
    {
        "children": [
            {
                "data": "1:25165",
                "leaf": "clip",
                "type": "Leaf"
            },
            {
                "data": "2:25165",
                "leaf": "clip",
                "type": "Leaf"
            }
        ],
        "type": "AVSplit"
    },
    {
        "children": [
            {
                "data": "2:45209",
                "leaf": "clip",
                "type": "Leaf"
            },
            {
                "data": "1:45209",
                "leaf": "clip",
                "type": "Leaf"
            }
        ],
        "type": "AVSplit"
    },
    {
        "children": [
            {
                "data": "1:16248",
                "leaf": "clip",
                "type": "Leaf"
            },
            {
                "data": "2:16248",
                "leaf": "clip",
                "type": "Leaf"
            }
        ],
        "type": "AVSplit"
    },
    {
        "children": [
            {
                "data": "2:18768",
                "leaf": "clip",
                "type": "Leaf"
            },
            {
                "data": "1:18768",
                "leaf": "clip",
                "type": "Leaf"
            }
        ],
        "type": "AVSplit"
    },
    {
        "children": [
            {
                "data": "2:34767",
                "leaf": "clip",
                "type": "Leaf"
            },
            {
                "data": "1:34767",
                "leaf": "clip",
                "type": "Leaf"
            }
        ],
        "type": "AVSplit"
    },
    {
        "children": [
            {
                "data": "2:7447",
                "leaf": "clip",
                "type": "Leaf"
            },
            {
                "data": "1:7447",
                "leaf": "clip",
                "type": "Leaf"
            }
        ],
        "type": "AVSplit"
    },
    {
        "children": [
            {
                "data": "2:20314",
                "leaf": "clip",
                "type": "Leaf"
            },
            {
                "data": "1:20314",
                "leaf": "clip",
                "type": "Leaf"
            }
        ],
        "type": "AVSplit"
    },
    {
        "children": [
            {
                "data": "2:45170",
                "leaf": "clip",
                "type": "Leaf"
            },
            {
                "data": "1:45170",
                "leaf": "clip",
                "type": "Leaf"
            }
        ],
        "type": "AVSplit"
    },
    {
        "children": [
            {
                "data": "2:3378",
                "leaf": "clip",
                "type": "Leaf"
            },
            {
                "data": "1:3378",
                "leaf": "clip",
                "type": "Leaf"
            }
        ],
        "type": "AVSplit"
    },
    {
        "children": [
            {
                "data": "1:45100",
                "leaf": "clip",
                "type": "Leaf"
            },
            {
                "data": "2:45100",
                "leaf": "clip",
                "type": "Leaf"
            }
        ],
        "type": "AVSplit"
    },
    {
        "children": [
            {
                "data": "1:20061",
                "leaf": "clip",
                "type": "Leaf"
            },
            {
                "data": "2:20061",
                "leaf": "clip",
                "type": "Leaf"
            }
        ],
        "type": "AVSplit"
    },
    {
        "children": [
            {
                "data": "2:45012",
                "leaf": "clip",
                "type": "Leaf"
            },
            {
                "data": "1:45012",
                "leaf": "clip",
                "type": "Leaf"
            }
        ],
        "type": "AVSplit"
    }
]
</property>
  <property name="kdenlive:docproperties.kdenliveversion">20.08.1</property>
  <property name="kdenlive:docproperties.position">259</property>
  <property name="kdenlive:docproperties.previewextension"/>
  <property name="kdenlive:docproperties.previewparameters"/>
  <property name="kdenlive:docproperties.profile">atsc_1080p_25</property>
  <property name="kdenlive:docproperties.proxyextension"/>
  <property name="kdenlive:docproperties.proxyimageminsize">2000</property>
  <property name="kdenlive:docproperties.proxyimagesize">800</property>
  <property name="kdenlive:docproperties.proxyminsize">1000</property>
  <property name="kdenlive:docproperties.proxyparams"/>
  <property name="kdenlive:docproperties.scrollPos">0</property>
  <property name="kdenlive:docproperties.seekOffset">30000</property>
  <property name="kdenlive:docproperties.version">1</property>
  <property name="kdenlive:docproperties.verticalzoom">1</property>
  <property name="kdenlive:docproperties.videoTarget">2</property>
  <property name="kdenlive:docproperties.zonein">0</property>
  <property name="kdenlive:docproperties.zoneout">75</property>
  <property name="kdenlive:docproperties.zoom">4</property>
  <property name="kdenlive:expandedFolders"/>
  <property name="kdenlive:documentnotes"/>
  <property name="xml_retain">1</property>
  <entry producer="producer1" in="00:00:00.000" out="00:44:13.560"/>
  <entry producer="producer0" in="00:00:00.000" out="00:00:04.960"/>
  <entry producer="producer2" in="00:00:00.000" out="00:00:04.960"/>
 </playlist>
 <producer id="black_track" in="00:00:00.000" out="00:51:02.480">
  <property name="length">2147483647</property>
  <property name="eof">continue</property>
  <property name="resource">black</property>
  <property name="aspect_ratio">1</property>
  <property name="mlt_service">color</property>
  <property name="mlt_image_format">rgb24a</property>
  <property name="set.test_audio">0</property>
 </producer>
 <producer id="producer3" in="00:00:00.000" out="00:44:13.560">
  <property name="length">66340</property>
  <property name="eof">pause</property>
  <property name="resource">mov/34c3-9135-eng-deu-ASLR_on_the_line_hd.mp4</property>
  <property name="audio_index">2</property>
  <property name="video_index">0</property>
  <property name="mute_on_pause">0</property>
  <property name="mlt_service">avformat-novalidate</property>
  <property name="seekable">1</property>
  <property name="aspect_ratio">1</property>
  <property name="kdenlive:clipname"/>
  <property name="global_feed">1</property>
  <property name="kdenlive:folderid">-1</property>
  <property name="kdenlive:id">2</property>
  <property name="kdenlive:active_streams">2;3</property>
  <property name="kdenlive:file_size">233485279</property>
  <property name="kdenlive:file_hash">40fa9e0453e0ee38fcc4028947ab14b4</property>
  <property name="xml">was here</property>
  <property name="meta.media.nb_streams">4</property>
  <property name="meta.media.0.stream.type">video</property>
  <property name="meta.media.0.stream.frame_rate">25</property>
  <property name="meta.media.0.stream.sample_aspect_ratio">0</property>
  <property name="meta.media.0.codec.width">1920</property>
  <property name="meta.media.0.codec.height">1080</property>
  <property name="meta.media.0.codec.rotate">0</property>
  <property name="meta.media.0.codec.frame_rate">25</property>
  <property name="meta.media.0.codec.pix_fmt">yuv420p</property>
  <property name="meta.media.0.codec.sample_aspect_ratio">1</property>
  <property name="meta.media.0.codec.colorspace">709</property>
  <property name="meta.media.0.codec.name">h264</property>
  <property name="meta.media.0.codec.long_name">H.264 / AVC / MPEG-4 AVC / MPEG-4 part 10</property>
  <property name="meta.media.0.codec.bit_rate">333349</property>
  <property name="meta.attr.0.stream.handler_name.markup">VideoHandler</property>
  <property name="meta.media.1.stream.type">video</property>
  <property name="meta.media.1.stream.frame_rate">25</property>
  <property name="meta.media.1.stream.sample_aspect_ratio">0</property>
  <property name="meta.media.1.codec.width">1920</property>
  <property name="meta.media.1.codec.height">1080</property>
  <property name="meta.media.1.codec.rotate">0</property>
  <property name="meta.media.1.codec.frame_rate">25</property>
  <property name="meta.media.1.codec.pix_fmt">yuv420p</property>
  <property name="meta.media.1.codec.sample_aspect_ratio">1</property>
  <property name="meta.media.1.codec.colorspace">709</property>
  <property name="meta.media.1.codec.name">h264</property>
  <property name="meta.media.1.codec.long_name">H.264 / AVC / MPEG-4 AVC / MPEG-4 part 10</property>
  <property name="meta.media.1.codec.bit_rate">102162</property>
  <property name="meta.attr.1.stream.handler_name.markup">VideoHandler</property>
  <property name="meta.media.2.stream.type">audio</property>
  <property name="meta.media.2.codec.sample_fmt">fltp</property>
  <property name="meta.media.2.codec.sample_rate">48000</property>
  <property name="meta.media.2.codec.channels">2</property>
  <property name="meta.media.2.codec.name">aac</property>
  <property name="meta.media.2.codec.long_name">AAC (Advanced Audio Coding)</property>
  <property name="meta.media.2.codec.bit_rate">127998</property>
  <property name="meta.attr.2.stream.language.markup">eng</property>
  <property name="meta.attr.2.stream.handler_name.markup">SoundHandler</property>
  <property name="meta.media.3.stream.type">audio</property>
  <property name="meta.media.3.codec.sample_fmt">fltp</property>
  <property name="meta.media.3.codec.sample_rate">48000</property>
  <property name="meta.media.3.codec.channels">2</property>
  <property name="meta.media.3.codec.name">aac</property>
  <property name="meta.media.3.codec.long_name">AAC (Advanced Audio Coding)</property>
  <property name="meta.media.3.codec.bit_rate">127998</property>
  <property name="meta.attr.3.stream.language.markup">deu</property>
  <property name="meta.attr.3.stream.handler_name.markup">SoundHandler</property>
  <property name="meta.attr.major_brand.markup">isom</property>
  <property name="meta.attr.minor_version.markup">512</property>
  <property name="meta.attr.compatible_brands.markup">isomiso2avc1mp41</property>
  <property name="meta.attr.title.markup">ASLR on the line</property>
  <property name="meta.attr.artist.markup">brainsmoke</property>
  <property name="meta.attr.album.markup">34th Chaos Communication Congress</property>
  <property name="meta.attr.encoder.markup">Lavf56.40.101</property>
  <property name="meta.attr.genre.markup">lecture</property>
  <property name="meta.attr.copyright.markup">Licensed to the public under https://creativecommons.org/licenses/by/4.0/</property>
  <property name="meta.attr.description.markup">Address Space Layout Randomization (ASLR) is fundamentally broken on modern hardware due to a side-channel attack on the Memory management unit, allowing memory addresses to be leaked from JavaScript.  This talk will show how.</property>
  <property name="meta.media.sample_aspect_num">1</property>
  <property name="meta.media.sample_aspect_den">1</property>
  <property name="meta.media.frame_rate_num">25</property>
  <property name="meta.media.frame_rate_den">1</property>
  <property name="meta.media.colorspace">709</property>
  <property name="meta.media.color_trc">2</property>
  <property name="meta.media.width">1920</property>
  <property name="meta.media.height">1080</property>
  <property name="meta.media.color_range">mpeg</property>
  <property name="meta.media.top_field_first">0</property>
  <property name="meta.media.progressive">1</property>
  <property name="set.test_audio">0</property>
  <property name="set.test_image">1</property>
 </producer>
 <playlist id="playlist0">
  <property name="kdenlive:audio_track">1</property>
  <entry producer="producer3" in="00:00:00.000" out="00:00:15.400">
   <property name="kdenlive:id">2</property>
  </entry>
  <blank length="00:04:16.160"/>
  <entry producer="producer3" in="00:06:42.520" out="00:06:42.960">
   <property name="kdenlive:id">2</property>
  </entry>
  <filter id="filter0">
   <property name="window">75</property>
   <property name="max_gain">20dB</property>
   <property name="level">-3.48146</property>
   <property name="mlt_service">volume</property>
   <property name="internal_added">237</property>
   <property name="disable">0</property>
  </filter>
  <filter id="filter1">
   <property name="channel">-1</property>
   <property name="mlt_service">panner</property>
   <property name="internal_added">237</property>
   <property name="start">0.5</property>
   <property name="disable">1</property>
  </filter>
 </playlist>
 <playlist id="playlist1"/>
 <tractor id="tractor0" in="00:00:00.000" out="00:04:32.040">
  <property name="kdenlive:audio_track">1</property>
  <property name="kdenlive:trackheight">69</property>
  <property name="kdenlive:collapsed">0</property>
  <property name="kdenlive:thumbs_format"/>
  <property name="kdenlive:audio_rec"/>
  <property name="kdenlive:timeline_active">1</property>
  <track hide="video" producer="playlist0"/>
  <track hide="both" producer="playlist1"/>
  <filter id="filter2">
   <property name="iec_scale">0</property>
   <property name="mlt_service">audiolevel</property>
   <property name="disable">1</property>
  </filter>
 </tractor>
 <producer id="producer4" in="00:00:00.000" out="00:44:13.560">
  <property name="length">66340</property>
  <property name="eof">pause</property>
  <property name="resource">mov/34c3-9135-eng-deu-ASLR_on_the_line_hd.mp4</property>
  <property name="audio_index">2</property>
  <property name="video_index">0</property>
  <property name="mute_on_pause">0</property>
  <property name="mlt_service">avformat-novalidate</property>
  <property name="seekable">1</property>
  <property name="aspect_ratio">1</property>
  <property name="kdenlive:clipname"/>
  <property name="global_feed">1</property>
  <property name="kdenlive:folderid">-1</property>
  <property name="kdenlive:id">2</property>
  <property name="kdenlive:active_streams">2;3</property>
  <property name="kdenlive:file_size">233485279</property>
  <property name="kdenlive:file_hash">40fa9e0453e0ee38fcc4028947ab14b4</property>
  <property name="xml">was here</property>
  <property name="meta.media.nb_streams">4</property>
  <property name="meta.media.0.stream.type">video</property>
  <property name="meta.media.0.stream.frame_rate">25</property>
  <property name="meta.media.0.stream.sample_aspect_ratio">0</property>
  <property name="meta.media.0.codec.width">1920</property>
  <property name="meta.media.0.codec.height">1080</property>
  <property name="meta.media.0.codec.rotate">0</property>
  <property name="meta.media.0.codec.frame_rate">25</property>
  <property name="meta.media.0.codec.pix_fmt">yuv420p</property>
  <property name="meta.media.0.codec.sample_aspect_ratio">1</property>
  <property name="meta.media.0.codec.colorspace">709</property>
  <property name="meta.media.0.codec.name">h264</property>
  <property name="meta.media.0.codec.long_name">H.264 / AVC / MPEG-4 AVC / MPEG-4 part 10</property>
  <property name="meta.media.0.codec.bit_rate">333349</property>
  <property name="meta.attr.0.stream.handler_name.markup">VideoHandler</property>
  <property name="meta.media.1.stream.type">video</property>
  <property name="meta.media.1.stream.frame_rate">25</property>
  <property name="meta.media.1.stream.sample_aspect_ratio">0</property>
  <property name="meta.media.1.codec.width">1920</property>
  <property name="meta.media.1.codec.height">1080</property>
  <property name="meta.media.1.codec.rotate">0</property>
  <property name="meta.media.1.codec.frame_rate">25</property>
  <property name="meta.media.1.codec.pix_fmt">yuv420p</property>
  <property name="meta.media.1.codec.sample_aspect_ratio">1</property>
  <property name="meta.media.1.codec.colorspace">709</property>
  <property name="meta.media.1.codec.name">h264</property>
  <property name="meta.media.1.codec.long_name">H.264 / AVC / MPEG-4 AVC / MPEG-4 part 10</property>
  <property name="meta.media.1.codec.bit_rate">102162</property>
  <property name="meta.attr.1.stream.handler_name.markup">VideoHandler</property>
  <property name="meta.media.2.stream.type">audio</property>
  <property name="meta.media.2.codec.sample_fmt">fltp</property>
  <property name="meta.media.2.codec.sample_rate">48000</property>
  <property name="meta.media.2.codec.channels">2</property>
  <property name="meta.media.2.codec.name">aac</property>
  <property name="meta.media.2.codec.long_name">AAC (Advanced Audio Coding)</property>
  <property name="meta.media.2.codec.bit_rate">127998</property>
  <property name="meta.attr.2.stream.language.markup">eng</property>
  <property name="meta.attr.2.stream.handler_name.markup">SoundHandler</property>
  <property name="meta.media.3.stream.type">audio</property>
  <property name="meta.media.3.codec.sample_fmt">fltp</property>
  <property name="meta.media.3.codec.sample_rate">48000</property>
  <property name="meta.media.3.codec.channels">2</property>
  <property name="meta.media.3.codec.name">aac</property>
  <property name="meta.media.3.codec.long_name">AAC (Advanced Audio Coding)</property>
  <property name="meta.media.3.codec.bit_rate">127998</property>
  <property name="meta.attr.3.stream.language.markup">deu</property>
  <property name="meta.attr.3.stream.handler_name.markup">SoundHandler</property>
  <property name="meta.attr.major_brand.markup">isom</property>
  <property name="meta.attr.minor_version.markup">512</property>
  <property name="meta.attr.compatible_brands.markup">isomiso2avc1mp41</property>
  <property name="meta.attr.title.markup">ASLR on the line</property>
  <property name="meta.attr.artist.markup">brainsmoke</property>
  <property name="meta.attr.album.markup">34th Chaos Communication Congress</property>
  <property name="meta.attr.encoder.markup">Lavf56.40.101</property>
  <property name="meta.attr.genre.markup">lecture</property>
  <property name="meta.attr.copyright.markup">Licensed to the public under https://creativecommons.org/licenses/by/4.0/</property>
  <property name="meta.attr.description.markup">Address Space Layout Randomization (ASLR) is fundamentally broken on modern hardware due to a side-channel attack on the Memory management unit, allowing memory addresses to be leaked from JavaScript.  This talk will show how.</property>
  <property name="meta.media.sample_aspect_num">1</property>
  <property name="meta.media.sample_aspect_den">1</property>
  <property name="meta.media.frame_rate_num">25</property>
  <property name="meta.media.frame_rate_den">1</property>
  <property name="meta.media.colorspace">709</property>
  <property name="meta.media.color_trc">2</property>
  <property name="meta.media.width">1920</property>
  <property name="meta.media.height">1080</property>
  <property name="meta.media.color_range">mpeg</property>
  <property name="meta.media.top_field_first">0</property>
  <property name="meta.media.progressive">1</property>
  <property name="set.test_audio">0</property>
  <property name="set.test_image">1</property>
 </producer>
 <playlist id="playlist2">
  <property name="kdenlive:audio_track">1</property>
  <blank length="00:00:15.440"/>
  <entry producer="producer4" in="00:00:15.440" out="00:00:35.440">
   <property name="kdenlive:id">2</property>
  </entry>
  <entry producer="producer4" in="00:00:36.040" out="00:00:37.600">
   <property name="kdenlive:id">2</property>
  </entry>
  <entry producer="producer4" in="00:00:39.440" out="00:00:40.240">
   <property name="kdenlive:id">2</property>
  </entry>
  <entry producer="producer4" in="00:00:40.840" out="00:00:42.120">
   <property name="kdenlive:id">2</property>
  </entry>
  <entry producer="producer4" in="00:00:42.520" out="00:00:42.680">
   <property name="kdenlive:id">2</property>
  </entry>
  <entry producer="producer4" in="00:00:42.920" out="00:00:44.720">
   <property name="kdenlive:id">2</property>
  </entry>
  <entry producer="producer4" in="00:00:45.080" out="00:00:45.600">
   <property name="kdenlive:id">2</property>
  </entry>
  <entry producer="producer4" in="00:00:45.920" out="00:00:47.520">
   <property name="kdenlive:id">2</property>
  </entry>
  <entry producer="producer4" in="00:00:48.120" out="00:00:50.360">
   <property name="kdenlive:id">2</property>
  </entry>
  <entry producer="producer4" in="00:00:55.080" out="00:00:56.320">
   <property name="kdenlive:id">2</property>
  </entry>
  <entry producer="producer4" in="00:00:57.200" out="00:01:01.960">
   <property name="kdenlive:id">2</property>
  </entry>
  <entry producer="producer4" in="00:01:04.160" out="00:01:05.480">
   <property name="kdenlive:id">2</property>
  </entry>
  <entry producer="producer4" in="00:01:05.720" out="00:01:08.440">
   <property name="kdenlive:id">2</property>
  </entry>
  <entry producer="producer4" in="00:01:11.920" out="00:01:12.800">
   <property name="kdenlive:id">2</property>
  </entry>
  <entry producer="producer4" in="00:01:13.520" out="00:01:17.920">
   <property name="kdenlive:id">2</property>
  </entry>
  <entry producer="producer4" in="00:01:18.440" out="00:01:21.760">
   <property name="kdenlive:id">2</property>
  </entry>
  <entry producer="producer4" in="00:01:22.360" out="00:01:25.240">
   <property name="kdenlive:id">2</property>
  </entry>
  <entry producer="producer4" in="00:01:25.880" out="00:01:26.080">
   <property name="kdenlive:id">2</property>
  </entry>
  <entry producer="producer4" in="00:01:26.760" out="00:01:28.840">
   <property name="kdenlive:id">2</property>
  </entry>
  <entry producer="producer4" in="00:01:29.520" out="00:01:32.080">
   <property name="kdenlive:id">2</property>
  </entry>
  <entry producer="producer4" in="00:01:34.720" out="00:01:36.240">
   <property name="kdenlive:id">2</property>
  </entry>
  <entry producer="producer4" in="00:01:37.600" out="00:01:39.960">
   <property name="kdenlive:id">2</property>
  </entry>
  <entry producer="producer4" in="00:01:40.240" out="00:01:41.120">
   <property name="kdenlive:id">2</property>
  </entry>
  <entry producer="producer4" in="00:01:42.080" out="00:01:42.400">
   <property name="kdenlive:id">2</property>
  </entry>
  <entry producer="producer4" in="00:01:42.760" out="00:01:43.480">
   <property name="kdenlive:id">2</property>
  </entry>
  <entry producer="producer4" in="00:01:43.800" out="00:01:48.720">
   <property name="kdenlive:id">2</property>
  </entry>
  <entry producer="producer4" in="00:01:49.040" out="00:01:50.880">
   <property name="kdenlive:id">2</property>
  </entry>
  <entry producer="producer4" in="00:01:51.440" out="00:01:53.440">
   <property name="kdenlive:id">2</property>
  </entry>
  <entry producer="producer4" in="00:01:54.760" out="00:01:56.600">
   <property name="kdenlive:id">2</property>
  </entry>
  <entry producer="producer4" in="00:01:58.960" out="00:02:00.400">
   <property name="kdenlive:id">2</property>
  </entry>
  <entry producer="producer4" in="00:02:01.360" out="00:02:02.320">
   <property name="kdenlive:id">2</property>
  </entry>
  <entry producer="producer4" in="00:02:04.440" out="00:02:05.360">
   <property name="kdenlive:id">2</property>
  </entry>
  <entry producer="producer4" in="00:02:05.840" out="00:02:07.880">
   <property name="kdenlive:id">2</property>
  </entry>
  <entry producer="producer4" in="00:02:08.120" out="00:02:09.080">
   <property name="kdenlive:id">2</property>
  </entry>
  <entry producer="producer4" in="00:02:09.640" out="00:02:10.960">
   <property name="kdenlive:id">2</property>
  </entry>
  <entry producer="producer4" in="00:02:11.840" out="00:02:12.680">
   <property name="kdenlive:id">2</property>
  </entry>
  <entry producer="producer4" in="00:02:14.120" out="00:02:16.080">
   <property name="kdenlive:id">2</property>
  </entry>
  <entry producer="producer4" in="00:02:16.720" out="00:02:18.720">
   <property name="kdenlive:id">2</property>
  </entry>
  <entry producer="producer4" in="00:02:19.200" out="00:02:20.680">
   <property name="kdenlive:id">2</property>
  </entry>
  <entry producer="producer4" in="00:02:21.880" out="00:02:22.920">
   <property name="kdenlive:id">2</property>
  </entry>
  <entry producer="producer4" in="00:02:23.840" out="00:02:26.280">
   <property name="kdenlive:id">2</property>
  </entry>
  <entry producer="producer4" in="00:02:29.080" out="00:02:31.120">
   <property name="kdenlive:id">2</property>
  </entry>
  <entry producer="producer4" in="00:02:31.400" out="00:02:33.000">
   <property name="kdenlive:id">2</property>
  </entry>
  <entry producer="producer4" in="00:02:34.120" out="00:02:36.080">
   <property name="kdenlive:id">2</property>
  </entry>
  <entry producer="producer4" in="00:02:36.440" out="00:02:37.520">
   <property name="kdenlive:id">2</property>
  </entry>
  <entry producer="producer4" in="00:02:38.840" out="00:02:40.720">
   <property name="kdenlive:id">2</property>
  </entry>
  <entry producer="producer4" in="00:02:41.880" out="00:02:42.960">
   <property name="kdenlive:id">2</property>
  </entry>
  <entry producer="producer4" in="00:02:43.600" out="00:02:44.120">
   <property name="kdenlive:id">2</property>
  </entry>
  <entry producer="producer4" in="00:02:44.600" out="00:02:45.120">
   <property name="kdenlive:id">2</property>
  </entry>
  <entry producer="producer4" in="00:02:46.040" out="00:02:47.640">
   <property name="kdenlive:id">2</property>
  </entry>
  <entry producer="producer4" in="00:02:50.080" out="00:02:51.040">
   <property name="kdenlive:id">2</property>
  </entry>
  <entry producer="producer4" in="00:02:51.960" out="00:02:53.240">
   <property name="kdenlive:id">2</property>
  </entry>
  <entry producer="producer4" in="00:02:53.640" out="00:02:56.480">
   <property name="kdenlive:id">2</property>
  </entry>
  <entry producer="producer4" in="00:03:00.400" out="00:03:01.960">
   <property name="kdenlive:id">2</property>
  </entry>
  <entry producer="producer4" in="00:03:03.520" out="00:03:10.760">
   <property name="kdenlive:id">2</property>
  </entry>
  <entry producer="producer4" in="00:03:11.600" out="00:03:12.760">
   <property name="kdenlive:id">2</property>
  </entry>
  <entry producer="producer4" in="00:03:13.000" out="00:03:17.040">
   <property name="kdenlive:id">2</property>
  </entry>
  <entry producer="producer4" in="00:03:18.160" out="00:03:18.720">
   <property name="kdenlive:id">2</property>
  </entry>
  <entry producer="producer4" in="00:03:19.240" out="00:03:19.920">
   <property name="kdenlive:id">2</property>
  </entry>
  <entry producer="producer4" in="00:03:20.200" out="00:03:20.920">
   <property name="kdenlive:id">2</property>
  </entry>
  <entry producer="producer4" in="00:03:21.280" out="00:03:21.600">
   <property name="kdenlive:id">2</property>
  </entry>
  <entry producer="producer4" in="00:03:22.080" out="00:03:27.560">
   <property name="kdenlive:id">2</property>
  </entry>
  <entry producer="producer4" in="00:03:28.160" out="00:03:32.560">
   <property name="kdenlive:id">2</property>
  </entry>
  <entry producer="producer4" in="00:03:33.360" out="00:03:34.960">
   <property name="kdenlive:id">2</property>
  </entry>
  <entry producer="producer4" in="00:03:36.920" out="00:03:47.160">
   <property name="kdenlive:id">2</property>
  </entry>
  <entry producer="producer4" in="00:03:47.680" out="00:03:54.160">
   <property name="kdenlive:id">2</property>
  </entry>
  <entry producer="producer4" in="00:03:56.120" out="00:03:58.680">
   <property name="kdenlive:id">2</property>
  </entry>
  <entry producer="producer4" in="00:04:00.440" out="00:04:06.440">
   <property name="kdenlive:id">2</property>
  </entry>
  <entry producer="producer4" in="00:04:06.840" out="00:04:09.080">
   <property name="kdenlive:id">2</property>
  </entry>
  <entry producer="producer4" in="00:04:11.000" out="00:04:11.920">
   <property name="kdenlive:id">2</property>
  </entry>
  <entry producer="producer4" in="00:04:12.480" out="00:04:12.920">
   <property name="kdenlive:id">2</property>
  </entry>
  <entry producer="producer4" in="00:04:13.200" out="00:04:16.080">
   <property name="kdenlive:id">2</property>
  </entry>
  <entry producer="producer4" in="00:04:16.840" out="00:04:17.280">
   <property name="kdenlive:id">2</property>
  </entry>
  <entry producer="producer4" in="00:04:22.400" out="00:04:30.920">
   <property name="kdenlive:id">2</property>
  </entry>
  <entry producer="producer4" in="00:04:32.280" out="00:04:39.520">
   <property name="kdenlive:id">2</property>
  </entry>
  <entry producer="producer4" in="00:04:40.000" out="00:04:40.640">
   <property name="kdenlive:id">2</property>
  </entry>
  <entry producer="producer4" in="00:04:41.480" out="00:04:42.760">
   <property name="kdenlive:id">2</property>
  </entry>
  <entry producer="producer4" in="00:04:43.200" out="00:04:44.800">
   <property name="kdenlive:id">2</property>
  </entry>
  <entry producer="producer4" in="00:04:47.120" out="00:04:51.760">
   <property name="kdenlive:id">2</property>
  </entry>
  <entry producer="producer4" in="00:04:52.800" out="00:04:53.800">
   <property name="kdenlive:id">2</property>
  </entry>
  <entry producer="producer4" in="00:04:54.600" out="00:04:58.960">
   <property name="kdenlive:id">2</property>
  </entry>
  <entry producer="producer4" in="00:04:59.320" out="00:05:01.280">
   <property name="kdenlive:id">2</property>
  </entry>
  <entry producer="producer4" in="00:05:02.160" out="00:05:03.800">
   <property name="kdenlive:id">2</property>
  </entry>
  <entry producer="producer4" in="00:05:04.720" out="00:05:05.800">
   <property name="kdenlive:id">2</property>
  </entry>
  <entry producer="producer4" in="00:05:09.320" out="00:05:12.840">
   <property name="kdenlive:id">2</property>
  </entry>
  <entry producer="producer4" in="00:05:13.240" out="00:05:15.720">
   <property name="kdenlive:id">2</property>
  </entry>
  <entry producer="producer4" in="00:05:21.640" out="00:05:23.360">
   <property name="kdenlive:id">2</property>
  </entry>
  <entry producer="producer4" in="00:05:25.600" out="00:05:28.920">
   <property name="kdenlive:id">2</property>
  </entry>
  <entry producer="producer4" in="00:05:31.480" out="00:05:36.120">
   <property name="kdenlive:id">2</property>
  </entry>
  <entry producer="producer4" in="00:05:36.400" out="00:05:37.480">
   <property name="kdenlive:id">2</property>
  </entry>
  <entry producer="producer4" in="00:05:40.280" out="00:05:41.200">
   <property name="kdenlive:id">2</property>
  </entry>
  <entry producer="producer4" in="00:05:41.480" out="00:05:44.240">
   <property name="kdenlive:id">2</property>
  </entry>
  <entry producer="producer4" in="00:05:48.000" out="00:05:52.400">
   <property name="kdenlive:id">2</property>
  </entry>
  <entry producer="producer4" in="00:05:53.280" out="00:05:58.840">
   <property name="kdenlive:id">2</property>
  </entry>
  <entry producer="producer4" in="00:05:59.360" out="00:06:01.720">
   <property name="kdenlive:id">2</property>
  </entry>
  <entry producer="producer4" in="00:06:07.840" out="00:06:09.320">
   <property name="kdenlive:id">2</property>
  </entry>
  <entry producer="producer4" in="00:06:12.040" out="00:06:17.440">
   <property name="kdenlive:id">2</property>
  </entry>
  <entry producer="producer4" in="00:06:18.400" out="00:06:20.920">
   <property name="kdenlive:id">2</property>
  </entry>
  <entry producer="producer4" in="00:06:21.600" out="00:06:23.240">
   <property name="kdenlive:id">2</property>
  </entry>
  <entry producer="producer4" in="00:06:25.560" out="00:06:28.200">
   <property name="kdenlive:id">2</property>
  </entry>
  <entry producer="producer4" in="00:06:28.960" out="00:06:29.440">
   <property name="kdenlive:id">2</property>
  </entry>
  <entry producer="producer4" in="00:06:34.080" out="00:06:36.720">
   <property name="kdenlive:id">2</property>
  </entry>
  <entry producer="producer4" in="00:06:40.920" out="00:06:42.000">
   <property name="kdenlive:id">2</property>
  </entry>
  <blank length="00:00:00.480"/>
  <entry producer="producer4" in="00:06:43.000" out="00:06:46.760">
   <property name="kdenlive:id">2</property>
  </entry>
  <entry producer="producer4" in="00:06:47.840" out="00:06:48.320">
   <property name="kdenlive:id">2</property>
  </entry>
  <entry producer="producer4" in="00:06:48.640" out="00:06:50.520">
   <property name="kdenlive:id">2</property>
  </entry>
  <entry producer="producer4" in="00:06:51.200" out="00:06:51.920">
   <property name="kdenlive:id">2</property>
  </entry>
  <entry producer="producer4" in="00:06:52.960" out="00:06:54.240">
   <property name="kdenlive:id">2</property>
  </entry>
  <entry producer="producer4" in="00:06:56.080" out="00:06:56.680">
   <property name="kdenlive:id">2</property>
  </entry>
  <entry producer="producer4" in="00:06:57.280" out="00:07:00.560">
   <property name="kdenlive:id">2</property>
  </entry>
  <entry producer="producer4" in="00:07:02.040" out="00:07:04.360">
   <property name="kdenlive:id">2</property>
  </entry>
  <entry producer="producer4" in="00:07:04.640" out="00:07:05.680">
   <property name="kdenlive:id">2</property>
  </entry>
  <entry producer="producer4" in="00:07:06.040" out="00:07:07.040">
   <property name="kdenlive:id">2</property>
  </entry>
  <entry producer="producer4" in="00:07:11.120" out="00:07:13.400">
   <property name="kdenlive:id">2</property>
  </entry>
  <entry producer="producer4" in="00:07:14.520" out="00:07:18.720">
   <property name="kdenlive:id">2</property>
  </entry>
  <entry producer="producer4" in="00:07:19.520" out="00:07:21.960">
   <property name="kdenlive:id">2</property>
  </entry>
  <entry producer="producer4" in="00:07:22.440" out="00:07:23.520">
   <property name="kdenlive:id">2</property>
  </entry>
  <entry producer="producer4" in="00:07:24.080" out="00:07:25.600">
   <property name="kdenlive:id">2</property>
  </entry>
  <entry producer="producer4" in="00:07:25.960" out="00:07:27.160">
   <property name="kdenlive:id">2</property>
  </entry>
  <entry producer="producer4" in="00:07:28.880" out="00:07:33.560">
   <property name="kdenlive:id">2</property>
  </entry>
  <entry producer="producer4" in="00:07:35.120" out="00:07:36.320">
   <property name="kdenlive:id">2</property>
  </entry>
  <entry producer="producer4" in="00:07:36.760" out="00:07:37.760">
   <property name="kdenlive:id">2</property>
  </entry>
  <entry producer="producer4" in="00:07:39.840" out="00:07:42.360">
   <property name="kdenlive:id">2</property>
  </entry>
  <entry producer="producer4" in="00:07:43.560" out="00:07:59.000">
   <property name="kdenlive:id">2</property>
  </entry>
  <entry producer="producer4" in="00:08:02.760" out="00:08:04.760">
   <property name="kdenlive:id">2</property>
  </entry>
  <entry producer="producer4" in="00:08:05.280" out="00:08:07.240">
   <property name="kdenlive:id">2</property>
  </entry>
  <entry producer="producer4" in="00:08:12.760" out="00:08:17.320">
   <property name="kdenlive:id">2</property>
  </entry>
  <entry producer="producer4" in="00:08:17.640" out="00:08:23.000">
   <property name="kdenlive:id">2</property>
  </entry>
  <entry producer="producer4" in="00:08:23.640" out="00:08:24.520">
   <property name="kdenlive:id">2</property>
  </entry>
  <entry producer="producer4" in="00:08:25.080" out="00:08:29.160">
   <property name="kdenlive:id">2</property>
  </entry>
  <entry producer="producer4" in="00:08:30.320" out="00:08:32.880">
   <property name="kdenlive:id">2</property>
  </entry>
  <entry producer="producer4" in="00:08:33.640" out="00:08:37.080">
   <property name="kdenlive:id">2</property>
  </entry>
  <entry producer="producer4" in="00:08:38.680" out="00:08:40.640">
   <property name="kdenlive:id">2</property>
  </entry>
  <entry producer="producer4" in="00:08:42.400" out="00:08:53.920">
   <property name="kdenlive:id">2</property>
  </entry>
  <entry producer="producer4" in="00:09:00.120" out="00:09:01.720">
   <property name="kdenlive:id">2</property>
  </entry>
  <entry producer="producer4" in="00:09:02.280" out="00:09:02.800">
   <property name="kdenlive:id">2</property>
  </entry>
  <entry producer="producer4" in="00:09:03.040" out="00:09:03.520">
   <property name="kdenlive:id">2</property>
  </entry>
  <entry producer="producer4" in="00:09:03.880" out="00:09:04.600">
   <property name="kdenlive:id">2</property>
  </entry>
  <entry producer="producer4" in="00:09:07.440" out="00:09:07.880">
   <property name="kdenlive:id">2</property>
  </entry>
  <entry producer="producer4" in="00:09:10.200" out="00:09:15.320">
   <property name="kdenlive:id">2</property>
  </entry>
  <entry producer="producer4" in="00:09:16.440" out="00:09:18.160">
   <property name="kdenlive:id">2</property>
  </entry>
  <entry producer="producer4" in="00:09:20.080" out="00:09:22.160">
   <property name="kdenlive:id">2</property>
  </entry>
  <entry producer="producer4" in="00:09:24.760" out="00:09:34.720">
   <property name="kdenlive:id">2</property>
  </entry>
  <entry producer="producer4" in="00:09:35.520" out="00:09:37.840">
   <property name="kdenlive:id">2</property>
  </entry>
  <entry producer="producer4" in="00:09:40.320" out="00:09:42.240">
   <property name="kdenlive:id">2</property>
  </entry>
  <entry producer="producer4" in="00:09:47.320" out="00:09:49.560">
   <property name="kdenlive:id">2</property>
  </entry>
  <entry producer="producer4" in="00:09:52.320" out="00:09:56.680">
   <property name="kdenlive:id">2</property>
  </entry>
  <entry producer="producer4" in="00:09:57.560" out="00:09:59.440">
   <property name="kdenlive:id">2</property>
  </entry>
  <entry producer="producer4" in="00:10:00.160" out="00:10:01.480">
   <property name="kdenlive:id">2</property>
  </entry>
  <entry producer="producer4" in="00:10:02.120" out="00:10:04.400">
   <property name="kdenlive:id">2</property>
  </entry>
  <entry producer="producer4" in="00:10:05.320" out="00:10:06.320">
   <property name="kdenlive:id">2</property>
  </entry>
  <entry producer="producer4" in="00:10:07.360" out="00:10:10.360">
   <property name="kdenlive:id">2</property>
  </entry>
  <entry producer="producer4" in="00:10:11.120" out="00:10:17.760">
   <property name="kdenlive:id">2</property>
  </entry>
  <entry producer="producer4" in="00:10:18.200" out="00:10:19.640">
   <property name="kdenlive:id">2</property>
  </entry>
  <entry producer="producer4" in="00:10:19.920" out="00:10:21.320">
   <property name="kdenlive:id">2</property>
  </entry>
  <entry producer="producer4" in="00:10:21.720" out="00:10:25.040">
   <property name="kdenlive:id">2</property>
  </entry>
  <entry producer="producer4" in="00:10:27.120" out="00:10:27.560">
   <property name="kdenlive:id">2</property>
  </entry>
  <entry producer="producer4" in="00:10:28.200" out="00:10:29.880">
   <property name="kdenlive:id">2</property>
  </entry>
  <entry producer="producer4" in="00:10:33.040" out="00:10:33.640">
   <property name="kdenlive:id">2</property>
  </entry>
  <entry producer="producer4" in="00:10:34.880" out="00:10:38.080">
   <property name="kdenlive:id">2</property>
  </entry>
  <entry producer="producer4" in="00:10:41.520" out="00:10:43.120">
   <property name="kdenlive:id">2</property>
  </entry>
  <entry producer="producer4" in="00:10:44.160" out="00:10:44.600">
   <property name="kdenlive:id">2</property>
  </entry>
  <entry producer="producer4" in="00:10:45.280" out="00:10:50.120">
   <property name="kdenlive:id">2</property>
  </entry>
  <entry producer="producer4" in="00:10:53.200" out="00:10:53.840">
   <property name="kdenlive:id">2</property>
  </entry>
  <entry producer="producer4" in="00:10:55.920" out="00:10:56.960">
   <property name="kdenlive:id">2</property>
  </entry>
  <entry producer="producer4" in="00:10:58.360" out="00:11:01.600">
   <property name="kdenlive:id">2</property>
  </entry>
  <entry producer="producer4" in="00:11:02.480" out="00:11:04.480">
   <property name="kdenlive:id">2</property>
  </entry>
  <entry producer="producer4" in="00:11:04.920" out="00:11:06.720">
   <property name="kdenlive:id">2</property>
  </entry>
  <entry producer="producer4" in="00:11:07.840" out="00:11:08.880">
   <property name="kdenlive:id">2</property>
  </entry>
  <entry producer="producer4" in="00:11:09.360" out="00:11:12.200">
   <property name="kdenlive:id">2</property>
  </entry>
  <entry producer="producer4" in="00:11:19.600" out="00:11:24.560">
   <property name="kdenlive:id">2</property>
  </entry>
  <entry producer="producer4" in="00:11:26.040" out="00:11:28.840">
   <property name="kdenlive:id">2</property>
  </entry>
  <entry producer="producer4" in="00:11:30.560" out="00:11:31.240">
   <property name="kdenlive:id">2</property>
  </entry>
  <entry producer="producer4" in="00:11:31.720" out="00:11:35.320">
   <property name="kdenlive:id">2</property>
  </entry>
  <entry producer="producer4" in="00:11:35.560" out="00:11:36.800">
   <property name="kdenlive:id">2</property>
  </entry>
  <entry producer="producer4" in="00:11:37.360" out="00:11:38.720">
   <property name="kdenlive:id">2</property>
  </entry>
  <entry producer="producer4" in="00:11:39.440" out="00:11:48.480">
   <property name="kdenlive:id">2</property>
  </entry>
  <entry producer="producer4" in="00:11:53.440" out="00:11:54.640">
   <property name="kdenlive:id">2</property>
  </entry>
  <entry producer="producer4" in="00:11:55.240" out="00:11:57.280">
   <property name="kdenlive:id">2</property>
  </entry>
  <entry producer="producer4" in="00:12:00.160" out="00:12:01.080">
   <property name="kdenlive:id">2</property>
  </entry>
  <entry producer="producer4" in="00:12:02.960" out="00:12:07.320">
   <property name="kdenlive:id">2</property>
  </entry>
  <entry producer="producer4" in="00:12:08.600" out="00:12:10.560">
   <property name="kdenlive:id">2</property>
  </entry>
  <entry producer="producer4" in="00:12:11.800" out="00:12:13.040">
   <property name="kdenlive:id">2</property>
  </entry>
  <entry producer="producer4" in="00:12:13.560" out="00:12:17.000">
   <property name="kdenlive:id">2</property>
  </entry>
  <entry producer="producer4" in="00:12:18.960" out="00:12:19.880">
   <property name="kdenlive:id">2</property>
  </entry>
  <entry producer="producer4" in="00:12:20.600" out="00:12:21.560">
   <property name="kdenlive:id">2</property>
  </entry>
  <entry producer="producer4" in="00:12:23.080" out="00:12:23.880">
   <property name="kdenlive:id">2</property>
  </entry>
  <entry producer="producer4" in="00:12:25.720" out="00:12:27.240">
   <property name="kdenlive:id">2</property>
  </entry>
  <entry producer="producer4" in="00:12:28.240" out="00:12:29.480">
   <property name="kdenlive:id">2</property>
  </entry>
  <entry producer="producer4" in="00:12:31.800" out="00:12:34.960">
   <property name="kdenlive:id">2</property>
  </entry>
  <entry producer="producer4" in="00:12:37.320" out="00:12:37.520">
   <property name="kdenlive:id">2</property>
  </entry>
  <entry producer="producer4" in="00:12:41.360" out="00:12:43.120">
   <property name="kdenlive:id">2</property>
  </entry>
  <entry producer="producer4" in="00:12:43.440" out="00:12:47.040">
   <property name="kdenlive:id">2</property>
  </entry>
  <entry producer="producer4" in="00:12:48.080" out="00:12:49.720">
   <property name="kdenlive:id">2</property>
  </entry>
  <entry producer="producer4" in="00:12:50.560" out="00:12:55.800">
   <property name="kdenlive:id">2</property>
  </entry>
  <entry producer="producer4" in="00:12:55.840" out="00:12:56.560">
   <property name="kdenlive:id">2</property>
  </entry>
  <entry producer="producer4" in="00:12:57.800" out="00:12:58.880">
   <property name="kdenlive:id">2</property>
  </entry>
  <entry producer="producer4" in="00:12:59.920" out="00:13:04.880">
   <property name="kdenlive:id">2</property>
  </entry>
  <entry producer="producer4" in="00:13:06.840" out="00:13:10.480">
   <property name="kdenlive:id">2</property>
  </entry>
  <entry producer="producer4" in="00:13:12.800" out="00:13:13.320">
   <property name="kdenlive:id">2</property>
  </entry>
  <entry producer="producer4" in="00:13:15.120" out="00:13:15.640">
   <property name="kdenlive:id">2</property>
  </entry>
  <entry producer="producer4" in="00:13:17.480" out="00:13:19.640">
   <property name="kdenlive:id">2</property>
  </entry>
  <entry producer="producer4" in="00:13:20.280" out="00:13:21.440">
   <property name="kdenlive:id">2</property>
  </entry>
  <entry producer="producer4" in="00:13:25.120" out="00:13:26.240">
   <property name="kdenlive:id">2</property>
  </entry>
  <entry producer="producer4" in="00:13:27.040" out="00:13:28.200">
   <property name="kdenlive:id">2</property>
  </entry>
  <entry producer="producer4" in="00:13:28.760" out="00:13:29.840">
   <property name="kdenlive:id">2</property>
  </entry>
  <entry producer="producer4" in="00:13:32.080" out="00:13:33.640">
   <property name="kdenlive:id">2</property>
  </entry>
  <entry producer="producer4" in="00:13:34.760" out="00:13:37.520">
   <property name="kdenlive:id">2</property>
  </entry>
  <entry producer="producer4" in="00:13:39.440" out="00:13:49.520">
   <property name="kdenlive:id">2</property>
  </entry>
  <entry producer="producer4" in="00:13:49.960" out="00:13:52.400">
   <property name="kdenlive:id">2</property>
  </entry>
  <entry producer="producer4" in="00:13:54.360" out="00:13:55.040">
   <property name="kdenlive:id">2</property>
  </entry>
  <entry producer="producer4" in="00:13:56.120" out="00:13:56.680">
   <property name="kdenlive:id">2</property>
  </entry>
  <entry producer="producer4" in="00:13:57.360" out="00:14:01.240">
   <property name="kdenlive:id">2</property>
  </entry>
  <entry producer="producer4" in="00:14:02.440" out="00:14:03.120">
   <property name="kdenlive:id">2</property>
  </entry>
  <entry producer="producer4" in="00:14:04.040" out="00:14:04.560">
   <property name="kdenlive:id">2</property>
  </entry>
  <entry producer="producer4" in="00:14:05.200" out="00:14:08.360">
   <property name="kdenlive:id">2</property>
  </entry>
  <entry producer="producer4" in="00:14:08.880" out="00:14:09.240">
   <property name="kdenlive:id">2</property>
  </entry>
  <entry producer="producer4" in="00:14:10.000" out="00:14:10.640">
   <property name="kdenlive:id">2</property>
  </entry>
  <entry producer="producer4" in="00:14:11.680" out="00:14:23.800">
   <property name="kdenlive:id">2</property>
  </entry>
  <entry producer="producer4" in="00:14:25.200" out="00:14:27.400">
   <property name="kdenlive:id">2</property>
  </entry>
  <entry producer="producer4" in="00:14:28.000" out="00:14:34.760">
   <property name="kdenlive:id">2</property>
  </entry>
  <entry producer="producer4" in="00:14:35.760" out="00:14:36.480">
   <property name="kdenlive:id">2</property>
  </entry>
  <entry producer="producer4" in="00:14:37.200" out="00:14:43.200">
   <property name="kdenlive:id">2</property>
  </entry>
  <entry producer="producer4" in="00:14:44.320" out="00:14:45.240">
   <property name="kdenlive:id">2</property>
  </entry>
  <entry producer="producer4" in="00:14:45.760" out="00:14:47.160">
   <property name="kdenlive:id">2</property>
  </entry>
  <entry producer="producer4" in="00:14:48.120" out="00:14:49.080">
   <property name="kdenlive:id">2</property>
  </entry>
  <entry producer="producer4" in="00:14:49.600" out="00:14:56.480">
   <property name="kdenlive:id">2</property>
  </entry>
  <entry producer="producer4" in="00:14:57.640" out="00:15:27.840">
   <property name="kdenlive:id">2</property>
  </entry>
  <entry producer="producer4" in="00:15:28.480" out="00:15:30.360">
   <property name="kdenlive:id">2</property>
  </entry>
  <entry producer="producer4" in="00:15:32.000" out="00:15:37.160">
   <property name="kdenlive:id">2</property>
  </entry>
  <entry producer="producer4" in="00:15:39.200" out="00:15:40.600">
   <property name="kdenlive:id">2</property>
  </entry>
  <entry producer="producer4" in="00:15:42.280" out="00:15:43.960">
   <property name="kdenlive:id">2</property>
  </entry>
  <entry producer="producer4" in="00:15:44.440" out="00:15:45.400">
   <property name="kdenlive:id">2</property>
  </entry>
  <entry producer="producer4" in="00:15:46.400" out="00:15:48.520">
   <property name="kdenlive:id">2</property>
  </entry>
  <entry producer="producer4" in="00:15:49.920" out="00:15:51.160">
   <property name="kdenlive:id">2</property>
  </entry>
  <entry producer="producer4" in="00:15:51.640" out="00:16:00.000">
   <property name="kdenlive:id">2</property>
  </entry>
  <entry producer="producer4" in="00:16:00.400" out="00:16:01.640">
   <property name="kdenlive:id">2</property>
  </entry>
  <entry producer="producer4" in="00:16:02.520" out="00:16:04.040">
   <property name="kdenlive:id">2</property>
  </entry>
  <entry producer="producer4" in="00:16:04.960" out="00:16:05.880">
   <property name="kdenlive:id">2</property>
  </entry>
  <entry producer="producer4" in="00:16:06.960" out="00:16:08.920">
   <property name="kdenlive:id">2</property>
  </entry>
  <entry producer="producer4" in="00:16:09.440" out="00:16:16.400">
   <property name="kdenlive:id">2</property>
  </entry>
  <entry producer="producer4" in="00:16:17.800" out="00:16:18.920">
   <property name="kdenlive:id">2</property>
  </entry>
  <entry producer="producer4" in="00:16:20.520" out="00:16:25.560">
   <property name="kdenlive:id">2</property>
  </entry>
  <entry producer="producer4" in="00:16:26.720" out="00:16:29.160">
   <property name="kdenlive:id">2</property>
  </entry>
  <entry producer="producer4" in="00:16:29.720" out="00:16:31.200">
   <property name="kdenlive:id">2</property>
  </entry>
  <entry producer="producer4" in="00:16:32.440" out="00:16:33.040">
   <property name="kdenlive:id">2</property>
  </entry>
  <entry producer="producer4" in="00:16:34.200" out="00:16:34.880">
   <property name="kdenlive:id">2</property>
  </entry>
  <entry producer="producer4" in="00:16:36.200" out="00:16:48.400">
   <property name="kdenlive:id">2</property>
  </entry>
  <entry producer="producer4" in="00:16:48.880" out="00:16:49.920">
   <property name="kdenlive:id">2</property>
  </entry>
  <entry producer="producer4" in="00:16:50.280" out="00:16:50.400">
   <property name="kdenlive:id">2</property>
  </entry>
  <entry producer="producer4" in="00:16:55.360" out="00:17:07.960">
   <property name="kdenlive:id">2</property>
  </entry>
  <entry producer="producer4" in="00:17:09.360" out="00:17:11.320">
   <property name="kdenlive:id">2</property>
  </entry>
  <entry producer="producer4" in="00:17:12.920" out="00:17:22.440">
   <property name="kdenlive:id">2</property>
  </entry>
  <entry producer="producer4" in="00:17:23.320" out="00:17:26.520">
   <property name="kdenlive:id">2</property>
  </entry>
  <entry producer="producer4" in="00:17:28.320" out="00:17:29.800">
   <property name="kdenlive:id">2</property>
  </entry>
  <entry producer="producer4" in="00:17:31.200" out="00:17:38.520">
   <property name="kdenlive:id">2</property>
  </entry>
  <entry producer="producer4" in="00:17:39.440" out="00:17:42.440">
   <property name="kdenlive:id">2</property>
  </entry>
  <entry producer="producer4" in="00:17:44.520" out="00:17:45.040">
   <property name="kdenlive:id">2</property>
  </entry>
  <entry producer="producer4" in="00:17:48.280" out="00:17:49.440">
   <property name="kdenlive:id">2</property>
  </entry>
  <entry producer="producer4" in="00:17:50.640" out="00:17:54.640">
   <property name="kdenlive:id">2</property>
  </entry>
  <entry producer="producer4" in="00:17:55.840" out="00:17:56.320">
   <property name="kdenlive:id">2</property>
  </entry>
  <entry producer="producer4" in="00:17:56.680" out="00:17:58.160">
   <property name="kdenlive:id">2</property>
  </entry>
  <entry producer="producer4" in="00:17:58.720" out="00:17:59.040">
   <property name="kdenlive:id">2</property>
  </entry>
  <entry producer="producer4" in="00:17:59.320" out="00:18:04.160">
   <property name="kdenlive:id">2</property>
  </entry>
  <entry producer="producer4" in="00:18:04.600" out="00:18:06.280">
   <property name="kdenlive:id">2</property>
  </entry>
  <entry producer="producer4" in="00:18:07.040" out="00:18:11.840">
   <property name="kdenlive:id">2</property>
  </entry>
  <entry producer="producer4" in="00:18:13.280" out="00:18:17.040">
   <property name="kdenlive:id">2</property>
  </entry>
  <entry producer="producer4" in="00:18:18.720" out="00:18:21.200">
   <property name="kdenlive:id">2</property>
  </entry>
  <entry producer="producer4" in="00:18:23.280" out="00:18:23.680">
   <property name="kdenlive:id">2</property>
  </entry>
  <entry producer="producer4" in="00:18:25.400" out="00:18:29.160">
   <property name="kdenlive:id">2</property>
  </entry>
  <entry producer="producer4" in="00:18:30.160" out="00:18:33.240">
   <property name="kdenlive:id">2</property>
  </entry>
  <entry producer="producer4" in="00:18:34.080" out="00:18:34.640">
   <property name="kdenlive:id">2</property>
  </entry>
  <entry producer="producer4" in="00:18:35.280" out="00:18:42.080">
   <property name="kdenlive:id">2</property>
  </entry>
  <entry producer="producer4" in="00:18:42.560" out="00:18:46.200">
   <property name="kdenlive:id">2</property>
  </entry>
  <entry producer="producer4" in="00:18:46.320" out="00:19:00.600">
   <property name="kdenlive:id">2</property>
  </entry>
  <entry producer="producer4" in="00:19:00.960" out="00:19:01.480">
   <property name="kdenlive:id">2</property>
  </entry>
  <entry producer="producer4" in="00:19:02.200" out="00:19:04.560">
   <property name="kdenlive:id">2</property>
  </entry>
  <entry producer="producer4" in="00:19:05.120" out="00:19:05.560">
   <property name="kdenlive:id">2</property>
  </entry>
  <entry producer="producer4" in="00:19:06.240" out="00:19:07.720">
   <property name="kdenlive:id">2</property>
  </entry>
  <entry producer="producer4" in="00:19:12.080" out="00:19:12.840">
   <property name="kdenlive:id">2</property>
  </entry>
  <entry producer="producer4" in="00:19:14.680" out="00:19:17.560">
   <property name="kdenlive:id">2</property>
  </entry>
  <entry producer="producer4" in="00:19:20.120" out="00:19:21.960">
   <property name="kdenlive:id">2</property>
  </entry>
  <entry producer="producer4" in="00:19:22.720" out="00:19:26.400">
   <property name="kdenlive:id">2</property>
  </entry>
  <entry producer="producer4" in="00:19:27.640" out="00:19:32.680">
   <property name="kdenlive:id">2</property>
  </entry>
  <entry producer="producer4" in="00:19:33.520" out="00:19:34.520">
   <property name="kdenlive:id">2</property>
  </entry>
  <entry producer="producer4" in="00:19:35.160" out="00:19:36.040">
   <property name="kdenlive:id">2</property>
  </entry>
  <entry producer="producer4" in="00:19:36.200" out="00:19:37.320">
   <property name="kdenlive:id">2</property>
  </entry>
  <entry producer="producer4" in="00:19:37.960" out="00:19:39.200">
   <property name="kdenlive:id">2</property>
  </entry>
  <entry producer="producer4" in="00:19:39.760" out="00:19:40.440">
   <property name="kdenlive:id">2</property>
  </entry>
  <entry producer="producer4" in="00:19:40.760" out="00:19:42.280">
   <property name="kdenlive:id">2</property>
  </entry>
  <entry producer="producer4" in="00:19:47.200" out="00:19:47.680">
   <property name="kdenlive:id">2</property>
  </entry>
  <entry producer="producer4" in="00:19:48.320" out="00:19:49.240">
   <property name="kdenlive:id">2</property>
  </entry>
  <entry producer="producer4" in="00:19:49.920" out="00:19:50.880">
   <property name="kdenlive:id">2</property>
  </entry>
  <entry producer="producer4" in="00:19:54.880" out="00:19:55.800">
   <property name="kdenlive:id">2</property>
  </entry>
  <entry producer="producer4" in="00:19:57.000" out="00:20:01.360">
   <property name="kdenlive:id">2</property>
  </entry>
  <entry producer="producer4" in="00:20:02.240" out="00:20:05.240">
   <property name="kdenlive:id">2</property>
  </entry>
  <entry producer="producer4" in="00:20:06.080" out="00:20:07.040">
   <property name="kdenlive:id">2</property>
  </entry>
  <entry producer="producer4" in="00:20:07.720" out="00:20:09.160">
   <property name="kdenlive:id">2</property>
  </entry>
  <entry producer="producer4" in="00:20:09.360" out="00:20:21.200">
   <property name="kdenlive:id">2</property>
  </entry>
  <entry producer="producer4" in="00:20:21.560" out="00:20:23.960">
   <property name="kdenlive:id">2</property>
  </entry>
  <entry producer="producer4" in="00:20:25.360" out="00:20:34.360">
   <property name="kdenlive:id">2</property>
  </entry>
  <entry producer="producer4" in="00:20:36.640" out="00:20:37.400">
   <property name="kdenlive:id">2</property>
  </entry>
  <entry producer="producer4" in="00:20:37.920" out="00:20:42.160">
   <property name="kdenlive:id">2</property>
  </entry>
  <entry producer="producer4" in="00:20:44.560" out="00:20:45.960">
   <property name="kdenlive:id">2</property>
  </entry>
  <entry producer="producer4" in="00:20:47.680" out="00:20:49.840">
   <property name="kdenlive:id">2</property>
  </entry>
  <entry producer="producer4" in="00:20:50.760" out="00:20:52.600">
   <property name="kdenlive:id">2</property>
  </entry>
  <entry producer="producer4" in="00:20:53.320" out="00:20:59.320">
   <property name="kdenlive:id">2</property>
  </entry>
  <entry producer="producer4" in="00:20:59.360" out="00:20:59.520">
   <property name="kdenlive:id">2</property>
  </entry>
  <entry producer="producer4" in="00:21:00.120" out="00:21:01.640">
   <property name="kdenlive:id">2</property>
  </entry>
  <entry producer="producer4" in="00:21:02.960" out="00:21:04.960">
   <property name="kdenlive:id">2</property>
  </entry>
  <entry producer="producer4" in="00:21:05.280" out="00:21:06.320">
   <property name="kdenlive:id">2</property>
  </entry>
  <entry producer="producer4" in="00:21:06.720" out="00:21:12.640">
   <property name="kdenlive:id">2</property>
  </entry>
  <entry producer="producer4" in="00:21:15.320" out="00:21:16.440">
   <property name="kdenlive:id">2</property>
  </entry>
  <entry producer="producer4" in="00:21:17.040" out="00:21:17.880">
   <property name="kdenlive:id">2</property>
  </entry>
  <entry producer="producer4" in="00:21:18.120" out="00:21:19.400">
   <property name="kdenlive:id">2</property>
  </entry>
  <entry producer="producer4" in="00:21:20.640" out="00:21:23.880">
   <property name="kdenlive:id">2</property>
  </entry>
  <entry producer="producer4" in="00:21:24.240" out="00:21:25.160">
   <property name="kdenlive:id">2</property>
  </entry>
  <entry producer="producer4" in="00:21:26.240" out="00:21:26.800">
   <property name="kdenlive:id">2</property>
  </entry>
  <entry producer="producer4" in="00:21:31.480" out="00:21:36.400">
   <property name="kdenlive:id">2</property>
  </entry>
  <entry producer="producer4" in="00:21:37.400" out="00:21:40.800">
   <property name="kdenlive:id">2</property>
  </entry>
  <entry producer="producer4" in="00:21:41.760" out="00:21:43.040">
   <property name="kdenlive:id">2</property>
  </entry>
  <entry producer="producer4" in="00:21:44.160" out="00:21:49.720">
   <property name="kdenlive:id">2</property>
  </entry>
  <entry producer="producer4" in="00:21:51.000" out="00:21:53.720">
   <property name="kdenlive:id">2</property>
  </entry>
  <entry producer="producer4" in="00:21:57.120" out="00:21:57.920">
   <property name="kdenlive:id">2</property>
  </entry>
  <entry producer="producer4" in="00:21:58.200" out="00:22:03.920">
   <property name="kdenlive:id">2</property>
  </entry>
  <entry producer="producer4" in="00:22:04.440" out="00:22:04.840">
   <property name="kdenlive:id">2</property>
  </entry>
  <entry producer="producer4" in="00:22:08.920" out="00:22:09.480">
   <property name="kdenlive:id">2</property>
  </entry>
  <entry producer="producer4" in="00:22:09.840" out="00:22:17.560">
   <property name="kdenlive:id">2</property>
  </entry>
  <entry producer="producer4" in="00:22:18.120" out="00:22:18.680">
   <property name="kdenlive:id">2</property>
  </entry>
  <entry producer="producer4" in="00:22:19.400" out="00:22:29.720">
   <property name="kdenlive:id">2</property>
  </entry>
  <entry producer="producer4" in="00:22:32.120" out="00:22:35.120">
   <property name="kdenlive:id">2</property>
  </entry>
  <entry producer="producer4" in="00:22:36.000" out="00:22:36.680">
   <property name="kdenlive:id">2</property>
  </entry>
  <entry producer="producer4" in="00:22:40.320" out="00:22:40.840">
   <property name="kdenlive:id">2</property>
  </entry>
  <entry producer="producer4" in="00:22:41.240" out="00:22:43.600">
   <property name="kdenlive:id">2</property>
  </entry>
  <entry producer="producer4" in="00:22:44.600" out="00:22:47.120">
   <property name="kdenlive:id">2</property>
  </entry>
  <entry producer="producer4" in="00:22:47.480" out="00:22:48.320">
   <property name="kdenlive:id">2</property>
  </entry>
  <entry producer="producer4" in="00:22:48.920" out="00:22:56.160">
   <property name="kdenlive:id">2</property>
  </entry>
  <entry producer="producer4" in="00:22:57.360" out="00:22:57.760">
   <property name="kdenlive:id">2</property>
  </entry>
  <entry producer="producer4" in="00:22:58.200" out="00:23:05.480">
   <property name="kdenlive:id">2</property>
  </entry>
  <entry producer="producer4" in="00:23:05.880" out="00:23:06.720">
   <property name="kdenlive:id">2</property>
  </entry>
  <entry producer="producer4" in="00:23:11.720" out="00:23:16.640">
   <property name="kdenlive:id">2</property>
  </entry>
  <entry producer="producer4" in="00:23:17.560" out="00:23:22.880">
   <property name="kdenlive:id">2</property>
  </entry>
  <entry producer="producer4" in="00:23:23.840" out="00:23:25.480">
   <property name="kdenlive:id">2</property>
  </entry>
  <entry producer="producer4" in="00:23:25.760" out="00:23:38.080">
   <property name="kdenlive:id">2</property>
  </entry>
  <entry producer="producer4" in="00:23:38.640" out="00:23:39.920">
   <property name="kdenlive:id">2</property>
  </entry>
  <entry producer="producer4" in="00:23:41.200" out="00:23:43.680">
   <property name="kdenlive:id">2</property>
  </entry>
  <entry producer="producer4" in="00:23:44.240" out="00:23:49.720">
   <property name="kdenlive:id">2</property>
  </entry>
  <entry producer="producer4" in="00:23:51.800" out="00:23:54.440">
   <property name="kdenlive:id">2</property>
  </entry>
  <entry producer="producer4" in="00:23:55.320" out="00:24:00.880">
   <property name="kdenlive:id">2</property>
  </entry>
  <entry producer="producer4" in="00:24:01.240" out="00:24:01.640">
   <property name="kdenlive:id">2</property>
  </entry>
  <entry producer="producer4" in="00:24:02.760" out="00:24:03.920">
   <property name="kdenlive:id">2</property>
  </entry>
  <entry producer="producer4" in="00:24:05.800" out="00:24:16.680">
   <property name="kdenlive:id">2</property>
  </entry>
  <entry producer="producer4" in="00:24:17.680" out="00:24:23.320">
   <property name="kdenlive:id">2</property>
  </entry>
  <entry producer="producer4" in="00:24:23.800" out="00:24:28.480">
   <property name="kdenlive:id">2</property>
  </entry>
  <entry producer="producer4" in="00:24:30.040" out="00:24:34.800">
   <property name="kdenlive:id">2</property>
  </entry>
  <entry producer="producer4" in="00:24:37.200" out="00:24:41.960">
   <property name="kdenlive:id">2</property>
  </entry>
  <entry producer="producer4" in="00:24:46.000" out="00:24:51.840">
   <property name="kdenlive:id">2</property>
  </entry>
  <entry producer="producer4" in="00:24:57.080" out="00:24:57.960">
   <property name="kdenlive:id">2</property>
  </entry>
  <entry producer="producer4" in="00:24:59.120" out="00:25:00.720">
   <property name="kdenlive:id">2</property>
  </entry>
  <entry producer="producer4" in="00:25:02.200" out="00:25:09.960">
   <property name="kdenlive:id">2</property>
  </entry>
  <entry producer="producer4" in="00:25:11.560" out="00:25:14.000">
   <property name="kdenlive:id">2</property>
  </entry>
  <entry producer="producer4" in="00:25:14.480" out="00:25:16.560">
   <property name="kdenlive:id">2</property>
  </entry>
  <entry producer="producer4" in="00:25:17.320" out="00:25:22.000">
   <property name="kdenlive:id">2</property>
  </entry>
  <entry producer="producer4" in="00:25:29.360" out="00:25:30.400">
   <property name="kdenlive:id">2</property>
  </entry>
  <entry producer="producer4" in="00:25:31.680" out="00:25:33.240">
   <property name="kdenlive:id">2</property>
  </entry>
  <entry producer="producer4" in="00:25:35.000" out="00:25:40.200">
   <property name="kdenlive:id">2</property>
  </entry>
  <entry producer="producer4" in="00:25:42.520" out="00:25:49.080">
   <property name="kdenlive:id">2</property>
  </entry>
  <entry producer="producer4" in="00:25:50.920" out="00:25:59.200">
   <property name="kdenlive:id">2</property>
  </entry>
  <entry producer="producer4" in="00:26:00.440" out="00:26:06.000">
   <property name="kdenlive:id">2</property>
  </entry>
  <entry producer="producer4" in="00:26:10.280" out="00:26:10.840">
   <property name="kdenlive:id">2</property>
  </entry>
  <entry producer="producer4" in="00:26:11.440" out="00:26:13.160">
   <property name="kdenlive:id">2</property>
  </entry>
  <entry producer="producer4" in="00:26:13.760" out="00:26:17.560">
   <property name="kdenlive:id">2</property>
  </entry>
  <entry producer="producer4" in="00:26:18.520" out="00:26:19.920">
   <property name="kdenlive:id">2</property>
  </entry>
  <entry producer="producer4" in="00:26:20.680" out="00:26:22.920">
   <property name="kdenlive:id">2</property>
  </entry>
  <entry producer="producer4" in="00:26:24.000" out="00:26:35.440">
   <property name="kdenlive:id">2</property>
  </entry>
  <entry producer="producer4" in="00:26:35.720" out="00:26:36.280">
   <property name="kdenlive:id">2</property>
  </entry>
  <entry producer="producer4" in="00:26:36.600" out="00:26:37.560">
   <property name="kdenlive:id">2</property>
  </entry>
  <entry producer="producer4" in="00:26:40.040" out="00:26:40.760">
   <property name="kdenlive:id">2</property>
  </entry>
  <entry producer="producer4" in="00:26:41.080" out="00:26:42.080">
   <property name="kdenlive:id">2</property>
  </entry>
  <entry producer="producer4" in="00:26:42.240" out="00:26:45.760">
   <property name="kdenlive:id">2</property>
  </entry>
  <entry producer="producer4" in="00:26:47.000" out="00:26:48.200">
   <property name="kdenlive:id">2</property>
  </entry>
  <entry producer="producer4" in="00:26:48.720" out="00:26:51.000">
   <property name="kdenlive:id">2</property>
  </entry>
  <entry producer="producer4" in="00:26:51.480" out="00:26:53.640">
   <property name="kdenlive:id">2</property>
  </entry>
  <entry producer="producer4" in="00:26:58.960" out="00:27:00.280">
   <property name="kdenlive:id">2</property>
  </entry>
  <entry producer="producer4" in="00:27:00.960" out="00:27:03.920">
   <property name="kdenlive:id">2</property>
  </entry>
  <entry producer="producer4" in="00:27:04.560" out="00:27:05.680">
   <property name="kdenlive:id">2</property>
  </entry>
  <entry producer="producer4" in="00:27:07.640" out="00:27:09.040">
   <property name="kdenlive:id">2</property>
  </entry>
  <entry producer="producer4" in="00:27:09.560" out="00:27:10.080">
   <property name="kdenlive:id">2</property>
  </entry>
  <entry producer="producer4" in="00:27:14.000" out="00:27:16.280">
   <property name="kdenlive:id">2</property>
  </entry>
  <entry producer="producer4" in="00:27:21.160" out="00:27:22.840">
   <property name="kdenlive:id">2</property>
  </entry>
  <entry producer="producer4" in="00:27:23.480" out="00:27:24.200">
   <property name="kdenlive:id">2</property>
  </entry>
  <entry producer="producer4" in="00:27:27.440" out="00:27:28.720">
   <property name="kdenlive:id">2</property>
  </entry>
  <entry producer="producer4" in="00:27:31.000" out="00:27:33.040">
   <property name="kdenlive:id">2</property>
  </entry>
  <entry producer="producer4" in="00:27:36.160" out="00:27:38.640">
   <property name="kdenlive:id">2</property>
  </entry>
  <entry producer="producer4" in="00:27:39.960" out="00:27:41.520">
   <property name="kdenlive:id">2</property>
  </entry>
  <entry producer="producer4" in="00:27:44.040" out="00:27:45.520">
   <property name="kdenlive:id">2</property>
  </entry>
  <entry producer="producer4" in="00:27:45.960" out="00:27:47.680">
   <property name="kdenlive:id">2</property>
  </entry>
  <entry producer="producer4" in="00:27:48.520" out="00:27:56.560">
   <property name="kdenlive:id">2</property>
  </entry>
  <entry producer="producer4" in="00:27:59.320" out="00:28:01.760">
   <property name="kdenlive:id">2</property>
  </entry>
  <entry producer="producer4" in="00:28:02.600" out="00:28:03.200">
   <property name="kdenlive:id">2</property>
  </entry>
  <entry producer="producer4" in="00:28:07.880" out="00:28:18.440">
   <property name="kdenlive:id">2</property>
  </entry>
  <entry producer="producer4" in="00:28:19.160" out="00:28:19.880">
   <property name="kdenlive:id">2</property>
  </entry>
  <entry producer="producer4" in="00:28:20.520" out="00:28:22.680">
   <property name="kdenlive:id">2</property>
  </entry>
  <entry producer="producer4" in="00:28:26.600" out="00:28:27.160">
   <property name="kdenlive:id">2</property>
  </entry>
  <entry producer="producer4" in="00:28:28.040" out="00:28:29.960">
   <property name="kdenlive:id">2</property>
  </entry>
  <entry producer="producer4" in="00:28:30.600" out="00:28:31.560">
   <property name="kdenlive:id">2</property>
  </entry>
  <entry producer="producer4" in="00:28:32.240" out="00:28:33.800">
   <property name="kdenlive:id">2</property>
  </entry>
  <entry producer="producer4" in="00:28:34.080" out="00:28:35.520">
   <property name="kdenlive:id">2</property>
  </entry>
  <entry producer="producer4" in="00:28:51.480" out="00:28:53.400">
   <property name="kdenlive:id">2</property>
  </entry>
  <entry producer="producer4" in="00:28:53.640" out="00:28:54.000">
   <property name="kdenlive:id">2</property>
  </entry>
  <entry producer="producer4" in="00:28:54.560" out="00:28:56.160">
   <property name="kdenlive:id">2</property>
  </entry>
  <entry producer="producer4" in="00:29:01.120" out="00:29:08.960">
   <property name="kdenlive:id">2</property>
  </entry>
  <entry producer="producer4" in="00:29:09.680" out="00:29:10.000">
   <property name="kdenlive:id">2</property>
  </entry>
  <entry producer="producer4" in="00:29:11.360" out="00:29:14.600">
   <property name="kdenlive:id">2</property>
  </entry>
  <entry producer="producer4" in="00:29:15.120" out="00:29:16.000">
   <property name="kdenlive:id">2</property>
  </entry>
  <entry producer="producer4" in="00:29:16.640" out="00:29:19.200">
   <property name="kdenlive:id">2</property>
  </entry>
  <entry producer="producer4" in="00:29:20.880" out="00:29:23.000">
   <property name="kdenlive:id">2</property>
  </entry>
  <entry producer="producer4" in="00:29:23.920" out="00:29:25.440">
   <property name="kdenlive:id">2</property>
  </entry>
  <entry producer="producer4" in="00:29:25.680" out="00:29:26.800">
   <property name="kdenlive:id">2</property>
  </entry>
  <entry producer="producer4" in="00:29:27.960" out="00:29:28.400">
   <property name="kdenlive:id">2</property>
  </entry>
  <entry producer="producer4" in="00:29:29.840" out="00:29:30.520">
   <property name="kdenlive:id">2</property>
  </entry>
  <entry producer="producer4" in="00:29:32.800" out="00:29:34.600">
   <property name="kdenlive:id">2</property>
  </entry>
  <entry producer="producer4" in="00:29:36.400" out="00:30:01.520">
   <property name="kdenlive:id">2</property>
  </entry>
  <entry producer="producer4" in="00:30:05.040" out="00:30:10.160">
   <property name="kdenlive:id">2</property>
  </entry>
  <entry producer="producer4" in="00:30:11.200" out="00:30:13.880">
   <property name="kdenlive:id">2</property>
  </entry>
  <entry producer="producer4" in="00:30:14.360" out="00:30:14.880">
   <property name="kdenlive:id">2</property>
  </entry>
  <entry producer="producer4" in="00:30:15.840" out="00:30:16.720">
   <property name="kdenlive:id">2</property>
  </entry>
  <entry producer="producer4" in="00:30:23.040" out="00:31:04.720">
   <property name="kdenlive:id">2</property>
  </entry>
  <entry producer="producer4" in="00:31:05.840" out="00:31:15.040">
   <property name="kdenlive:id">2</property>
  </entry>
  <entry producer="producer4" in="00:31:16.920" out="00:31:18.160">
   <property name="kdenlive:id">2</property>
  </entry>
  <entry producer="producer4" in="00:31:19.080" out="00:31:35.760">
   <property name="kdenlive:id">2</property>
  </entry>
  <entry producer="producer4" in="00:31:37.720" out="00:31:38.800">
   <property name="kdenlive:id">2</property>
  </entry>
  <entry producer="producer4" in="00:31:39.600" out="00:31:41.200">
   <property name="kdenlive:id">2</property>
  </entry>
  <entry producer="producer4" in="00:31:41.640" out="00:31:43.040">
   <property name="kdenlive:id">2</property>
  </entry>
  <entry producer="producer4" in="00:31:44.360" out="00:31:45.720">
   <property name="kdenlive:id">2</property>
  </entry>
  <entry producer="producer4" in="00:31:46.360" out="00:31:49.720">
   <property name="kdenlive:id">2</property>
  </entry>
  <entry producer="producer4" in="00:31:50.520" out="00:31:57.520">
   <property name="kdenlive:id">2</property>
  </entry>
  <entry producer="producer4" in="00:31:58.720" out="00:32:00.400">
   <property name="kdenlive:id">2</property>
  </entry>
  <entry producer="producer4" in="00:32:03.560" out="00:32:04.200">
   <property name="kdenlive:id">2</property>
  </entry>
  <entry producer="producer4" in="00:32:06.160" out="00:32:08.760">
   <property name="kdenlive:id">2</property>
  </entry>
  <entry producer="producer4" in="00:32:12.600" out="00:32:14.080">
   <property name="kdenlive:id">2</property>
  </entry>
  <entry producer="producer4" in="00:32:14.720" out="00:32:14.880">
   <property name="kdenlive:id">2</property>
  </entry>
  <entry producer="producer4" in="00:32:15.600" out="00:32:55.120">
   <property name="kdenlive:id">2</property>
  </entry>
  <entry producer="producer4" in="00:32:55.840" out="00:32:59.840">
   <property name="kdenlive:id">2</property>
  </entry>
  <entry producer="producer4" in="00:33:00.240" out="00:33:03.880">
   <property name="kdenlive:id">2</property>
  </entry>
  <entry producer="producer4" in="00:33:05.240" out="00:33:05.760">
   <property name="kdenlive:id">2</property>
  </entry>
  <entry producer="producer4" in="00:33:06.160" out="00:33:07.760">
   <property name="kdenlive:id">2</property>
  </entry>
  <entry producer="producer4" in="00:33:09.360" out="00:33:10.840">
   <property name="kdenlive:id">2</property>
  </entry>
  <entry producer="producer4" in="00:33:11.360" out="00:33:13.360">
   <property name="kdenlive:id">2</property>
  </entry>
  <entry producer="producer4" in="00:33:17.440" out="00:33:18.560">
   <property name="kdenlive:id">2</property>
  </entry>
  <entry producer="producer4" in="00:33:21.720" out="00:33:22.920">
   <property name="kdenlive:id">2</property>
  </entry>
  <entry producer="producer4" in="00:33:23.280" out="00:33:25.160">
   <property name="kdenlive:id">2</property>
  </entry>
  <entry producer="producer4" in="00:33:26.840" out="00:33:27.640">
   <property name="kdenlive:id">2</property>
  </entry>
  <entry producer="producer4" in="00:33:28.040" out="00:33:28.800">
   <property name="kdenlive:id">2</property>
  </entry>
  <entry producer="producer4" in="00:33:35.520" out="00:33:35.880">
   <property name="kdenlive:id">2</property>
  </entry>
  <entry producer="producer4" in="00:33:36.760" out="00:33:37.360">
   <property name="kdenlive:id">2</property>
  </entry>
  <entry producer="producer4" in="00:33:41.360" out="00:33:41.680">
   <property name="kdenlive:id">2</property>
  </entry>
  <entry producer="producer4" in="00:33:44.080" out="00:33:44.640">
   <property name="kdenlive:id">2</property>
  </entry>
  <entry producer="producer4" in="00:33:44.880" out="00:33:46.680">
   <property name="kdenlive:id">2</property>
  </entry>
  <entry producer="producer4" in="00:33:47.080" out="00:33:47.760">
   <property name="kdenlive:id">2</property>
  </entry>
  <entry producer="producer4" in="00:33:50.720" out="00:33:55.320">
   <property name="kdenlive:id">2</property>
  </entry>
  <entry producer="producer4" in="00:33:56.400" out="00:34:15.120">
   <property name="kdenlive:id">2</property>
  </entry>
  <entry producer="producer4" in="00:34:15.520" out="00:34:16.240">
   <property name="kdenlive:id">2</property>
  </entry>
  <entry producer="producer4" in="00:34:16.920" out="00:34:25.640">
   <property name="kdenlive:id">2</property>
  </entry>
  <entry producer="producer4" in="00:34:35.360" out="00:34:37.200">
   <property name="kdenlive:id">2</property>
  </entry>
  <entry producer="producer4" in="00:34:39.400" out="00:34:41.680">
   <property name="kdenlive:id">2</property>
  </entry>
  <entry producer="producer4" in="00:34:43.080" out="00:34:57.960">
   <property name="kdenlive:id">2</property>
  </entry>
  <entry producer="producer4" in="00:35:00.120" out="00:35:05.960">
   <property name="kdenlive:id">2</property>
  </entry>
  <entry producer="producer4" in="00:35:08.680" out="00:35:10.400">
   <property name="kdenlive:id">2</property>
  </entry>
  <entry producer="producer4" in="00:35:11.200" out="00:35:12.920">
   <property name="kdenlive:id">2</property>
  </entry>
  <entry producer="producer4" in="00:35:13.360" out="00:35:16.560">
   <property name="kdenlive:id">2</property>
  </entry>
  <entry producer="producer4" in="00:35:20.560" out="00:35:25.440">
   <property name="kdenlive:id">2</property>
  </entry>
  <entry producer="producer4" in="00:35:27.240" out="00:35:31.720">
   <property name="kdenlive:id">2</property>
  </entry>
  <entry producer="producer4" in="00:35:36.240" out="00:35:37.720">
   <property name="kdenlive:id">2</property>
  </entry>
  <entry producer="producer4" in="00:35:38.560" out="00:35:40.600">
   <property name="kdenlive:id">2</property>
  </entry>
  <entry producer="producer4" in="00:35:41.800" out="00:35:42.720">
   <property name="kdenlive:id">2</property>
  </entry>
  <entry producer="producer4" in="00:35:45.360" out="00:35:55.840">
   <property name="kdenlive:id">2</property>
  </entry>
  <entry producer="producer4" in="00:35:56.800" out="00:36:01.240">
   <property name="kdenlive:id">2</property>
  </entry>
  <entry producer="producer4" in="00:36:01.280" out="00:36:01.760">
   <property name="kdenlive:id">2</property>
  </entry>
  <entry producer="producer4" in="00:36:02.600" out="00:36:03.760">
   <property name="kdenlive:id">2</property>
  </entry>
  <entry producer="producer4" in="00:36:04.240" out="00:36:17.920">
   <property name="kdenlive:id">2</property>
  </entry>
  <entry producer="producer4" in="00:36:24.240" out="00:36:48.600">
   <property name="kdenlive:id">2</property>
  </entry>
  <entry producer="producer4" in="00:36:50.480" out="00:36:52.160">
   <property name="kdenlive:id">2</property>
  </entry>
  <entry producer="producer4" in="00:36:52.600" out="00:36:53.000">
   <property name="kdenlive:id">2</property>
  </entry>
  <entry producer="producer4" in="00:36:53.800" out="00:36:54.360">
   <property name="kdenlive:id">2</property>
  </entry>
  <entry producer="producer4" in="00:36:59.400" out="00:37:09.360">
   <property name="kdenlive:id">2</property>
  </entry>
  <entry producer="producer4" in="00:37:13.120" out="00:37:15.200">
   <property name="kdenlive:id">2</property>
  </entry>
  <entry producer="producer4" in="00:37:16.840" out="00:37:42.600">
   <property name="kdenlive:id">2</property>
  </entry>
  <entry producer="producer4" in="00:37:45.080" out="00:38:12.160">
   <property name="kdenlive:id">2</property>
  </entry>
  <entry producer="producer4" in="00:38:16.440" out="00:38:19.040">
   <property name="kdenlive:id">2</property>
  </entry>
  <entry producer="producer4" in="00:38:19.680" out="00:38:42.160">
   <property name="kdenlive:id">2</property>
  </entry>
  <entry producer="producer4" in="00:38:42.560" out="00:38:44.280">
   <property name="kdenlive:id">2</property>
  </entry>
  <entry producer="producer4" in="00:38:45.200" out="00:38:45.560">
   <property name="kdenlive:id">2</property>
  </entry>
  <entry producer="producer4" in="00:38:47.560" out="00:38:49.240">
   <property name="kdenlive:id">2</property>
  </entry>
  <entry producer="producer4" in="00:38:52.160" out="00:38:53.160">
   <property name="kdenlive:id">2</property>
  </entry>
  <entry producer="producer4" in="00:38:58.440" out="00:39:29.360">
   <property name="kdenlive:id">2</property>
  </entry>
  <entry producer="producer4" in="00:39:30.240" out="00:39:36.440">
   <property name="kdenlive:id">2</property>
  </entry>
  <entry producer="producer4" in="00:39:41.840" out="00:39:47.560">
   <property name="kdenlive:id">2</property>
  </entry>
  <entry producer="producer4" in="00:39:53.920" out="00:39:56.080">
   <property name="kdenlive:id">2</property>
  </entry>
  <entry producer="producer4" in="00:39:59.360" out="00:40:00.520">
   <property name="kdenlive:id">2</property>
  </entry>
  <entry producer="producer4" in="00:40:01.680" out="00:40:28.720">
   <property name="kdenlive:id">2</property>
  </entry>
  <entry producer="producer4" in="00:40:30.040" out="00:40:31.880">
   <property name="kdenlive:id">2</property>
  </entry>
  <entry producer="producer4" in="00:40:33.000" out="00:40:34.920">
   <property name="kdenlive:id">2</property>
  </entry>
  <entry producer="producer4" in="00:40:35.320" out="00:40:40.760">
   <property name="kdenlive:id">2</property>
  </entry>
  <entry producer="producer4" in="00:40:42.920" out="00:40:57.400">
   <property name="kdenlive:id">2</property>
  </entry>
  <entry producer="producer4" in="00:40:57.880" out="00:40:58.840">
   <property name="kdenlive:id">2</property>
  </entry>
  <entry producer="producer4" in="00:40:59.400" out="00:41:15.200">
   <property name="kdenlive:id">2</property>
  </entry>
  <entry producer="producer4" in="00:41:19.160" out="00:41:20.080">
   <property name="kdenlive:id">2</property>
  </entry>
  <entry producer="producer4" in="00:41:23.160" out="00:41:26.440">
   <property name="kdenlive:id">2</property>
  </entry>
  <entry producer="producer4" in="00:41:31.680" out="00:41:53.360">
   <property name="kdenlive:id">2</property>
  </entry>
  <entry producer="producer4" in="00:41:54.600" out="00:41:57.440">
   <property name="kdenlive:id">2</property>
  </entry>
  <entry producer="producer4" in="00:41:57.880" out="00:41:58.520">
   <property name="kdenlive:id">2</property>
  </entry>
  <entry producer="producer4" in="00:42:00.040" out="00:42:03.480">
   <property name="kdenlive:id">2</property>
  </entry>
  <entry producer="producer4" in="00:42:05.320" out="00:42:09.040">
   <property name="kdenlive:id">2</property>
  </entry>
  <entry producer="producer4" in="00:42:09.520" out="00:42:14.320">
   <property name="kdenlive:id">2</property>
  </entry>
  <entry producer="producer4" in="00:42:17.160" out="00:42:21.800">
   <property name="kdenlive:id">2</property>
  </entry>
  <entry producer="producer4" in="00:42:27.240" out="00:42:33.560">
   <property name="kdenlive:id">2</property>
  </entry>
  <entry producer="producer4" in="00:42:36.080" out="00:42:39.640">
   <property name="kdenlive:id">2</property>
  </entry>
  <entry producer="producer4" in="00:42:41.640" out="00:42:41.840">
   <property name="kdenlive:id">2</property>
  </entry>
  <entry producer="producer4" in="00:42:42.720" out="00:42:43.880">
   <property name="kdenlive:id">2</property>
  </entry>
  <entry producer="producer4" in="00:42:45.440" out="00:42:47.280">
   <property name="kdenlive:id">2</property>
  </entry>
  <entry producer="producer4" in="00:42:47.880" out="00:42:51.520">
   <property name="kdenlive:id">2</property>
  </entry>
  <entry producer="producer4" in="00:42:54.000" out="00:42:56.680">
   <property name="kdenlive:id">2</property>
  </entry>
  <entry producer="producer4" in="00:42:58.160" out="00:43:01.040">
   <property name="kdenlive:id">2</property>
  </entry>
  <entry producer="producer4" in="00:43:01.760" out="00:43:05.240">
   <property name="kdenlive:id">2</property>
  </entry>
  <entry producer="producer4" in="00:43:06.720" out="00:43:09.480">
   <property name="kdenlive:id">2</property>
  </entry>
  <entry producer="producer4" in="00:43:10.480" out="00:43:12.000">
   <property name="kdenlive:id">2</property>
  </entry>
  <entry producer="producer4" in="00:43:19.000" out="00:43:24.720">
   <property name="kdenlive:id">2</property>
  </entry>
  <entry producer="producer4" in="00:43:25.240" out="00:44:13.560">
   <property name="kdenlive:id">2</property>
  </entry>
  <filter id="filter3">
   <property name="window">75</property>
   <property name="max_gain">20dB</property>
   <property name="mlt_service">volume</property>
   <property name="internal_added">237</property>
   <property name="disable">1</property>
  </filter>
  <filter id="filter4">
   <property name="channel">-1</property>
   <property name="mlt_service">panner</property>
   <property name="internal_added">237</property>
   <property name="start">0.5</property>
   <property name="disable">1</property>
  </filter>
 </playlist>
 <playlist id="playlist3"/>
 <tractor id="tractor1" in="00:00:00.000" out="00:31:02.440">
  <property name="kdenlive:audio_track">1</property>
  <property name="kdenlive:trackheight">69</property>
  <property name="kdenlive:collapsed">0</property>
  <property name="kdenlive:thumbs_format"/>
  <property name="kdenlive:audio_rec"/>
  <property name="kdenlive:timeline_active">1</property>
  <track hide="video" producer="playlist2"/>
  <track hide="both" producer="playlist3"/>
  <filter id="filter5">
   <property name="iec_scale">0</property>
   <property name="mlt_service">audiolevel</property>
   <property name="disable">1</property>
  </filter>
 </tractor>
 <producer id="producer5" in="00:00:00.000" out="00:44:13.560">
  <property name="length">66340</property>
  <property name="eof">pause</property>
  <property name="resource">mov/34c3-9135-eng-deu-ASLR_on_the_line_hd.mp4</property>
  <property name="audio_index">2</property>
  <property name="video_index">0</property>
  <property name="mute_on_pause">0</property>
  <property name="mlt_service">avformat-novalidate</property>
  <property name="seekable">1</property>
  <property name="aspect_ratio">1</property>
  <property name="kdenlive:clipname"/>
  <property name="global_feed">1</property>
  <property name="kdenlive:folderid">-1</property>
  <property name="kdenlive:id">2</property>
  <property name="kdenlive:active_streams">2;3</property>
  <property name="kdenlive:file_size">233485279</property>
  <property name="kdenlive:file_hash">40fa9e0453e0ee38fcc4028947ab14b4</property>
  <property name="xml">was here</property>
  <property name="meta.media.nb_streams">4</property>
  <property name="meta.media.0.stream.type">video</property>
  <property name="meta.media.0.stream.frame_rate">25</property>
  <property name="meta.media.0.stream.sample_aspect_ratio">0</property>
  <property name="meta.media.0.codec.width">1920</property>
  <property name="meta.media.0.codec.height">1080</property>
  <property name="meta.media.0.codec.rotate">0</property>
  <property name="meta.media.0.codec.frame_rate">25</property>
  <property name="meta.media.0.codec.pix_fmt">yuv420p</property>
  <property name="meta.media.0.codec.sample_aspect_ratio">1</property>
  <property name="meta.media.0.codec.colorspace">709</property>
  <property name="meta.media.0.codec.name">h264</property>
  <property name="meta.media.0.codec.long_name">H.264 / AVC / MPEG-4 AVC / MPEG-4 part 10</property>
  <property name="meta.media.0.codec.bit_rate">333349</property>
  <property name="meta.attr.0.stream.handler_name.markup">VideoHandler</property>
  <property name="meta.media.1.stream.type">video</property>
  <property name="meta.media.1.stream.frame_rate">25</property>
  <property name="meta.media.1.stream.sample_aspect_ratio">0</property>
  <property name="meta.media.1.codec.width">1920</property>
  <property name="meta.media.1.codec.height">1080</property>
  <property name="meta.media.1.codec.rotate">0</property>
  <property name="meta.media.1.codec.frame_rate">25</property>
  <property name="meta.media.1.codec.pix_fmt">yuv420p</property>
  <property name="meta.media.1.codec.sample_aspect_ratio">1</property>
  <property name="meta.media.1.codec.colorspace">709</property>
  <property name="meta.media.1.codec.name">h264</property>
  <property name="meta.media.1.codec.long_name">H.264 / AVC / MPEG-4 AVC / MPEG-4 part 10</property>
  <property name="meta.media.1.codec.bit_rate">102162</property>
  <property name="meta.attr.1.stream.handler_name.markup">VideoHandler</property>
  <property name="meta.media.2.stream.type">audio</property>
  <property name="meta.media.2.codec.sample_fmt">fltp</property>
  <property name="meta.media.2.codec.sample_rate">48000</property>
  <property name="meta.media.2.codec.channels">2</property>
  <property name="meta.media.2.codec.name">aac</property>
  <property name="meta.media.2.codec.long_name">AAC (Advanced Audio Coding)</property>
  <property name="meta.media.2.codec.bit_rate">127998</property>
  <property name="meta.attr.2.stream.language.markup">eng</property>
  <property name="meta.attr.2.stream.handler_name.markup">SoundHandler</property>
  <property name="meta.media.3.stream.type">audio</property>
  <property name="meta.media.3.codec.sample_fmt">fltp</property>
  <property name="meta.media.3.codec.sample_rate">48000</property>
  <property name="meta.media.3.codec.channels">2</property>
  <property name="meta.media.3.codec.name">aac</property>
  <property name="meta.media.3.codec.long_name">AAC (Advanced Audio Coding)</property>
  <property name="meta.media.3.codec.bit_rate">127998</property>
  <property name="meta.attr.3.stream.language.markup">deu</property>
  <property name="meta.attr.3.stream.handler_name.markup">SoundHandler</property>
  <property name="meta.attr.major_brand.markup">isom</property>
  <property name="meta.attr.minor_version.markup">512</property>
  <property name="meta.attr.compatible_brands.markup">isomiso2avc1mp41</property>
  <property name="meta.attr.title.markup">ASLR on the line</property>
  <property name="meta.attr.artist.markup">brainsmoke</property>
  <property name="meta.attr.album.markup">34th Chaos Communication Congress</property>
  <property name="meta.attr.encoder.markup">Lavf56.40.101</property>
  <property name="meta.attr.genre.markup">lecture</property>
  <property name="meta.attr.copyright.markup">Licensed to the public under https://creativecommons.org/licenses/by/4.0/</property>
  <property name="meta.attr.description.markup">Address Space Layout Randomization (ASLR) is fundamentally broken on modern hardware due to a side-channel attack on the Memory management unit, allowing memory addresses to be leaked from JavaScript.  This talk will show how.</property>
  <property name="meta.media.sample_aspect_num">1</property>
  <property name="meta.media.sample_aspect_den">1</property>
  <property name="meta.media.frame_rate_num">25</property>
  <property name="meta.media.frame_rate_den">1</property>
  <property name="meta.media.colorspace">709</property>
  <property name="meta.media.color_trc">2</property>
  <property name="meta.media.width">1920</property>
  <property name="meta.media.height">1080</property>
  <property name="meta.media.color_range">mpeg</property>
  <property name="meta.media.top_field_first">0</property>
  <property name="meta.media.progressive">1</property>
  <property name="set.test_audio">1</property>
  <property name="set.test_image">0</property>
 </producer>
 <playlist id="playlist4">
  <entry producer="producer5" in="00:00:00.000" out="00:00:35.440">
   <property name="kdenlive:id">2</property>
  </entry>
  <entry producer="producer5" in="00:00:36.040" out="00:00:37.600">
   <property name="kdenlive:id">2</property>
  </entry>
  <entry producer="producer5" in="00:00:39.440" out="00:00:40.240">
   <property name="kdenlive:id">2</property>
  </entry>
  <entry producer="producer5" in="00:00:40.840" out="00:00:42.120">
   <property name="kdenlive:id">2</property>
  </entry>
  <entry producer="producer5" in="00:00:42.520" out="00:00:42.680">
   <property name="kdenlive:id">2</property>
  </entry>
  <entry producer="producer5" in="00:00:42.920" out="00:00:44.720">
   <property name="kdenlive:id">2</property>
  </entry>
  <entry producer="producer5" in="00:00:45.080" out="00:00:45.600">
   <property name="kdenlive:id">2</property>
  </entry>
  <entry producer="producer5" in="00:00:45.920" out="00:00:47.520">
   <property name="kdenlive:id">2</property>
  </entry>
  <entry producer="producer5" in="00:00:48.120" out="00:00:50.360">
   <property name="kdenlive:id">2</property>
  </entry>
  <entry producer="producer5" in="00:00:55.080" out="00:00:56.320">
   <property name="kdenlive:id">2</property>
  </entry>
  <entry producer="producer5" in="00:00:57.200" out="00:01:01.960">
   <property name="kdenlive:id">2</property>
  </entry>
  <entry producer="producer5" in="00:01:04.160" out="00:01:05.480">
   <property name="kdenlive:id">2</property>
  </entry>
  <entry producer="producer5" in="00:01:05.720" out="00:01:08.440">
   <property name="kdenlive:id">2</property>
  </entry>
  <entry producer="producer5" in="00:01:11.920" out="00:01:12.800">
   <property name="kdenlive:id">2</property>
  </entry>
  <entry producer="producer5" in="00:01:13.520" out="00:01:17.920">
   <property name="kdenlive:id">2</property>
  </entry>
  <entry producer="producer5" in="00:01:18.440" out="00:01:21.760">
   <property name="kdenlive:id">2</property>
  </entry>
  <entry producer="producer5" in="00:01:22.360" out="00:01:25.240">
   <property name="kdenlive:id">2</property>
  </entry>
  <entry producer="producer5" in="00:01:25.880" out="00:01:26.080">
   <property name="kdenlive:id">2</property>
  </entry>
  <entry producer="producer5" in="00:01:26.760" out="00:01:28.840">
   <property name="kdenlive:id">2</property>
  </entry>
  <entry producer="producer5" in="00:01:29.520" out="00:01:32.080">
   <property name="kdenlive:id">2</property>
  </entry>
  <entry producer="producer5" in="00:01:34.720" out="00:01:36.240">
   <property name="kdenlive:id">2</property>
  </entry>
  <entry producer="producer5" in="00:01:37.600" out="00:01:39.960">
   <property name="kdenlive:id">2</property>
  </entry>
  <entry producer="producer5" in="00:01:40.240" out="00:01:41.120">
   <property name="kdenlive:id">2</property>
  </entry>
  <entry producer="producer5" in="00:01:42.080" out="00:01:42.400">
   <property name="kdenlive:id">2</property>
  </entry>
  <entry producer="producer5" in="00:01:42.760" out="00:01:43.480">
   <property name="kdenlive:id">2</property>
  </entry>
  <entry producer="producer5" in="00:01:43.800" out="00:01:48.720">
   <property name="kdenlive:id">2</property>
  </entry>
  <entry producer="producer5" in="00:01:49.040" out="00:01:50.880">
   <property name="kdenlive:id">2</property>
  </entry>
  <entry producer="producer5" in="00:01:51.440" out="00:01:53.440">
   <property name="kdenlive:id">2</property>
  </entry>
  <entry producer="producer5" in="00:01:54.760" out="00:01:56.600">
   <property name="kdenlive:id">2</property>
  </entry>
  <entry producer="producer5" in="00:01:58.960" out="00:02:00.400">
   <property name="kdenlive:id">2</property>
  </entry>
  <entry producer="producer5" in="00:02:01.360" out="00:02:02.320">
   <property name="kdenlive:id">2</property>
  </entry>
  <entry producer="producer5" in="00:02:04.440" out="00:02:05.360">
   <property name="kdenlive:id">2</property>
  </entry>
  <entry producer="producer5" in="00:02:05.840" out="00:02:07.880">
   <property name="kdenlive:id">2</property>
  </entry>
  <entry producer="producer5" in="00:02:08.120" out="00:02:09.080">
   <property name="kdenlive:id">2</property>
  </entry>
  <entry producer="producer5" in="00:02:09.640" out="00:02:10.960">
   <property name="kdenlive:id">2</property>
  </entry>
  <entry producer="producer5" in="00:02:11.840" out="00:02:12.680">
   <property name="kdenlive:id">2</property>
  </entry>
  <entry producer="producer5" in="00:02:14.120" out="00:02:16.080">
   <property name="kdenlive:id">2</property>
  </entry>
  <entry producer="producer5" in="00:02:16.720" out="00:02:18.720">
   <property name="kdenlive:id">2</property>
  </entry>
  <entry producer="producer5" in="00:02:19.200" out="00:02:20.680">
   <property name="kdenlive:id">2</property>
  </entry>
  <entry producer="producer5" in="00:02:21.880" out="00:02:22.920">
   <property name="kdenlive:id">2</property>
  </entry>
  <entry producer="producer5" in="00:02:23.840" out="00:02:26.280">
   <property name="kdenlive:id">2</property>
  </entry>
  <entry producer="producer5" in="00:02:29.080" out="00:02:31.120">
   <property name="kdenlive:id">2</property>
  </entry>
  <entry producer="producer5" in="00:02:31.400" out="00:02:33.000">
   <property name="kdenlive:id">2</property>
  </entry>
  <entry producer="producer5" in="00:02:34.120" out="00:02:36.080">
   <property name="kdenlive:id">2</property>
  </entry>
  <entry producer="producer5" in="00:02:36.440" out="00:02:37.520">
   <property name="kdenlive:id">2</property>
  </entry>
  <entry producer="producer5" in="00:02:38.840" out="00:02:40.720">
   <property name="kdenlive:id">2</property>
  </entry>
  <entry producer="producer5" in="00:02:41.880" out="00:02:42.960">
   <property name="kdenlive:id">2</property>
  </entry>
  <entry producer="producer5" in="00:02:43.600" out="00:02:44.120">
   <property name="kdenlive:id">2</property>
  </entry>
  <entry producer="producer5" in="00:02:44.600" out="00:02:45.120">
   <property name="kdenlive:id">2</property>
  </entry>
  <entry producer="producer5" in="00:02:46.040" out="00:02:47.640">
   <property name="kdenlive:id">2</property>
  </entry>
  <entry producer="producer5" in="00:02:50.080" out="00:02:51.040">
   <property name="kdenlive:id">2</property>
  </entry>
  <entry producer="producer5" in="00:02:51.960" out="00:02:53.240">
   <property name="kdenlive:id">2</property>
  </entry>
  <entry producer="producer5" in="00:02:53.640" out="00:02:56.480">
   <property name="kdenlive:id">2</property>
  </entry>
  <entry producer="producer5" in="00:03:00.400" out="00:03:01.960">
   <property name="kdenlive:id">2</property>
  </entry>
  <entry producer="producer5" in="00:03:03.520" out="00:03:10.760">
   <property name="kdenlive:id">2</property>
  </entry>
  <entry producer="producer5" in="00:03:11.600" out="00:03:12.760">
   <property name="kdenlive:id">2</property>
  </entry>
  <entry producer="producer5" in="00:03:13.000" out="00:03:17.040">
   <property name="kdenlive:id">2</property>
  </entry>
  <entry producer="producer5" in="00:03:18.160" out="00:03:18.720">
   <property name="kdenlive:id">2</property>
  </entry>
  <entry producer="producer5" in="00:03:19.240" out="00:03:19.920">
   <property name="kdenlive:id">2</property>
  </entry>
  <entry producer="producer5" in="00:03:20.200" out="00:03:20.920">
   <property name="kdenlive:id">2</property>
  </entry>
  <entry producer="producer5" in="00:03:21.280" out="00:03:21.600">
   <property name="kdenlive:id">2</property>
  </entry>
  <entry producer="producer5" in="00:03:22.080" out="00:03:27.560">
   <property name="kdenlive:id">2</property>
  </entry>
  <entry producer="producer5" in="00:03:28.160" out="00:03:32.560">
   <property name="kdenlive:id">2</property>
  </entry>
  <entry producer="producer5" in="00:03:33.360" out="00:03:34.960">
   <property name="kdenlive:id">2</property>
  </entry>
  <entry producer="producer5" in="00:03:36.920" out="00:03:47.160">
   <property name="kdenlive:id">2</property>
  </entry>
  <entry producer="producer5" in="00:03:47.680" out="00:03:54.160">
   <property name="kdenlive:id">2</property>
  </entry>
  <entry producer="producer5" in="00:03:56.120" out="00:03:58.680">
   <property name="kdenlive:id">2</property>
  </entry>
  <entry producer="producer5" in="00:04:00.440" out="00:04:06.440">
   <property name="kdenlive:id">2</property>
  </entry>
  <entry producer="producer5" in="00:04:06.840" out="00:04:09.080">
   <property name="kdenlive:id">2</property>
  </entry>
  <entry producer="producer5" in="00:04:11.000" out="00:04:11.920">
   <property name="kdenlive:id">2</property>
  </entry>
  <entry producer="producer5" in="00:04:12.480" out="00:04:12.920">
   <property name="kdenlive:id">2</property>
  </entry>
  <entry producer="producer5" in="00:04:13.200" out="00:04:16.080">
   <property name="kdenlive:id">2</property>
  </entry>
  <entry producer="producer5" in="00:04:16.840" out="00:04:17.280">
   <property name="kdenlive:id">2</property>
  </entry>
  <entry producer="producer5" in="00:04:22.400" out="00:04:30.920">
   <property name="kdenlive:id">2</property>
  </entry>
  <entry producer="producer5" in="00:04:32.280" out="00:04:39.520">
   <property name="kdenlive:id">2</property>
  </entry>
  <entry producer="producer5" in="00:04:40.000" out="00:04:40.640">
   <property name="kdenlive:id">2</property>
  </entry>
  <entry producer="producer5" in="00:04:41.480" out="00:04:42.760">
   <property name="kdenlive:id">2</property>
  </entry>
  <entry producer="producer5" in="00:04:43.200" out="00:04:44.800">
   <property name="kdenlive:id">2</property>
  </entry>
  <entry producer="producer5" in="00:04:47.120" out="00:04:51.760">
   <property name="kdenlive:id">2</property>
  </entry>
  <entry producer="producer5" in="00:04:52.800" out="00:04:53.800">
   <property name="kdenlive:id">2</property>
  </entry>
  <entry producer="producer5" in="00:04:54.600" out="00:04:58.960">
   <property name="kdenlive:id">2</property>
  </entry>
  <entry producer="producer5" in="00:04:59.320" out="00:05:01.280">
   <property name="kdenlive:id">2</property>
  </entry>
  <entry producer="producer5" in="00:05:02.160" out="00:05:03.800">
   <property name="kdenlive:id">2</property>
  </entry>
  <entry producer="producer5" in="00:05:04.720" out="00:05:05.800">
   <property name="kdenlive:id">2</property>
  </entry>
  <entry producer="producer5" in="00:05:09.320" out="00:05:12.840">
   <property name="kdenlive:id">2</property>
  </entry>
  <entry producer="producer5" in="00:05:13.240" out="00:05:15.720">
   <property name="kdenlive:id">2</property>
  </entry>
  <entry producer="producer5" in="00:05:21.640" out="00:05:23.360">
   <property name="kdenlive:id">2</property>
  </entry>
  <entry producer="producer5" in="00:05:25.600" out="00:05:28.920">
   <property name="kdenlive:id">2</property>
  </entry>
  <entry producer="producer5" in="00:05:31.480" out="00:05:36.120">
   <property name="kdenlive:id">2</property>
  </entry>
  <entry producer="producer5" in="00:05:36.400" out="00:05:37.480">
   <property name="kdenlive:id">2</property>
  </entry>
  <entry producer="producer5" in="00:05:40.280" out="00:05:41.200">
   <property name="kdenlive:id">2</property>
  </entry>
  <entry producer="producer5" in="00:05:41.480" out="00:05:44.240">
   <property name="kdenlive:id">2</property>
  </entry>
  <entry producer="producer5" in="00:05:48.000" out="00:05:52.400">
   <property name="kdenlive:id">2</property>
  </entry>
  <entry producer="producer5" in="00:05:53.280" out="00:05:58.840">
   <property name="kdenlive:id">2</property>
  </entry>
  <entry producer="producer5" in="00:05:59.360" out="00:06:01.720">
   <property name="kdenlive:id">2</property>
  </entry>
  <entry producer="producer5" in="00:06:07.840" out="00:06:09.320">
   <property name="kdenlive:id">2</property>
  </entry>
  <entry producer="producer5" in="00:06:12.040" out="00:06:17.440">
   <property name="kdenlive:id">2</property>
  </entry>
  <entry producer="producer5" in="00:06:18.400" out="00:06:20.920">
   <property name="kdenlive:id">2</property>
  </entry>
  <entry producer="producer5" in="00:06:21.600" out="00:06:23.240">
   <property name="kdenlive:id">2</property>
  </entry>
  <entry producer="producer5" in="00:06:25.560" out="00:06:28.200">
   <property name="kdenlive:id">2</property>
  </entry>
  <entry producer="producer5" in="00:06:28.960" out="00:06:29.440">
   <property name="kdenlive:id">2</property>
  </entry>
  <entry producer="producer5" in="00:06:34.080" out="00:06:36.720">
   <property name="kdenlive:id">2</property>
  </entry>
  <entry producer="producer5" in="00:06:40.920" out="00:06:42.000">
   <property name="kdenlive:id">2</property>
  </entry>
  <entry producer="producer5" in="00:06:42.520" out="00:06:42.960">
   <property name="kdenlive:id">2</property>
  </entry>
  <entry producer="producer5" in="00:06:43.000" out="00:06:46.760">
   <property name="kdenlive:id">2</property>
  </entry>
  <entry producer="producer5" in="00:06:47.840" out="00:06:48.320">
   <property name="kdenlive:id">2</property>
  </entry>
  <entry producer="producer5" in="00:06:48.640" out="00:06:50.520">
   <property name="kdenlive:id">2</property>
  </entry>
  <entry producer="producer5" in="00:06:51.200" out="00:06:51.920">
   <property name="kdenlive:id">2</property>
  </entry>
  <entry producer="producer5" in="00:06:52.960" out="00:06:54.240">
   <property name="kdenlive:id">2</property>
  </entry>
  <entry producer="producer5" in="00:06:56.080" out="00:06:56.680">
   <property name="kdenlive:id">2</property>
  </entry>
  <entry producer="producer5" in="00:06:57.280" out="00:07:00.560">
   <property name="kdenlive:id">2</property>
  </entry>
  <entry producer="producer5" in="00:07:02.040" out="00:07:04.360">
   <property name="kdenlive:id">2</property>
  </entry>
  <entry producer="producer5" in="00:07:04.640" out="00:07:05.680">
   <property name="kdenlive:id">2</property>
  </entry>
  <entry producer="producer5" in="00:07:06.040" out="00:07:07.040">
   <property name="kdenlive:id">2</property>
  </entry>
  <entry producer="producer5" in="00:07:11.120" out="00:07:13.400">
   <property name="kdenlive:id">2</property>
  </entry>
  <entry producer="producer5" in="00:07:14.520" out="00:07:18.720">
   <property name="kdenlive:id">2</property>
  </entry>
  <entry producer="producer5" in="00:07:19.520" out="00:07:21.960">
   <property name="kdenlive:id">2</property>
  </entry>
  <entry producer="producer5" in="00:07:22.440" out="00:07:23.520">
   <property name="kdenlive:id">2</property>
  </entry>
  <entry producer="producer5" in="00:07:24.080" out="00:07:25.600">
   <property name="kdenlive:id">2</property>
  </entry>
  <entry producer="producer5" in="00:07:25.960" out="00:07:27.160">
   <property name="kdenlive:id">2</property>
  </entry>
  <entry producer="producer5" in="00:07:28.880" out="00:07:33.560">
   <property name="kdenlive:id">2</property>
  </entry>
  <entry producer="producer5" in="00:07:35.120" out="00:07:36.320">
   <property name="kdenlive:id">2</property>
  </entry>
  <entry producer="producer5" in="00:07:36.760" out="00:07:37.760">
   <property name="kdenlive:id">2</property>
  </entry>
  <entry producer="producer5" in="00:07:39.840" out="00:07:42.360">
   <property name="kdenlive:id">2</property>
  </entry>
  <entry producer="producer5" in="00:07:43.560" out="00:07:59.000">
   <property name="kdenlive:id">2</property>
  </entry>
  <entry producer="producer5" in="00:08:02.760" out="00:08:04.760">
   <property name="kdenlive:id">2</property>
  </entry>
  <entry producer="producer5" in="00:08:05.280" out="00:08:07.240">
   <property name="kdenlive:id">2</property>
  </entry>
  <entry producer="producer5" in="00:08:12.760" out="00:08:17.320">
   <property name="kdenlive:id">2</property>
  </entry>
  <entry producer="producer5" in="00:08:17.640" out="00:08:23.000">
   <property name="kdenlive:id">2</property>
  </entry>
  <entry producer="producer5" in="00:08:23.640" out="00:08:24.520">
   <property name="kdenlive:id">2</property>
  </entry>
  <entry producer="producer5" in="00:08:25.080" out="00:08:29.160">
   <property name="kdenlive:id">2</property>
  </entry>
  <entry producer="producer5" in="00:08:30.320" out="00:08:32.880">
   <property name="kdenlive:id">2</property>
  </entry>
  <entry producer="producer5" in="00:08:33.640" out="00:08:37.080">
   <property name="kdenlive:id">2</property>
  </entry>
  <entry producer="producer5" in="00:08:38.680" out="00:08:40.640">
   <property name="kdenlive:id">2</property>
  </entry>
  <entry producer="producer5" in="00:08:42.400" out="00:08:53.920">
   <property name="kdenlive:id">2</property>
  </entry>
  <entry producer="producer5" in="00:09:00.120" out="00:09:01.720">
   <property name="kdenlive:id">2</property>
  </entry>
  <entry producer="producer5" in="00:09:02.280" out="00:09:02.800">
   <property name="kdenlive:id">2</property>
  </entry>
  <entry producer="producer5" in="00:09:03.040" out="00:09:03.520">
   <property name="kdenlive:id">2</property>
  </entry>
  <entry producer="producer5" in="00:09:03.880" out="00:09:04.600">
   <property name="kdenlive:id">2</property>
  </entry>
  <entry producer="producer5" in="00:09:07.440" out="00:09:07.880">
   <property name="kdenlive:id">2</property>
  </entry>
  <entry producer="producer5" in="00:09:10.200" out="00:09:15.320">
   <property name="kdenlive:id">2</property>
  </entry>
  <entry producer="producer5" in="00:09:16.440" out="00:09:18.160">
   <property name="kdenlive:id">2</property>
  </entry>
  <entry producer="producer5" in="00:09:20.080" out="00:09:22.160">
   <property name="kdenlive:id">2</property>
  </entry>
  <entry producer="producer5" in="00:09:24.760" out="00:09:34.720">
   <property name="kdenlive:id">2</property>
  </entry>
  <entry producer="producer5" in="00:09:35.520" out="00:09:37.840">
   <property name="kdenlive:id">2</property>
  </entry>
  <entry producer="producer5" in="00:09:40.320" out="00:09:42.240">
   <property name="kdenlive:id">2</property>
  </entry>
  <entry producer="producer5" in="00:09:47.320" out="00:09:49.560">
   <property name="kdenlive:id">2</property>
  </entry>
  <entry producer="producer5" in="00:09:52.320" out="00:09:56.680">
   <property name="kdenlive:id">2</property>
  </entry>
  <entry producer="producer5" in="00:09:57.560" out="00:09:59.440">
   <property name="kdenlive:id">2</property>
  </entry>
  <entry producer="producer5" in="00:10:00.160" out="00:10:01.480">
   <property name="kdenlive:id">2</property>
  </entry>
  <entry producer="producer5" in="00:10:02.120" out="00:10:04.400">
   <property name="kdenlive:id">2</property>
  </entry>
  <entry producer="producer5" in="00:10:05.320" out="00:10:06.320">
   <property name="kdenlive:id">2</property>
  </entry>
  <entry producer="producer5" in="00:10:07.360" out="00:10:10.360">
   <property name="kdenlive:id">2</property>
  </entry>
  <entry producer="producer5" in="00:10:11.120" out="00:10:17.760">
   <property name="kdenlive:id">2</property>
  </entry>
  <entry producer="producer5" in="00:10:18.200" out="00:10:19.640">
   <property name="kdenlive:id">2</property>
  </entry>
  <entry producer="producer5" in="00:10:19.920" out="00:10:21.320">
   <property name="kdenlive:id">2</property>
  </entry>
  <entry producer="producer5" in="00:10:21.720" out="00:10:25.040">
   <property name="kdenlive:id">2</property>
  </entry>
  <entry producer="producer5" in="00:10:27.120" out="00:10:27.560">
   <property name="kdenlive:id">2</property>
  </entry>
  <entry producer="producer5" in="00:10:28.200" out="00:10:29.880">
   <property name="kdenlive:id">2</property>
  </entry>
  <entry producer="producer5" in="00:10:33.040" out="00:10:33.640">
   <property name="kdenlive:id">2</property>
  </entry>
  <entry producer="producer5" in="00:10:34.880" out="00:10:38.080">
   <property name="kdenlive:id">2</property>
  </entry>
  <entry producer="producer5" in="00:10:41.520" out="00:10:43.120">
   <property name="kdenlive:id">2</property>
  </entry>
  <entry producer="producer5" in="00:10:44.160" out="00:10:44.600">
   <property name="kdenlive:id">2</property>
  </entry>
  <entry producer="producer5" in="00:10:45.280" out="00:10:50.120">
   <property name="kdenlive:id">2</property>
  </entry>
  <entry producer="producer5" in="00:10:53.200" out="00:10:53.840">
   <property name="kdenlive:id">2</property>
  </entry>
  <entry producer="producer5" in="00:10:55.920" out="00:10:56.960">
   <property name="kdenlive:id">2</property>
  </entry>
  <entry producer="producer5" in="00:10:58.360" out="00:11:01.600">
   <property name="kdenlive:id">2</property>
  </entry>
  <entry producer="producer5" in="00:11:02.480" out="00:11:04.480">
   <property name="kdenlive:id">2</property>
  </entry>
  <entry producer="producer5" in="00:11:04.920" out="00:11:06.720">
   <property name="kdenlive:id">2</property>
  </entry>
  <entry producer="producer5" in="00:11:07.840" out="00:11:08.880">
   <property name="kdenlive:id">2</property>
  </entry>
  <entry producer="producer5" in="00:11:09.360" out="00:11:12.200">
   <property name="kdenlive:id">2</property>
  </entry>
  <entry producer="producer5" in="00:11:19.600" out="00:11:24.560">
   <property name="kdenlive:id">2</property>
  </entry>
  <entry producer="producer5" in="00:11:26.040" out="00:11:28.840">
   <property name="kdenlive:id">2</property>
  </entry>
  <entry producer="producer5" in="00:11:30.560" out="00:11:31.240">
   <property name="kdenlive:id">2</property>
  </entry>
  <entry producer="producer5" in="00:11:31.720" out="00:11:35.320">
   <property name="kdenlive:id">2</property>
  </entry>
  <entry producer="producer5" in="00:11:35.560" out="00:11:36.800">
   <property name="kdenlive:id">2</property>
  </entry>
  <entry producer="producer5" in="00:11:37.360" out="00:11:38.720">
   <property name="kdenlive:id">2</property>
  </entry>
  <entry producer="producer5" in="00:11:39.440" out="00:11:48.480">
   <property name="kdenlive:id">2</property>
  </entry>
  <entry producer="producer5" in="00:11:53.440" out="00:11:54.640">
   <property name="kdenlive:id">2</property>
  </entry>
  <entry producer="producer5" in="00:11:55.240" out="00:11:57.280">
   <property name="kdenlive:id">2</property>
  </entry>
  <entry producer="producer5" in="00:12:00.160" out="00:12:01.080">
   <property name="kdenlive:id">2</property>
  </entry>
  <entry producer="producer5" in="00:12:02.960" out="00:12:07.320">
   <property name="kdenlive:id">2</property>
  </entry>
  <entry producer="producer5" in="00:12:08.600" out="00:12:10.560">
   <property name="kdenlive:id">2</property>
  </entry>
  <entry producer="producer5" in="00:12:11.800" out="00:12:13.040">
   <property name="kdenlive:id">2</property>
  </entry>
  <entry producer="producer5" in="00:12:13.560" out="00:12:17.000">
   <property name="kdenlive:id">2</property>
  </entry>
  <entry producer="producer5" in="00:12:18.960" out="00:12:19.880">
   <property name="kdenlive:id">2</property>
  </entry>
  <entry producer="producer5" in="00:12:20.600" out="00:12:21.560">
   <property name="kdenlive:id">2</property>
  </entry>
  <entry producer="producer5" in="00:12:23.080" out="00:12:23.880">
   <property name="kdenlive:id">2</property>
  </entry>
  <entry producer="producer5" in="00:12:25.720" out="00:12:27.240">
   <property name="kdenlive:id">2</property>
  </entry>
  <entry producer="producer5" in="00:12:28.240" out="00:12:29.480">
   <property name="kdenlive:id">2</property>
  </entry>
  <entry producer="producer5" in="00:12:31.800" out="00:12:34.960">
   <property name="kdenlive:id">2</property>
  </entry>
  <entry producer="producer5" in="00:12:37.320" out="00:12:37.520">
   <property name="kdenlive:id">2</property>
  </entry>
  <entry producer="producer5" in="00:12:41.360" out="00:12:43.120">
   <property name="kdenlive:id">2</property>
  </entry>
  <entry producer="producer5" in="00:12:43.440" out="00:12:47.040">
   <property name="kdenlive:id">2</property>
  </entry>
  <entry producer="producer5" in="00:12:48.080" out="00:12:49.720">
   <property name="kdenlive:id">2</property>
  </entry>
  <entry producer="producer5" in="00:12:50.560" out="00:12:55.800">
   <property name="kdenlive:id">2</property>
  </entry>
  <entry producer="producer5" in="00:12:55.840" out="00:12:56.560">
   <property name="kdenlive:id">2</property>
  </entry>
  <entry producer="producer5" in="00:12:57.800" out="00:12:58.880">
   <property name="kdenlive:id">2</property>
  </entry>
  <entry producer="producer5" in="00:12:59.920" out="00:13:04.880">
   <property name="kdenlive:id">2</property>
  </entry>
  <entry producer="producer5" in="00:13:06.840" out="00:13:10.480">
   <property name="kdenlive:id">2</property>
  </entry>
  <entry producer="producer5" in="00:13:12.800" out="00:13:13.320">
   <property name="kdenlive:id">2</property>
  </entry>
  <entry producer="producer5" in="00:13:15.120" out="00:13:15.640">
   <property name="kdenlive:id">2</property>
  </entry>
  <entry producer="producer5" in="00:13:17.480" out="00:13:19.640">
   <property name="kdenlive:id">2</property>
  </entry>
  <entry producer="producer5" in="00:13:20.280" out="00:13:21.440">
   <property name="kdenlive:id">2</property>
  </entry>
  <entry producer="producer5" in="00:13:25.120" out="00:13:26.240">
   <property name="kdenlive:id">2</property>
  </entry>
  <entry producer="producer5" in="00:13:27.040" out="00:13:28.200">
   <property name="kdenlive:id">2</property>
  </entry>
  <entry producer="producer5" in="00:13:28.760" out="00:13:29.840">
   <property name="kdenlive:id">2</property>
  </entry>
  <entry producer="producer5" in="00:13:32.080" out="00:13:33.640">
   <property name="kdenlive:id">2</property>
  </entry>
  <entry producer="producer5" in="00:13:34.760" out="00:13:37.520">
   <property name="kdenlive:id">2</property>
  </entry>
  <entry producer="producer5" in="00:13:39.440" out="00:13:49.520">
   <property name="kdenlive:id">2</property>
  </entry>
  <entry producer="producer5" in="00:13:49.960" out="00:13:52.400">
   <property name="kdenlive:id">2</property>
  </entry>
  <entry producer="producer5" in="00:13:54.360" out="00:13:55.040">
   <property name="kdenlive:id">2</property>
  </entry>
  <entry producer="producer5" in="00:13:56.120" out="00:13:56.680">
   <property name="kdenlive:id">2</property>
  </entry>
  <entry producer="producer5" in="00:13:57.360" out="00:14:01.240">
   <property name="kdenlive:id">2</property>
  </entry>
  <entry producer="producer5" in="00:14:02.440" out="00:14:03.120">
   <property name="kdenlive:id">2</property>
  </entry>
  <entry producer="producer5" in="00:14:04.040" out="00:14:04.560">
   <property name="kdenlive:id">2</property>
  </entry>
  <entry producer="producer5" in="00:14:05.200" out="00:14:08.360">
   <property name="kdenlive:id">2</property>
  </entry>
  <entry producer="producer5" in="00:14:08.880" out="00:14:09.240">
   <property name="kdenlive:id">2</property>
  </entry>
  <entry producer="producer5" in="00:14:10.000" out="00:14:10.640">
   <property name="kdenlive:id">2</property>
  </entry>
  <entry producer="producer5" in="00:14:11.680" out="00:14:23.800">
   <property name="kdenlive:id">2</property>
  </entry>
  <entry producer="producer5" in="00:14:25.200" out="00:14:27.400">
   <property name="kdenlive:id">2</property>
  </entry>
  <entry producer="producer5" in="00:14:28.000" out="00:14:34.760">
   <property name="kdenlive:id">2</property>
  </entry>
  <entry producer="producer5" in="00:14:35.760" out="00:14:36.480">
   <property name="kdenlive:id">2</property>
  </entry>
  <entry producer="producer5" in="00:14:37.200" out="00:14:43.200">
   <property name="kdenlive:id">2</property>
  </entry>
  <entry producer="producer5" in="00:14:44.320" out="00:14:45.240">
   <property name="kdenlive:id">2</property>
  </entry>
  <entry producer="producer5" in="00:14:45.760" out="00:14:47.160">
   <property name="kdenlive:id">2</property>
  </entry>
  <entry producer="producer5" in="00:14:48.120" out="00:14:49.080">
   <property name="kdenlive:id">2</property>
  </entry>
  <entry producer="producer5" in="00:14:49.600" out="00:14:56.480">
   <property name="kdenlive:id">2</property>
  </entry>
  <entry producer="producer5" in="00:14:57.640" out="00:15:27.840">
   <property name="kdenlive:id">2</property>
  </entry>
  <entry producer="producer5" in="00:15:28.480" out="00:15:30.360">
   <property name="kdenlive:id">2</property>
  </entry>
  <entry producer="producer5" in="00:15:32.000" out="00:15:37.160">
   <property name="kdenlive:id">2</property>
  </entry>
  <entry producer="producer5" in="00:15:39.200" out="00:15:40.600">
   <property name="kdenlive:id">2</property>
  </entry>
  <entry producer="producer5" in="00:15:42.280" out="00:15:43.960">
   <property name="kdenlive:id">2</property>
  </entry>
  <entry producer="producer5" in="00:15:44.440" out="00:15:45.400">
   <property name="kdenlive:id">2</property>
  </entry>
  <entry producer="producer5" in="00:15:46.400" out="00:15:48.520">
   <property name="kdenlive:id">2</property>
  </entry>
  <entry producer="producer5" in="00:15:49.920" out="00:15:51.160">
   <property name="kdenlive:id">2</property>
  </entry>
  <entry producer="producer5" in="00:15:51.640" out="00:16:00.000">
   <property name="kdenlive:id">2</property>
  </entry>
  <entry producer="producer5" in="00:16:00.400" out="00:16:01.640">
   <property name="kdenlive:id">2</property>
  </entry>
  <entry producer="producer5" in="00:16:02.520" out="00:16:04.040">
   <property name="kdenlive:id">2</property>
  </entry>
  <entry producer="producer5" in="00:16:04.960" out="00:16:05.880">
   <property name="kdenlive:id">2</property>
  </entry>
  <entry producer="producer5" in="00:16:06.960" out="00:16:08.920">
   <property name="kdenlive:id">2</property>
  </entry>
  <entry producer="producer5" in="00:16:09.440" out="00:16:16.400">
   <property name="kdenlive:id">2</property>
  </entry>
  <entry producer="producer5" in="00:16:17.800" out="00:16:18.920">
   <property name="kdenlive:id">2</property>
  </entry>
  <entry producer="producer5" in="00:16:20.520" out="00:16:25.560">
   <property name="kdenlive:id">2</property>
  </entry>
  <entry producer="producer5" in="00:16:26.720" out="00:16:29.160">
   <property name="kdenlive:id">2</property>
  </entry>
  <entry producer="producer5" in="00:16:29.720" out="00:16:31.200">
   <property name="kdenlive:id">2</property>
  </entry>
  <entry producer="producer5" in="00:16:32.440" out="00:16:33.040">
   <property name="kdenlive:id">2</property>
  </entry>
  <entry producer="producer5" in="00:16:34.200" out="00:16:34.880">
   <property name="kdenlive:id">2</property>
  </entry>
  <entry producer="producer5" in="00:16:36.200" out="00:16:48.400">
   <property name="kdenlive:id">2</property>
  </entry>
  <entry producer="producer5" in="00:16:48.880" out="00:16:49.920">
   <property name="kdenlive:id">2</property>
  </entry>
  <entry producer="producer5" in="00:16:50.280" out="00:16:50.400">
   <property name="kdenlive:id">2</property>
  </entry>
  <entry producer="producer5" in="00:16:55.360" out="00:17:07.960">
   <property name="kdenlive:id">2</property>
  </entry>
  <entry producer="producer5" in="00:17:09.360" out="00:17:11.320">
   <property name="kdenlive:id">2</property>
  </entry>
  <entry producer="producer5" in="00:17:12.920" out="00:17:22.440">
   <property name="kdenlive:id">2</property>
  </entry>
  <entry producer="producer5" in="00:17:23.320" out="00:17:26.520">
   <property name="kdenlive:id">2</property>
  </entry>
  <entry producer="producer5" in="00:17:28.320" out="00:17:29.800">
   <property name="kdenlive:id">2</property>
  </entry>
  <entry producer="producer5" in="00:17:31.200" out="00:17:38.520">
   <property name="kdenlive:id">2</property>
  </entry>
  <entry producer="producer5" in="00:17:39.440" out="00:17:42.440">
   <property name="kdenlive:id">2</property>
  </entry>
  <entry producer="producer5" in="00:17:44.520" out="00:17:45.040">
   <property name="kdenlive:id">2</property>
  </entry>
  <entry producer="producer5" in="00:17:48.280" out="00:17:49.440">
   <property name="kdenlive:id">2</property>
  </entry>
  <entry producer="producer5" in="00:17:50.640" out="00:17:54.640">
   <property name="kdenlive:id">2</property>
  </entry>
  <entry producer="producer5" in="00:17:55.840" out="00:17:56.320">
   <property name="kdenlive:id">2</property>
  </entry>
  <entry producer="producer5" in="00:17:56.680" out="00:17:58.160">
   <property name="kdenlive:id">2</property>
  </entry>
  <entry producer="producer5" in="00:17:58.720" out="00:17:59.040">
   <property name="kdenlive:id">2</property>
  </entry>
  <entry producer="producer5" in="00:17:59.320" out="00:18:04.160">
   <property name="kdenlive:id">2</property>
  </entry>
  <entry producer="producer5" in="00:18:04.600" out="00:18:06.280">
   <property name="kdenlive:id">2</property>
  </entry>
  <entry producer="producer5" in="00:18:07.040" out="00:18:11.840">
   <property name="kdenlive:id">2</property>
  </entry>
  <entry producer="producer5" in="00:18:13.280" out="00:18:17.040">
   <property name="kdenlive:id">2</property>
  </entry>
  <entry producer="producer5" in="00:18:18.720" out="00:18:21.200">
   <property name="kdenlive:id">2</property>
  </entry>
  <entry producer="producer5" in="00:18:23.280" out="00:18:23.680">
   <property name="kdenlive:id">2</property>
  </entry>
  <entry producer="producer5" in="00:18:25.400" out="00:18:29.160">
   <property name="kdenlive:id">2</property>
  </entry>
  <entry producer="producer5" in="00:18:30.160" out="00:18:33.240">
   <property name="kdenlive:id">2</property>
  </entry>
  <entry producer="producer5" in="00:18:34.080" out="00:18:34.640">
   <property name="kdenlive:id">2</property>
  </entry>
  <entry producer="producer5" in="00:18:35.280" out="00:18:42.080">
   <property name="kdenlive:id">2</property>
  </entry>
  <entry producer="producer5" in="00:18:42.560" out="00:18:46.200">
   <property name="kdenlive:id">2</property>
  </entry>
  <entry producer="producer5" in="00:18:46.320" out="00:19:00.600">
   <property name="kdenlive:id">2</property>
  </entry>
  <entry producer="producer5" in="00:19:00.960" out="00:19:01.480">
   <property name="kdenlive:id">2</property>
  </entry>
  <entry producer="producer5" in="00:19:02.200" out="00:19:04.560">
   <property name="kdenlive:id">2</property>
  </entry>
  <entry producer="producer5" in="00:19:05.120" out="00:19:05.560">
   <property name="kdenlive:id">2</property>
  </entry>
  <entry producer="producer5" in="00:19:06.240" out="00:19:07.720">
   <property name="kdenlive:id">2</property>
  </entry>
  <entry producer="producer5" in="00:19:12.080" out="00:19:12.840">
   <property name="kdenlive:id">2</property>
  </entry>
  <entry producer="producer5" in="00:19:14.680" out="00:19:17.560">
   <property name="kdenlive:id">2</property>
  </entry>
  <entry producer="producer5" in="00:19:20.120" out="00:19:21.960">
   <property name="kdenlive:id">2</property>
  </entry>
  <entry producer="producer5" in="00:19:22.720" out="00:19:26.400">
   <property name="kdenlive:id">2</property>
  </entry>
  <entry producer="producer5" in="00:19:27.640" out="00:19:32.680">
   <property name="kdenlive:id">2</property>
  </entry>
  <entry producer="producer5" in="00:19:33.520" out="00:19:34.520">
   <property name="kdenlive:id">2</property>
  </entry>
  <entry producer="producer5" in="00:19:35.160" out="00:19:36.040">
   <property name="kdenlive:id">2</property>
  </entry>
  <entry producer="producer5" in="00:19:36.200" out="00:19:37.320">
   <property name="kdenlive:id">2</property>
  </entry>
  <entry producer="producer5" in="00:19:37.960" out="00:19:39.200">
   <property name="kdenlive:id">2</property>
  </entry>
  <entry producer="producer5" in="00:19:39.760" out="00:19:40.440">
   <property name="kdenlive:id">2</property>
  </entry>
  <entry producer="producer5" in="00:19:40.760" out="00:19:42.280">
   <property name="kdenlive:id">2</property>
  </entry>
  <entry producer="producer5" in="00:19:47.200" out="00:19:47.680">
   <property name="kdenlive:id">2</property>
  </entry>
  <entry producer="producer5" in="00:19:48.320" out="00:19:49.240">
   <property name="kdenlive:id">2</property>
  </entry>
  <entry producer="producer5" in="00:19:49.920" out="00:19:50.880">
   <property name="kdenlive:id">2</property>
  </entry>
  <entry producer="producer5" in="00:19:54.880" out="00:19:55.800">
   <property name="kdenlive:id">2</property>
  </entry>
  <entry producer="producer5" in="00:19:57.000" out="00:20:01.360">
   <property name="kdenlive:id">2</property>
  </entry>
  <entry producer="producer5" in="00:20:02.240" out="00:20:05.240">
   <property name="kdenlive:id">2</property>
  </entry>
  <entry producer="producer5" in="00:20:06.080" out="00:20:07.040">
   <property name="kdenlive:id">2</property>
  </entry>
  <entry producer="producer5" in="00:20:07.720" out="00:20:09.160">
   <property name="kdenlive:id">2</property>
  </entry>
  <entry producer="producer5" in="00:20:09.360" out="00:20:21.200">
   <property name="kdenlive:id">2</property>
  </entry>
  <entry producer="producer5" in="00:20:21.560" out="00:20:23.960">
   <property name="kdenlive:id">2</property>
  </entry>
  <entry producer="producer5" in="00:20:25.360" out="00:20:34.360">
   <property name="kdenlive:id">2</property>
  </entry>
  <entry producer="producer5" in="00:20:36.640" out="00:20:37.400">
   <property name="kdenlive:id">2</property>
  </entry>
  <entry producer="producer5" in="00:20:37.920" out="00:20:42.160">
   <property name="kdenlive:id">2</property>
  </entry>
  <entry producer="producer5" in="00:20:44.560" out="00:20:45.960">
   <property name="kdenlive:id">2</property>
  </entry>
  <entry producer="producer5" in="00:20:47.680" out="00:20:49.840">
   <property name="kdenlive:id">2</property>
  </entry>
  <entry producer="producer5" in="00:20:50.760" out="00:20:52.600">
   <property name="kdenlive:id">2</property>
  </entry>
  <entry producer="producer5" in="00:20:53.320" out="00:20:59.320">
   <property name="kdenlive:id">2</property>
  </entry>
  <entry producer="producer5" in="00:20:59.360" out="00:20:59.520">
   <property name="kdenlive:id">2</property>
  </entry>
  <entry producer="producer5" in="00:21:00.120" out="00:21:01.640">
   <property name="kdenlive:id">2</property>
  </entry>
  <entry producer="producer5" in="00:21:02.960" out="00:21:04.960">
   <property name="kdenlive:id">2</property>
  </entry>
  <entry producer="producer5" in="00:21:05.280" out="00:21:06.320">
   <property name="kdenlive:id">2</property>
  </entry>
  <entry producer="producer5" in="00:21:06.720" out="00:21:12.640">
   <property name="kdenlive:id">2</property>
  </entry>
  <entry producer="producer5" in="00:21:15.320" out="00:21:16.440">
   <property name="kdenlive:id">2</property>
  </entry>
  <entry producer="producer5" in="00:21:17.040" out="00:21:17.880">
   <property name="kdenlive:id">2</property>
  </entry>
  <entry producer="producer5" in="00:21:18.120" out="00:21:19.400">
   <property name="kdenlive:id">2</property>
  </entry>
  <entry producer="producer5" in="00:21:20.640" out="00:21:23.880">
   <property name="kdenlive:id">2</property>
  </entry>
  <entry producer="producer5" in="00:21:24.240" out="00:21:25.160">
   <property name="kdenlive:id">2</property>
  </entry>
  <entry producer="producer5" in="00:21:26.240" out="00:21:26.800">
   <property name="kdenlive:id">2</property>
  </entry>
  <entry producer="producer5" in="00:21:31.480" out="00:21:36.400">
   <property name="kdenlive:id">2</property>
  </entry>
  <entry producer="producer5" in="00:21:37.400" out="00:21:40.800">
   <property name="kdenlive:id">2</property>
  </entry>
  <entry producer="producer5" in="00:21:41.760" out="00:21:43.040">
   <property name="kdenlive:id">2</property>
  </entry>
  <entry producer="producer5" in="00:21:44.160" out="00:21:49.720">
   <property name="kdenlive:id">2</property>
  </entry>
  <entry producer="producer5" in="00:21:51.000" out="00:21:53.720">
   <property name="kdenlive:id">2</property>
  </entry>
  <entry producer="producer5" in="00:21:57.120" out="00:21:57.920">
   <property name="kdenlive:id">2</property>
  </entry>
  <entry producer="producer5" in="00:21:58.200" out="00:22:03.920">
   <property name="kdenlive:id">2</property>
  </entry>
  <entry producer="producer5" in="00:22:04.440" out="00:22:04.840">
   <property name="kdenlive:id">2</property>
  </entry>
  <entry producer="producer5" in="00:22:08.920" out="00:22:09.480">
   <property name="kdenlive:id">2</property>
  </entry>
  <entry producer="producer5" in="00:22:09.840" out="00:22:17.560">
   <property name="kdenlive:id">2</property>
  </entry>
  <entry producer="producer5" in="00:22:18.120" out="00:22:18.680">
   <property name="kdenlive:id">2</property>
  </entry>
  <entry producer="producer5" in="00:22:19.400" out="00:22:29.720">
   <property name="kdenlive:id">2</property>
  </entry>
  <entry producer="producer5" in="00:22:32.120" out="00:22:35.120">
   <property name="kdenlive:id">2</property>
  </entry>
  <entry producer="producer5" in="00:22:36.000" out="00:22:36.680">
   <property name="kdenlive:id">2</property>
  </entry>
  <entry producer="producer5" in="00:22:40.320" out="00:22:40.840">
   <property name="kdenlive:id">2</property>
  </entry>
  <entry producer="producer5" in="00:22:41.240" out="00:22:43.600">
   <property name="kdenlive:id">2</property>
  </entry>
  <entry producer="producer5" in="00:22:44.600" out="00:22:47.120">
   <property name="kdenlive:id">2</property>
  </entry>
  <entry producer="producer5" in="00:22:47.480" out="00:22:48.320">
   <property name="kdenlive:id">2</property>
  </entry>
  <entry producer="producer5" in="00:22:48.920" out="00:22:56.160">
   <property name="kdenlive:id">2</property>
  </entry>
  <entry producer="producer5" in="00:22:57.360" out="00:22:57.760">
   <property name="kdenlive:id">2</property>
  </entry>
  <entry producer="producer5" in="00:22:58.200" out="00:23:05.480">
   <property name="kdenlive:id">2</property>
  </entry>
  <entry producer="producer5" in="00:23:05.880" out="00:23:06.720">
   <property name="kdenlive:id">2</property>
  </entry>
  <entry producer="producer5" in="00:23:11.720" out="00:23:16.640">
   <property name="kdenlive:id">2</property>
  </entry>
  <entry producer="producer5" in="00:23:17.560" out="00:23:22.880">
   <property name="kdenlive:id">2</property>
  </entry>
  <entry producer="producer5" in="00:23:23.840" out="00:23:25.480">
   <property name="kdenlive:id">2</property>
  </entry>
  <entry producer="producer5" in="00:23:25.760" out="00:23:38.080">
   <property name="kdenlive:id">2</property>
  </entry>
  <entry producer="producer5" in="00:23:38.640" out="00:23:39.920">
   <property name="kdenlive:id">2</property>
  </entry>
  <entry producer="producer5" in="00:23:41.200" out="00:23:43.680">
   <property name="kdenlive:id">2</property>
  </entry>
  <entry producer="producer5" in="00:23:44.240" out="00:23:49.720">
   <property name="kdenlive:id">2</property>
  </entry>
  <entry producer="producer5" in="00:23:51.800" out="00:23:54.440">
   <property name="kdenlive:id">2</property>
  </entry>
  <entry producer="producer5" in="00:23:55.320" out="00:24:00.880">
   <property name="kdenlive:id">2</property>
  </entry>
  <entry producer="producer5" in="00:24:01.240" out="00:24:01.640">
   <property name="kdenlive:id">2</property>
  </entry>
  <entry producer="producer5" in="00:24:02.760" out="00:24:03.920">
   <property name="kdenlive:id">2</property>
  </entry>
  <entry producer="producer5" in="00:24:05.800" out="00:24:16.680">
   <property name="kdenlive:id">2</property>
  </entry>
  <entry producer="producer5" in="00:24:17.680" out="00:24:23.320">
   <property name="kdenlive:id">2</property>
  </entry>
  <entry producer="producer5" in="00:24:23.800" out="00:24:28.480">
   <property name="kdenlive:id">2</property>
  </entry>
  <entry producer="producer5" in="00:24:30.040" out="00:24:34.800">
   <property name="kdenlive:id">2</property>
  </entry>
  <entry producer="producer5" in="00:24:37.200" out="00:24:41.960">
   <property name="kdenlive:id">2</property>
  </entry>
  <entry producer="producer5" in="00:24:46.000" out="00:24:51.840">
   <property name="kdenlive:id">2</property>
  </entry>
  <entry producer="producer5" in="00:24:57.080" out="00:24:57.960">
   <property name="kdenlive:id">2</property>
  </entry>
  <entry producer="producer5" in="00:24:59.120" out="00:25:00.720">
   <property name="kdenlive:id">2</property>
  </entry>
  <entry producer="producer5" in="00:25:02.200" out="00:25:09.960">
   <property name="kdenlive:id">2</property>
  </entry>
  <entry producer="producer5" in="00:25:11.560" out="00:25:14.000">
   <property name="kdenlive:id">2</property>
  </entry>
  <entry producer="producer5" in="00:25:14.480" out="00:25:16.560">
   <property name="kdenlive:id">2</property>
  </entry>
  <entry producer="producer5" in="00:25:17.320" out="00:25:22.000">
   <property name="kdenlive:id">2</property>
  </entry>
  <entry producer="producer5" in="00:25:29.360" out="00:25:30.400">
   <property name="kdenlive:id">2</property>
  </entry>
  <entry producer="producer5" in="00:25:31.680" out="00:25:33.240">
   <property name="kdenlive:id">2</property>
  </entry>
  <entry producer="producer5" in="00:25:35.000" out="00:25:40.200">
   <property name="kdenlive:id">2</property>
  </entry>
  <entry producer="producer5" in="00:25:42.520" out="00:25:49.080">
   <property name="kdenlive:id">2</property>
  </entry>
  <entry producer="producer5" in="00:25:50.920" out="00:25:59.200">
   <property name="kdenlive:id">2</property>
  </entry>
  <entry producer="producer5" in="00:26:00.440" out="00:26:06.000">
   <property name="kdenlive:id">2</property>
  </entry>
  <entry producer="producer5" in="00:26:10.280" out="00:26:10.840">
   <property name="kdenlive:id">2</property>
  </entry>
  <entry producer="producer5" in="00:26:11.440" out="00:26:13.160">
   <property name="kdenlive:id">2</property>
  </entry>
  <entry producer="producer5" in="00:26:13.760" out="00:26:17.560">
   <property name="kdenlive:id">2</property>
  </entry>
  <entry producer="producer5" in="00:26:18.520" out="00:26:19.920">
   <property name="kdenlive:id">2</property>
  </entry>
  <entry producer="producer5" in="00:26:20.680" out="00:26:22.920">
   <property name="kdenlive:id">2</property>
  </entry>
  <entry producer="producer5" in="00:26:24.000" out="00:26:35.440">
   <property name="kdenlive:id">2</property>
  </entry>
  <entry producer="producer5" in="00:26:35.720" out="00:26:36.280">
   <property name="kdenlive:id">2</property>
  </entry>
  <entry producer="producer5" in="00:26:36.600" out="00:26:37.560">
   <property name="kdenlive:id">2</property>
  </entry>
  <entry producer="producer5" in="00:26:40.040" out="00:26:40.760">
   <property name="kdenlive:id">2</property>
  </entry>
  <entry producer="producer5" in="00:26:41.080" out="00:26:42.080">
   <property name="kdenlive:id">2</property>
  </entry>
  <entry producer="producer5" in="00:26:42.240" out="00:26:45.760">
   <property name="kdenlive:id">2</property>
  </entry>
  <entry producer="producer5" in="00:26:47.000" out="00:26:48.200">
   <property name="kdenlive:id">2</property>
  </entry>
  <entry producer="producer5" in="00:26:48.720" out="00:26:51.000">
   <property name="kdenlive:id">2</property>
  </entry>
  <entry producer="producer5" in="00:26:51.480" out="00:26:53.640">
   <property name="kdenlive:id">2</property>
  </entry>
  <entry producer="producer5" in="00:26:58.960" out="00:27:00.280">
   <property name="kdenlive:id">2</property>
  </entry>
  <entry producer="producer5" in="00:27:00.960" out="00:27:03.920">
   <property name="kdenlive:id">2</property>
  </entry>
  <entry producer="producer5" in="00:27:04.560" out="00:27:05.680">
   <property name="kdenlive:id">2</property>
  </entry>
  <entry producer="producer5" in="00:27:07.640" out="00:27:09.040">
   <property name="kdenlive:id">2</property>
  </entry>
  <entry producer="producer5" in="00:27:09.560" out="00:27:10.080">
   <property name="kdenlive:id">2</property>
  </entry>
  <entry producer="producer5" in="00:27:14.000" out="00:27:16.280">
   <property name="kdenlive:id">2</property>
  </entry>
  <entry producer="producer5" in="00:27:21.160" out="00:27:22.840">
   <property name="kdenlive:id">2</property>
  </entry>
  <entry producer="producer5" in="00:27:23.480" out="00:27:24.200">
   <property name="kdenlive:id">2</property>
  </entry>
  <entry producer="producer5" in="00:27:27.440" out="00:27:28.720">
   <property name="kdenlive:id">2</property>
  </entry>
  <entry producer="producer5" in="00:27:31.000" out="00:27:33.040">
   <property name="kdenlive:id">2</property>
  </entry>
  <entry producer="producer5" in="00:27:36.160" out="00:27:38.640">
   <property name="kdenlive:id">2</property>
  </entry>
  <entry producer="producer5" in="00:27:39.960" out="00:27:41.520">
   <property name="kdenlive:id">2</property>
  </entry>
  <entry producer="producer5" in="00:27:44.040" out="00:27:45.520">
   <property name="kdenlive:id">2</property>
  </entry>
  <entry producer="producer5" in="00:27:45.960" out="00:27:47.680">
   <property name="kdenlive:id">2</property>
  </entry>
  <entry producer="producer5" in="00:27:48.520" out="00:27:56.560">
   <property name="kdenlive:id">2</property>
  </entry>
  <entry producer="producer5" in="00:27:59.320" out="00:28:01.760">
   <property name="kdenlive:id">2</property>
  </entry>
  <entry producer="producer5" in="00:28:02.600" out="00:28:03.200">
   <property name="kdenlive:id">2</property>
  </entry>
  <entry producer="producer5" in="00:28:07.880" out="00:28:18.440">
   <property name="kdenlive:id">2</property>
  </entry>
  <entry producer="producer5" in="00:28:19.160" out="00:28:19.880">
   <property name="kdenlive:id">2</property>
  </entry>
  <entry producer="producer5" in="00:28:20.520" out="00:28:22.680">
   <property name="kdenlive:id">2</property>
  </entry>
  <entry producer="producer5" in="00:28:26.600" out="00:28:27.160">
   <property name="kdenlive:id">2</property>
  </entry>
  <entry producer="producer5" in="00:28:28.040" out="00:28:29.960">
   <property name="kdenlive:id">2</property>
  </entry>
  <entry producer="producer5" in="00:28:30.600" out="00:28:31.560">
   <property name="kdenlive:id">2</property>
  </entry>
  <entry producer="producer5" in="00:28:32.240" out="00:28:33.800">
   <property name="kdenlive:id">2</property>
  </entry>
  <entry producer="producer5" in="00:28:34.080" out="00:28:35.520">
   <property name="kdenlive:id">2</property>
  </entry>
  <entry producer="producer5" in="00:28:51.480" out="00:28:53.400">
   <property name="kdenlive:id">2</property>
  </entry>
  <entry producer="producer5" in="00:28:53.640" out="00:28:54.000">
   <property name="kdenlive:id">2</property>
  </entry>
  <entry producer="producer5" in="00:28:54.560" out="00:28:56.160">
   <property name="kdenlive:id">2</property>
  </entry>
  <entry producer="producer5" in="00:29:01.120" out="00:29:08.960">
   <property name="kdenlive:id">2</property>
  </entry>
  <entry producer="producer5" in="00:29:09.680" out="00:29:10.000">
   <property name="kdenlive:id">2</property>
  </entry>
  <entry producer="producer5" in="00:29:11.360" out="00:29:14.600">
   <property name="kdenlive:id">2</property>
  </entry>
  <entry producer="producer5" in="00:29:15.120" out="00:29:16.000">
   <property name="kdenlive:id">2</property>
  </entry>
  <entry producer="producer5" in="00:29:16.640" out="00:29:19.200">
   <property name="kdenlive:id">2</property>
  </entry>
  <entry producer="producer5" in="00:29:20.880" out="00:29:23.000">
   <property name="kdenlive:id">2</property>
  </entry>
  <entry producer="producer5" in="00:29:23.920" out="00:29:25.440">
   <property name="kdenlive:id">2</property>
  </entry>
  <entry producer="producer5" in="00:29:25.680" out="00:29:26.800">
   <property name="kdenlive:id">2</property>
  </entry>
  <entry producer="producer5" in="00:29:27.960" out="00:29:28.400">
   <property name="kdenlive:id">2</property>
  </entry>
  <entry producer="producer5" in="00:29:29.840" out="00:29:30.520">
   <property name="kdenlive:id">2</property>
  </entry>
  <entry producer="producer5" in="00:29:32.800" out="00:29:34.600">
   <property name="kdenlive:id">2</property>
  </entry>
  <entry producer="producer5" in="00:29:36.400" out="00:30:01.520">
   <property name="kdenlive:id">2</property>
  </entry>
  <entry producer="producer5" in="00:30:05.040" out="00:30:10.160">
   <property name="kdenlive:id">2</property>
  </entry>
  <entry producer="producer5" in="00:30:11.200" out="00:30:13.880">
   <property name="kdenlive:id">2</property>
  </entry>
  <entry producer="producer5" in="00:30:14.360" out="00:30:14.880">
   <property name="kdenlive:id">2</property>
  </entry>
  <entry producer="producer5" in="00:30:15.840" out="00:30:16.720">
   <property name="kdenlive:id">2</property>
  </entry>
  <entry producer="producer5" in="00:30:23.040" out="00:31:04.720">
   <property name="kdenlive:id">2</property>
  </entry>
  <entry producer="producer5" in="00:31:05.840" out="00:31:15.040">
   <property name="kdenlive:id">2</property>
  </entry>
  <entry producer="producer5" in="00:31:16.920" out="00:31:18.160">
   <property name="kdenlive:id">2</property>
  </entry>
  <entry producer="producer5" in="00:31:19.080" out="00:31:35.760">
   <property name="kdenlive:id">2</property>
  </entry>
  <entry producer="producer5" in="00:31:37.720" out="00:31:38.800">
   <property name="kdenlive:id">2</property>
  </entry>
  <entry producer="producer5" in="00:31:39.600" out="00:31:41.200">
   <property name="kdenlive:id">2</property>
  </entry>
  <entry producer="producer5" in="00:31:41.640" out="00:31:43.040">
   <property name="kdenlive:id">2</property>
  </entry>
  <entry producer="producer5" in="00:31:44.360" out="00:31:45.720">
   <property name="kdenlive:id">2</property>
  </entry>
  <entry producer="producer5" in="00:31:46.360" out="00:31:49.720">
   <property name="kdenlive:id">2</property>
  </entry>
  <entry producer="producer5" in="00:31:50.520" out="00:31:57.520">
   <property name="kdenlive:id">2</property>
  </entry>
  <entry producer="producer5" in="00:31:58.720" out="00:32:00.400">
   <property name="kdenlive:id">2</property>
  </entry>
  <entry producer="producer5" in="00:32:03.560" out="00:32:04.200">
   <property name="kdenlive:id">2</property>
  </entry>
  <entry producer="producer5" in="00:32:06.160" out="00:32:08.760">
   <property name="kdenlive:id">2</property>
  </entry>
  <entry producer="producer5" in="00:32:12.600" out="00:32:14.080">
   <property name="kdenlive:id">2</property>
  </entry>
  <entry producer="producer5" in="00:32:14.720" out="00:32:14.880">
   <property name="kdenlive:id">2</property>
  </entry>
  <entry producer="producer5" in="00:32:15.600" out="00:32:55.120">
   <property name="kdenlive:id">2</property>
  </entry>
  <entry producer="producer5" in="00:32:55.840" out="00:32:59.840">
   <property name="kdenlive:id">2</property>
  </entry>
  <entry producer="producer5" in="00:33:00.240" out="00:33:03.880">
   <property name="kdenlive:id">2</property>
  </entry>
  <entry producer="producer5" in="00:33:05.240" out="00:33:05.760">
   <property name="kdenlive:id">2</property>
  </entry>
  <entry producer="producer5" in="00:33:06.160" out="00:33:07.760">
   <property name="kdenlive:id">2</property>
  </entry>
  <entry producer="producer5" in="00:33:09.360" out="00:33:10.840">
   <property name="kdenlive:id">2</property>
  </entry>
  <entry producer="producer5" in="00:33:11.360" out="00:33:13.360">
   <property name="kdenlive:id">2</property>
  </entry>
  <entry producer="producer5" in="00:33:17.440" out="00:33:18.560">
   <property name="kdenlive:id">2</property>
  </entry>
  <entry producer="producer5" in="00:33:21.720" out="00:33:22.920">
   <property name="kdenlive:id">2</property>
  </entry>
  <entry producer="producer5" in="00:33:23.280" out="00:33:25.160">
   <property name="kdenlive:id">2</property>
  </entry>
  <entry producer="producer5" in="00:33:26.840" out="00:33:27.640">
   <property name="kdenlive:id">2</property>
  </entry>
  <entry producer="producer5" in="00:33:28.040" out="00:33:28.800">
   <property name="kdenlive:id">2</property>
  </entry>
  <entry producer="producer5" in="00:33:35.520" out="00:33:35.880">
   <property name="kdenlive:id">2</property>
  </entry>
  <entry producer="producer5" in="00:33:36.760" out="00:33:37.360">
   <property name="kdenlive:id">2</property>
  </entry>
  <entry producer="producer5" in="00:33:41.360" out="00:33:41.680">
   <property name="kdenlive:id">2</property>
  </entry>
  <entry producer="producer5" in="00:33:44.080" out="00:33:44.640">
   <property name="kdenlive:id">2</property>
  </entry>
  <entry producer="producer5" in="00:33:44.880" out="00:33:46.680">
   <property name="kdenlive:id">2</property>
  </entry>
  <entry producer="producer5" in="00:33:47.080" out="00:33:47.760">
   <property name="kdenlive:id">2</property>
  </entry>
  <entry producer="producer5" in="00:33:50.720" out="00:33:55.320">
   <property name="kdenlive:id">2</property>
  </entry>
  <entry producer="producer5" in="00:33:56.400" out="00:34:15.120">
   <property name="kdenlive:id">2</property>
  </entry>
  <entry producer="producer5" in="00:34:15.520" out="00:34:16.240">
   <property name="kdenlive:id">2</property>
  </entry>
  <entry producer="producer5" in="00:34:16.920" out="00:34:25.640">
   <property name="kdenlive:id">2</property>
  </entry>
  <entry producer="producer5" in="00:34:35.360" out="00:34:37.200">
   <property name="kdenlive:id">2</property>
  </entry>
  <entry producer="producer5" in="00:34:39.400" out="00:34:41.680">
   <property name="kdenlive:id">2</property>
  </entry>
  <entry producer="producer5" in="00:34:43.080" out="00:34:57.960">
   <property name="kdenlive:id">2</property>
  </entry>
  <entry producer="producer5" in="00:35:00.120" out="00:35:05.960">
   <property name="kdenlive:id">2</property>
  </entry>
  <entry producer="producer5" in="00:35:08.680" out="00:35:10.400">
   <property name="kdenlive:id">2</property>
  </entry>
  <entry producer="producer5" in="00:35:11.200" out="00:35:12.920">
   <property name="kdenlive:id">2</property>
  </entry>
  <entry producer="producer5" in="00:35:13.360" out="00:35:16.560">
   <property name="kdenlive:id">2</property>
  </entry>
  <entry producer="producer5" in="00:35:20.560" out="00:35:25.440">
   <property name="kdenlive:id">2</property>
  </entry>
  <entry producer="producer5" in="00:35:27.240" out="00:35:31.720">
   <property name="kdenlive:id">2</property>
  </entry>
  <entry producer="producer5" in="00:35:36.240" out="00:35:37.720">
   <property name="kdenlive:id">2</property>
  </entry>
  <entry producer="producer5" in="00:35:38.560" out="00:35:40.600">
   <property name="kdenlive:id">2</property>
  </entry>
  <entry producer="producer5" in="00:35:41.800" out="00:35:42.720">
   <property name="kdenlive:id">2</property>
  </entry>
  <entry producer="producer5" in="00:35:45.360" out="00:35:55.840">
   <property name="kdenlive:id">2</property>
  </entry>
  <entry producer="producer5" in="00:35:56.800" out="00:36:01.240">
   <property name="kdenlive:id">2</property>
  </entry>
  <entry producer="producer5" in="00:36:01.280" out="00:36:01.760">
   <property name="kdenlive:id">2</property>
  </entry>
  <entry producer="producer5" in="00:36:02.600" out="00:36:03.760">
   <property name="kdenlive:id">2</property>
  </entry>
  <entry producer="producer5" in="00:36:04.240" out="00:36:17.920">
   <property name="kdenlive:id">2</property>
  </entry>
  <entry producer="producer5" in="00:36:24.240" out="00:36:48.600">
   <property name="kdenlive:id">2</property>
  </entry>
  <entry producer="producer5" in="00:36:50.480" out="00:36:52.160">
   <property name="kdenlive:id">2</property>
  </entry>
  <entry producer="producer5" in="00:36:52.600" out="00:36:53.000">
   <property name="kdenlive:id">2</property>
  </entry>
  <entry producer="producer5" in="00:36:53.800" out="00:36:54.360">
   <property name="kdenlive:id">2</property>
  </entry>
  <entry producer="producer5" in="00:36:59.400" out="00:37:09.360">
   <property name="kdenlive:id">2</property>
  </entry>
  <entry producer="producer5" in="00:37:13.120" out="00:37:15.200">
   <property name="kdenlive:id">2</property>
  </entry>
  <entry producer="producer5" in="00:37:16.840" out="00:37:42.600">
   <property name="kdenlive:id">2</property>
  </entry>
  <entry producer="producer5" in="00:37:45.080" out="00:38:12.160">
   <property name="kdenlive:id">2</property>
  </entry>
  <entry producer="producer5" in="00:38:16.440" out="00:38:19.040">
   <property name="kdenlive:id">2</property>
  </entry>
  <entry producer="producer5" in="00:38:19.680" out="00:38:42.160">
   <property name="kdenlive:id">2</property>
  </entry>
  <entry producer="producer5" in="00:38:42.560" out="00:38:44.280">
   <property name="kdenlive:id">2</property>
  </entry>
  <entry producer="producer5" in="00:38:45.200" out="00:38:45.560">
   <property name="kdenlive:id">2</property>
  </entry>
  <entry producer="producer5" in="00:38:47.560" out="00:38:49.240">
   <property name="kdenlive:id">2</property>
  </entry>
  <entry producer="producer5" in="00:38:52.160" out="00:38:53.160">
   <property name="kdenlive:id">2</property>
  </entry>
  <entry producer="producer5" in="00:38:58.440" out="00:39:29.360">
   <property name="kdenlive:id">2</property>
  </entry>
  <entry producer="producer5" in="00:39:30.240" out="00:39:36.440">
   <property name="kdenlive:id">2</property>
  </entry>
  <entry producer="producer5" in="00:39:41.840" out="00:39:47.560">
   <property name="kdenlive:id">2</property>
  </entry>
  <entry producer="producer5" in="00:39:53.920" out="00:39:56.080">
   <property name="kdenlive:id">2</property>
  </entry>
  <entry producer="producer5" in="00:39:59.360" out="00:40:00.520">
   <property name="kdenlive:id">2</property>
  </entry>
  <entry producer="producer5" in="00:40:01.680" out="00:40:28.720">
   <property name="kdenlive:id">2</property>
  </entry>
  <entry producer="producer5" in="00:40:30.040" out="00:40:31.880">
   <property name="kdenlive:id">2</property>
  </entry>
  <entry producer="producer5" in="00:40:33.000" out="00:40:34.920">
   <property name="kdenlive:id">2</property>
  </entry>
  <entry producer="producer5" in="00:40:35.320" out="00:40:40.760">
   <property name="kdenlive:id">2</property>
  </entry>
  <entry producer="producer5" in="00:40:42.920" out="00:40:57.400">
   <property name="kdenlive:id">2</property>
  </entry>
  <entry producer="producer5" in="00:40:57.880" out="00:40:58.840">
   <property name="kdenlive:id">2</property>
  </entry>
  <entry producer="producer5" in="00:40:59.400" out="00:41:15.200">
   <property name="kdenlive:id">2</property>
  </entry>
  <entry producer="producer5" in="00:41:19.160" out="00:41:20.080">
   <property name="kdenlive:id">2</property>
  </entry>
  <entry producer="producer5" in="00:41:23.160" out="00:41:26.440">
   <property name="kdenlive:id">2</property>
  </entry>
  <entry producer="producer5" in="00:41:31.680" out="00:41:53.360">
   <property name="kdenlive:id">2</property>
  </entry>
  <entry producer="producer5" in="00:41:54.600" out="00:41:57.440">
   <property name="kdenlive:id">2</property>
  </entry>
  <entry producer="producer5" in="00:41:57.880" out="00:41:58.520">
   <property name="kdenlive:id">2</property>
  </entry>
  <entry producer="producer5" in="00:42:00.040" out="00:42:03.480">
   <property name="kdenlive:id">2</property>
  </entry>
  <entry producer="producer5" in="00:42:05.320" out="00:42:09.040">
   <property name="kdenlive:id">2</property>
  </entry>
  <entry producer="producer5" in="00:42:09.520" out="00:42:14.320">
   <property name="kdenlive:id">2</property>
  </entry>
  <entry producer="producer5" in="00:42:17.160" out="00:42:21.800">
   <property name="kdenlive:id">2</property>
  </entry>
  <entry producer="producer5" in="00:42:27.240" out="00:42:33.560">
   <property name="kdenlive:id">2</property>
  </entry>
  <entry producer="producer5" in="00:42:36.080" out="00:42:39.640">
   <property name="kdenlive:id">2</property>
  </entry>
  <entry producer="producer5" in="00:42:41.640" out="00:42:41.840">
   <property name="kdenlive:id">2</property>
  </entry>
  <entry producer="producer5" in="00:42:42.720" out="00:42:43.880">
   <property name="kdenlive:id">2</property>
  </entry>
  <entry producer="producer5" in="00:42:45.440" out="00:42:47.280">
   <property name="kdenlive:id">2</property>
  </entry>
  <entry producer="producer5" in="00:42:47.880" out="00:42:51.520">
   <property name="kdenlive:id">2</property>
  </entry>
  <entry producer="producer5" in="00:42:54.000" out="00:42:56.680">
   <property name="kdenlive:id">2</property>
  </entry>
  <entry producer="producer5" in="00:42:58.160" out="00:43:01.040">
   <property name="kdenlive:id">2</property>
  </entry>
  <entry producer="producer5" in="00:43:01.760" out="00:43:05.240">
   <property name="kdenlive:id">2</property>
  </entry>
  <entry producer="producer5" in="00:43:06.720" out="00:43:09.480">
   <property name="kdenlive:id">2</property>
  </entry>
  <entry producer="producer5" in="00:43:10.480" out="00:43:12.000">
   <property name="kdenlive:id">2</property>
  </entry>
  <entry producer="producer5" in="00:43:19.000" out="00:43:24.720">
   <property name="kdenlive:id">2</property>
  </entry>
  <entry producer="producer5" in="00:43:25.240" out="00:44:13.560">
   <property name="kdenlive:id">2</property>
  </entry>
 </playlist>
 <playlist id="playlist5"/>
 <tractor id="tractor2" in="00:00:00.000" out="00:31:02.440">
  <property name="kdenlive:trackheight">69</property>
  <property name="kdenlive:collapsed">0</property>
  <property name="kdenlive:thumbs_format"/>
  <property name="kdenlive:audio_rec"/>
  <property name="kdenlive:timeline_active">1</property>
  <track hide="audio" producer="playlist4"/>
  <track hide="both" producer="playlist5"/>
 </tractor>
 <playlist id="playlist6">
  <blank length="00:00:09.440"/>
  <entry producer="producer0" in="00:00:00.000" out="00:00:04.960">
   <property name="kdenlive:id">3</property>
   <property name="kdenlive:activeeffect">1</property>
   <filter id="filter6">
    <property name="version">0.1</property>
    <property name="mlt_service">frei0r.scale0tilt</property>
    <property name="kdenlive_id">frei0r.scale0tilt</property>
    <property name="Clip left">00:00:00.000=0;00:00:00.760=0;00:00:03.880=0;00:00:04.920=0</property>
    <property name="Clip right">00:00:00.000=0;00:00:00.760=0;00:00:03.880=0;00:00:04.920=0</property>
    <property name="Clip top">00:00:00.000=0;00:00:00.760=0;00:00:03.880=0;00:00:04.920=0</property>
    <property name="Clip bottom">00:00:00.000=0;00:00:00.760=0;00:00:03.880=0;00:00:04.920=0</property>
    <property name="Scale X">0.5</property>
    <property name="Scale Y">0.5</property>
    <property name="Tilt X">00:00:00.000=0.367188;00:00:00.760=0.367188;00:00:03.880=0.379167;00:00:04.920=0.379167</property>
    <property name="Tilt Y">00:00:00.000=0.913889;00:00:00.760=0.548148;00:00:03.880=0.548148;00:00:04.920=1</property>
    <property name="kdenlive:collapsed">0</property>
   </filter>
   <filter id="filter7">
    <property name="version">0.2</property>
    <property name="mlt_service">frei0r.edgeglow</property>
    <property name="kdenlive_id">frei0r.edgeglow</property>
    <property name="lthresh">00:00:00.000=1;00:00:02.160=1;00:00:02.360=0.319;00:00:02.480=1;00:00:02.600=0.366;00:00:03.000=1</property>
    <property name="lupscale">00:00:00.000=0;00:00:02.160=0;00:00:02.360=0.577;00:00:02.480=0.056;00:00:02.600=0.594;00:00:03.000=0</property>
    <property name="lredscale">00:00:00.000=0;00:00:02.160=0;00:00:02.360=0.686;00:00:02.480=0;00:00:02.600=0.703;00:00:03.000=0</property>
    <property name="kdenlive:collapsed">0</property>
   </filter>
  </entry>
 </playlist>
 <playlist id="playlist7"/>
 <tractor id="tractor3" in="00:00:00.000" out="00:00:14.400">
  <property name="kdenlive:trackheight">69</property>
  <property name="kdenlive:collapsed">0</property>
  <property name="kdenlive:thumbs_format"/>
  <property name="kdenlive:audio_rec"/>
  <property name="kdenlive:timeline_active">1</property>
  <track hide="audio" producer="playlist6"/>
  <track hide="both" producer="playlist7"/>
 </tractor>
 <playlist id="playlist8">
  <blank length="00:00:09.440"/>
  <entry producer="producer2" in="00:00:00.000" out="00:00:04.960">
   <property name="kdenlive:id">4</property>
   <property name="kdenlive:activeeffect">0</property>
   <filter id="filter8">
    <property name="mode">alpha</property>
    <property name="alpha_operation">clear</property>
    <property name="invert">0</property>
    <property name="feather">0</property>
    <property name="feather_passes">1</property>
    <property name="mlt_service">rotoscoping</property>
    <property name="kdenlive_id">rotoscoping</property>
    <property name="spline">{
    "000": [
        [
            [
                0.3646875,
                0.822037037037037
            ],
            [
                0.3614583333333333,
                0.8592592592592593
            ],
            [
                0.41729166666666667,
                0.8625925925925926
            ]
        ],
        [
            [
                0.5847916666666666,
                0.8725925925925926
            ],
            [
                0.640625,
                0.8759259259259259
            ],
            [
                0.64,
                0.8387037037037036
            ]
        ],
        [
            [
                0.638125,
                0.727037037037037
            ],
            [
                0.6375,
                0.6898148148148148
            ],
            [
                0.5855208333333334,
                0.6864814814814815
            ]
        ],
        [
            [
                0.4295833333333333,
                0.6764814814814815
            ],
            [
                0.3776041666666667,
                0.6731481481481482
            ],
            [
                0.37437499999999996,
                0.7103703703703704
            ]
        ]
    ],
    "012": [
        [
            [
                0.5995833333333336,
                0.8363888888888888
            ],
            [
                0.5963541666666665,
                0.8736111111111112
            ],
            [
                0.6521875000000001,
                0.8769444444444444
            ]
        ],
        [
            [
                0.8196875000000001,
                0.8869444444444444
            ],
            [
                0.8755208333333334,
                0.8902777777777777
            ],
            [
                0.8748958333333334,
                0.8530555555555556
            ]
        ],
        [
            [
                0.8730208333333335,
                0.741388888888889
            ],
            [
                0.8723958333333335,
                0.7041666666666667
            ],
            [
                0.8204166666666668,
                0.7008333333333332
            ]
        ],
        [
            [
                0.6644791666666664,
                0.6908333333333334
            ],
            [
                0.6125000000000002,
                0.6875
            ],
            [
                0.6092708333333334,
                0.7247222222222224
            ]
        ]
    ]
}
</property>
    <property name="kdenlive:collapsed">0</property>
   </filter>
  </entry>
 </playlist>
 <playlist id="playlist9"/>
 <tractor id="tractor4" in="00:00:00.000" out="00:00:14.400">
  <property name="kdenlive:trackheight">69</property>
  <property name="kdenlive:timeline_active">1</property>
  <track producer="playlist8"/>
  <track hide="both" producer="playlist9"/>
 </tractor>
 <tractor id="tractor5" global_feed="1" in="00:00:00.000" out="00:51:02.480">
  <track producer="black_track"/>
  <track producer="tractor0"/>
  <track producer="tractor1"/>
  <track producer="tractor2"/>
  <track producer="tractor3"/>
  <track producer="tractor4"/>
  <transition id="transition0">
   <property name="a_track">0</property>
   <property name="b_track">1</property>
   <property name="mlt_service">mix</property>
   <property name="kdenlive_id">mix</property>
   <property name="internal_added">237</property>
   <property name="always_active">1</property>
   <property name="sum">1</property>
  </transition>
  <transition id="transition1">
   <property name="a_track">0</property>
   <property name="b_track">2</property>
   <property name="mlt_service">mix</property>
   <property name="kdenlive_id">mix</property>
   <property name="internal_added">237</property>
   <property name="always_active">1</property>
   <property name="sum">1</property>
  </transition>
  <transition id="transition2">
   <property name="a_track">0</property>
   <property name="b_track">3</property>
   <property name="compositing">0</property>
   <property name="distort">0</property>
   <property name="rotate_center">0</property>
   <property name="mlt_service">qtblend</property>
   <property name="kdenlive_id">qtblend</property>
   <property name="internal_added">237</property>
   <property name="always_active">1</property>
  </transition>
  <transition id="transition3">
   <property name="a_track">0</property>
   <property name="b_track">4</property>
   <property name="compositing">0</property>
   <property name="distort">0</property>
   <property name="rotate_center">0</property>
   <property name="mlt_service">qtblend</property>
   <property name="kdenlive_id">qtblend</property>
   <property name="internal_added">237</property>
   <property name="always_active">1</property>
  </transition>
  <transition id="transition4">
   <property name="a_track">0</property>
   <property name="b_track">5</property>
   <property name="compositing">0</property>
   <property name="distort">0</property>
   <property name="rotate_center">0</property>
   <property name="mlt_service">qtblend</property>
   <property name="kdenlive_id">qtblend</property>
   <property name="internal_added">237</property>
   <property name="always_active">1</property>
  </transition>
  <filter id="filter9">
   <property name="window">75</property>
   <property name="max_gain">20dB</property>
   <property name="mlt_service">volume</property>
   <property name="internal_added">237</property>
   <property name="disable">1</property>
  </filter>
  <filter id="filter10">
   <property name="channel">-1</property>
   <property name="mlt_service">panner</property>
   <property name="internal_added">237</property>
   <property name="start">0.5</property>
   <property name="disable">1</property>
  </filter>
  <filter id="filter11">
   <property name="iec_scale">0</property>
   <property name="mlt_service">audiolevel</property>
   <property name="disable">1</property>
  </filter>
 </tractor>
</mlt>
